<svg width="21" height="21" viewBox="0 0 21 21" fill="none" xmlns="http://www.w3.org/2000/svg">
<path d="M10 2.4715C8.5 2.9715 5.5 3.69687 5.5 5.29688M13 18.6677C15.5762 18.7757 17.8994 19.0507 19.5207 19.3206C19.7762 19.3631 19.976 19.0825 19.8651 18.8484C17.8016 14.493 19.0437 6.04584 20.0603 1.78357C20.113 1.56262 19.9111 1.36449 19.6901 1.4172C11.9907 3.25378 5.12275 2.31563 2.08553 1.47308C1.84522 1.40642 1.62116 1.64022 1.69964 1.87694C4.14498 9.25317 2.88278 16.0963 1.74399 19.1859C1.655 19.4274 1.88384 19.6783 2.1318 19.6094C5.4579 18.6854 9.46681 18.5195 13 18.6677ZM13 18.6677C14.1667 18.5441 16.6 17.8969 17 16.2969" stroke="black" stroke-opacity="0.85"/>
</svg>
