<svg width="20" height="20" viewBox="0 0 20 20" fill="none" xmlns="http://www.w3.org/2000/svg">
<path d="M10.0001 15L6.19423 9.625C5.57123 8.88944 5.17003 7.99204 5.03733 7.03728C4.90463 6.08253 5.04591 5.10972 5.4447 4.23216C5.84349 3.35459 6.48339 2.60837 7.28987 2.08041C8.09636 1.55245 9.03624 1.26446 10.0001 1.25C11.3362 1.2632 12.6127 1.80543 13.5499 2.75791C14.487 3.71038 15.0085 4.99547 15.0001 6.33167C15.0005 7.49711 14.6037 8.62789 13.8751 9.5375L10.0001 15ZM10.0001 2.5C8.99486 2.51143 8.0353 2.9214 7.33217 3.63984C6.62904 4.35829 6.23984 5.32645 6.25006 6.33167C6.25432 7.24911 6.58453 8.13518 7.18173 8.83167L10.0001 12.825L12.8942 8.75C13.444 8.06346 13.7456 7.21122 13.7501 6.33167C13.7601 5.32652 13.3708 4.35848 12.6677 3.64008C11.9646 2.92169 11.0052 2.51165 10.0001 2.5Z" fill="black" fill-opacity="0.85"/>
<path d="M10 6.875C10.3315 6.875 10.6495 6.7433 10.8839 6.50888C11.1183 6.27446 11.25 5.95652 11.25 5.625C11.25 5.29348 11.1183 4.97554 10.8839 4.74112C10.6495 4.5067 10.3315 4.375 10 4.375C9.66848 4.375 9.35054 4.5067 9.11612 4.74112C8.8817 4.97554 8.75 5.29348 8.75 5.625C8.75 5.95652 8.8817 6.27446 9.11612 6.50888C9.35054 6.7433 9.66848 6.875 10 6.875Z" fill="black" fill-opacity="0.85"/>
<path d="M17.5 7.5H16.25V8.75H17.5V17.5H2.5V8.75H3.75V7.5H2.5C2.16848 7.5 1.85054 7.6317 1.61612 7.86612C1.3817 8.10054 1.25 8.41848 1.25 8.75V17.5C1.25 17.8315 1.3817 18.1495 1.61612 18.3839C1.85054 18.6183 2.16848 18.75 2.5 18.75H17.5C17.8315 18.75 18.1495 18.6183 18.3839 18.3839C18.6183 18.1495 18.75 17.8315 18.75 17.5V8.75C18.75 8.41848 18.6183 8.10054 18.3839 7.86612C18.1495 7.6317 17.8315 7.5 17.5 7.5Z" fill="black" fill-opacity="0.85"/>
</svg>
