<svg width="20" height="20" viewBox="0 0 20 20" fill="none" xmlns="http://www.w3.org/2000/svg">
<path d="M16.2507 18.125H16.1448C3.86317 17.4183 2.11984 7.05583 1.87567 3.89333C1.85609 3.64748 1.8852 3.40018 1.96134 3.16559C2.03749 2.93101 2.15916 2.71375 2.3194 2.52626C2.47964 2.33877 2.67529 2.18474 2.89516 2.07299C3.11502 1.96123 3.35477 1.89395 3.60067 1.875H7.04484C7.29519 1.87476 7.53984 1.94969 7.74711 2.0901C7.95438 2.23051 8.11471 2.42992 8.20734 2.6625L9.15734 5C9.24881 5.22722 9.27151 5.4763 9.22262 5.71631C9.17373 5.95631 9.0554 6.17667 8.88234 6.35L7.55067 7.69333C7.75856 8.87508 8.32446 9.96443 9.17179 10.814C10.0191 11.6636 11.107 12.2323 12.2882 12.4433L13.6448 11.1C13.8206 10.9288 14.043 10.8131 14.2841 10.7675C14.5252 10.7218 14.7745 10.7482 15.0007 10.8433L17.3573 11.7875C17.5863 11.8831 17.7817 12.0447 17.9185 12.2518C18.0553 12.4588 18.1275 12.7018 18.1257 12.95V16.25C18.1257 16.7473 17.9281 17.2242 17.5765 17.5758C17.2249 17.9275 16.748 18.125 16.2507 18.125ZM3.75067 3.125C3.58491 3.125 3.42594 3.19085 3.30873 3.30806C3.19152 3.42527 3.12567 3.58424 3.12567 3.75V3.8C3.41317 7.5 5.25734 16.25 16.2132 16.875C16.2953 16.8802 16.3777 16.8691 16.4555 16.8423C16.5333 16.8156 16.6051 16.7737 16.6666 16.7191C16.7282 16.6645 16.7784 16.5982 16.8143 16.5242C16.8501 16.4501 16.871 16.3697 16.8757 16.2875V12.95L14.5198 12.0067L12.7257 13.7875L12.4257 13.75C6.98817 13.0683 6.25067 7.63167 6.25067 7.575L6.21317 7.275L7.98817 5.48083L7.05067 3.125H3.75067Z" fill="black" fill-opacity="0.85"/>
</svg>
