<svg width="129" height="36" viewBox="0 0 129 36" fill="none" xmlns="http://www.w3.org/2000/svg">
<g clip-path="url(#clip0_2017_1462)">
<rect x="0.158845" y="-1.094e-08" width="3.71288" height="13.9094" transform="matrix(-0.865439 0.501015 -0.865439 -0.501015 34.914 11.3547)" fill="white" stroke="#80AAB8" stroke-width="0.183542" stroke-linejoin="round"/>
<rect x="0.0794171" y="-0.0457834" width="9.82673" height="13.8067" transform="matrix(1.35545e-07 1 -0.865382 -0.501113 31.6663 13.0664)" fill="white" stroke="#80AAB8" stroke-width="0.183542" stroke-linejoin="round"/>
<rect x="-0.0794136" y="-0.0457894" width="20.1163" height="11.0549" transform="matrix(0.86542 -0.501048 -7.51258e-05 1 6.35747 13.4394)" fill="white" stroke="#80AAB8" stroke-width="0.183542" stroke-linejoin="round"/>
<rect x="-3.4625e-06" y="0.0919574" width="9.39405" height="21.0727" transform="matrix(-0.86542 -0.501048 0.865457 -0.500982 13.477 26.8772)" fill="white" stroke="#80AAB8" stroke-width="0.183542" stroke-linejoin="round"/>
<rect x="-0.0794223" y="0.137756" width="5.49099" height="20.0845" transform="matrix(3.75224e-05 -1 0.865401 -0.50108 13.0729 32.3539)" fill="white" stroke="#80AAB8" stroke-width="0.183542" stroke-linejoin="round"/>
<rect x="-0.0794223" y="0.137756" width="3.52872" height="21.5625" transform="matrix(3.75224e-05 -1 0.865401 -0.50108 13.0729 30.3918)" fill="white" stroke="#80AAB8" stroke-width="0.183542" stroke-linejoin="round"/>
<rect x="0.0794153" y="0.0457864" width="3.59229" height="9.83203" transform="matrix(-0.865401 0.50108 3.74681e-05 -1 34.8015 21.1968)" fill="white" stroke="#80AAB8" stroke-width="0.183542" stroke-linejoin="round"/>
<rect y="-0.0919574" width="3.58551" height="9.93491" transform="matrix(0.865439 0.501015 -0.865439 0.501015 20.5581 1.67637)" fill="white" stroke="#80AAB8" stroke-width="0.183542" stroke-linejoin="round"/>
<path d="M12.1294 6.72697L14.9026 8.33245L6.29891 13.3137C6.25641 13.3383 6.23023 13.3837 6.23023 13.4328L6.22961 21.5927L5.51649 22.0055C5.47397 22.0301 5.44779 22.0755 5.44779 22.1246C5.44779 22.1737 5.47397 22.2191 5.51648 22.2437L6.22953 22.6566L6.22941 24.3508C6.2294 24.4 6.25567 24.4455 6.2983 24.47C6.34094 24.4946 6.39345 24.4946 6.43604 24.4699L7.89881 23.623L13.2946 26.747L13.2027 26.8002C13.1602 26.8248 13.134 26.8702 13.134 26.9193L13.1338 32.2268C13.1338 32.276 13.1601 32.3215 13.2027 32.3461C13.2454 32.3706 13.2979 32.3706 13.3405 32.3459L30.5062 22.4067L31.541 23.006C31.5462 23.01 31.5516 23.0137 31.5574 23.017C31.5855 23.0333 31.6179 23.0388 31.649 23.0336C31.6657 23.031 31.682 23.0254 31.6971 23.0167C31.7015 23.0142 31.7057 23.0115 31.7097 23.0085L34.7297 21.2599C34.7722 21.2352 34.7984 21.1899 34.7984 21.1407L34.7988 11.4578C34.7988 11.4085 34.7725 11.3631 34.7299 11.3385C34.7237 11.3349 34.7173 11.3319 34.7108 11.3294L23.7556 4.98725L23.7557 3.44561C23.7557 3.39639 23.7295 3.35092 23.6868 3.32634C23.6803 3.3226 23.6736 3.31943 23.6667 3.31683L20.7065 1.60313C20.6639 1.57843 20.6113 1.57843 20.5686 1.60313L12.1294 6.48871C12.0869 6.51332 12.0607 6.55872 12.0607 6.60784C12.0607 6.65696 12.0869 6.70236 12.1294 6.72697Z" stroke="#80AAB8" stroke-width="0.275313" stroke-linejoin="round"/>
<rect width="3.82001" height="10.323" transform="matrix(0.865439 0.501015 -0.865439 0.501015 12.0151 6.39032)" fill="#B3DAE7"/>
<rect width="10.3464" height="10.8832" transform="matrix(0.86542 -0.501048 -7.51258e-05 1 6.36768 13.4676)" fill="#80AAB8"/>
<rect width="9.21525" height="11.257" transform="matrix(-0.86542 -0.501048 0.865457 -0.500982 13.5562 26.7393)" fill="#B3DAE7"/>
<rect width="3.79864" height="11.7904" transform="matrix(0.865401 0.50108 3.75264e-05 1 3.08008 11.5609)" fill="#9AC6D4"/>
<rect width="5.65036" height="11.6052" transform="matrix(3.75224e-05 -1 0.865401 -0.50108 13.2554 32.5646)" fill="#80AAB8"/>
<rect width="3.53036" height="9.8308" transform="matrix(-0.865401 0.50108 3.74681e-05 -1 15.2715 32.3926)" fill="#80AAB8"/>
<rect width="9.83014" height="14.0953" transform="matrix(1.35545e-07 1 -0.865382 -0.501113 12.2178 24.3411)" fill="#9AC6D4"/>
<rect width="3.52999" height="14.0724" transform="matrix(-0.865439 0.501015 -0.865439 -0.501015 15.2529 22.5592)" fill="#B3DAE7"/>
</g>
<path d="M47.6468 16.5752V13.4518H44.6998V16.5752H42.584V8.65259H44.6998V11.7759H47.6468V8.65259H49.7626V16.5752H47.6468Z" fill="black"/>
<path d="M52.5644 12.6139C52.5644 14.046 53.1085 15.2039 54.4535 15.2039C55.7985 15.2039 56.3426 14.046 56.3426 12.6139C56.3426 11.1817 55.7985 10.0238 54.4535 10.0238C53.1085 10.0238 52.5644 11.1817 52.5644 12.6139ZM50.4486 12.6139C50.4486 10.298 51.8692 8.42405 54.4535 8.42405C57.0378 8.42405 58.4584 10.298 58.4584 12.6139C58.4584 14.9297 57.0378 16.8037 54.4535 16.8037C51.8692 16.8037 50.4486 14.9297 50.4486 12.6139Z" fill="black"/>
<path d="M59.1432 16.5752V8.65259H62.9214C64.9617 8.65259 66.0196 9.33819 66.0196 10.7856C66.0196 12.0806 64.8105 12.3853 64.8105 12.3853V12.4615C64.8105 12.4615 66.2463 12.7662 66.2463 14.2898C66.2463 15.8134 65.2639 16.5752 63.1481 16.5752H59.1432ZM62.9214 13.2233H61.259V15.0516H63.0726C63.7526 15.0516 64.1305 14.7469 64.1305 14.1374C64.1305 13.528 63.6771 13.2233 62.9214 13.2233ZM61.259 11.8521H62.7703C63.5259 11.8521 63.9038 11.5474 63.9038 11.0141C63.9038 10.4809 63.6015 10.1762 62.9214 10.1762H61.259V11.8521Z" fill="black"/>
<path d="M66.8472 16.5752V8.65259H68.963V11.5474H69.8698C72.0612 11.5474 73.2702 12.5377 73.2702 14.0613C73.2702 15.5848 72.0612 16.5752 69.8698 16.5752H66.8472ZM69.5676 13.0709H68.963V15.0516H69.5676C70.701 15.0516 71.1544 14.7469 71.1544 14.0613C71.1544 13.3757 70.701 13.0709 69.5676 13.0709ZM75.9905 8.65259V16.5752H73.8747V8.65259H75.9905Z" fill="black"/>
<path d="M77.506 7.8908V7.28137H83.3244V7.8908H77.506ZM84.0801 8.65259V16.5752H82.0398V15.2801H81.9642C81.9642 15.2801 81.2842 16.8037 79.5462 16.8037C77.3548 16.8037 76.7503 15.3563 76.7503 13.528V8.65259H78.8661V13.0709C78.8661 14.4422 79.2439 15.0516 80.2263 15.0516C81.3597 15.0516 81.9642 14.366 81.9642 12.7662V8.65259H84.0801Z" fill="black"/>
<path d="M96.3274 8.65259V15.661C96.3274 17.9464 95.1184 19.5461 92.398 19.5461C88.7709 19.5461 88.6954 16.8037 88.6954 16.8037H90.8112C90.8112 16.8037 90.8867 17.9464 92.398 17.9464C93.7431 17.9464 94.2116 17.1846 94.2116 15.8134V15.4325H94.136C94.136 15.4325 93.4559 16.499 91.7935 16.499C89.5266 16.499 88.3931 14.5183 88.3931 12.4615C88.3931 10.4047 89.5266 8.42405 91.7935 8.42405C93.5315 8.42405 94.2116 9.71908 94.2116 9.71908H94.2871V8.65259H96.3274ZM94.2871 12.4615C94.2871 11.1817 93.6826 10.0238 92.398 10.0238C91.1134 10.0238 90.5089 11.1817 90.5089 12.4615C90.5089 13.7413 91.1134 14.8992 92.398 14.8992C93.6826 14.8992 94.2871 13.7413 94.2871 12.4615Z" fill="black"/>
<path d="M104.418 8.65259V16.5752H102.377V15.2801H102.302C102.302 15.2801 101.622 16.8037 99.8836 16.8037C97.6923 16.8037 97.0878 15.3563 97.0878 13.528V8.65259H99.2036V13.0709C99.2036 14.4422 99.5814 15.0516 100.564 15.0516C101.697 15.0516 102.302 14.366 102.302 12.7662V8.65259H104.418Z" fill="black"/>
<path d="M105.176 16.5752V8.65259H108.954C110.994 8.65259 112.052 9.33819 112.052 10.7856C112.052 12.0806 110.843 12.3853 110.843 12.3853V12.4615C110.843 12.4615 112.279 12.7662 112.279 14.2898C112.279 15.8134 111.296 16.5752 109.18 16.5752H105.176ZM108.954 13.2233H107.291V15.0516H109.105C109.785 15.0516 110.163 14.7469 110.163 14.1374C110.163 13.528 109.709 13.2233 108.954 13.2233ZM107.291 11.8521H108.803C109.558 11.8521 109.936 11.5474 109.936 11.0141C109.936 10.4809 109.634 10.1762 108.954 10.1762H107.291V11.8521Z" fill="black"/>
<path d="M115.071 11.0903H112.955C113.076 9.06395 114.693 8.42405 116.507 8.42405C118.396 8.42405 119.907 9.10966 119.907 11.1665V16.5752H117.791V15.0516H117.716C117.716 15.0516 117.232 16.8037 115.222 16.8037C113.786 16.8037 112.728 16.1333 112.728 14.6707C112.728 13.1928 113.937 12.5225 115.237 12.1873C116.552 11.8521 117.791 11.7454 117.791 10.8618C117.791 10.2371 117.338 9.87144 116.507 9.87144C115.6 9.87144 115.101 10.2371 115.071 11.0903ZM117.791 12.5834C117.444 12.9033 116.733 13.0709 116.129 13.2233C115.449 13.3909 114.874 13.7413 114.874 14.4422C114.874 15.0516 115.298 15.4325 115.978 15.4325C117.413 15.4325 117.791 13.7565 117.791 12.5834Z" fill="black"/>
<path d="M125.72 16.5752V13.4518H122.773V16.5752H120.657V8.65259H122.773V11.7759H125.72V8.65259H127.836V16.5752H125.72Z" fill="black"/>
<path fill-rule="evenodd" clip-rule="evenodd" d="M48.1231 26.7152C47.647 26.7152 47.2679 26.5696 46.9859 26.2784C46.7039 25.9826 46.549 25.5805 46.5213 25.0721C46.5167 25.012 46.5144 24.9358 46.5144 24.8433C46.5144 24.7463 46.5167 24.6677 46.5213 24.6076C46.5398 24.2795 46.6161 23.9929 46.7501 23.7479C46.8842 23.4984 47.0668 23.3065 47.2979 23.1725C47.5337 23.0385 47.8088 22.9715 48.1231 22.9715C48.4745 22.9715 48.768 23.0454 49.0038 23.1933C49.2442 23.3412 49.4268 23.5515 49.5516 23.8242C49.6764 24.0969 49.7388 24.4158 49.7388 24.7809V24.8988C49.7388 24.9496 49.7227 24.9889 49.6903 25.0166C49.6626 25.0444 49.6256 25.0582 49.5794 25.0582H47.1801V25.1206C47.1893 25.3101 47.2309 25.4881 47.3049 25.6545C47.3788 25.8162 47.4852 25.948 47.6239 26.0496C47.7625 26.1513 47.929 26.2022 48.1231 26.2022C48.2896 26.2022 48.4282 26.1767 48.5392 26.1259C48.6501 26.0751 48.7403 26.0196 48.8096 25.9595C48.879 25.8948 48.9252 25.8463 48.9483 25.8139C48.9899 25.7538 49.0223 25.7192 49.0454 25.7099C49.0685 25.6961 49.1055 25.6891 49.1564 25.6891H49.4892C49.5354 25.6891 49.5724 25.703 49.6002 25.7307C49.6325 25.7538 49.6464 25.7885 49.6418 25.8347C49.6371 25.904 49.6002 25.9896 49.5308 26.0912C49.4615 26.1883 49.3621 26.2854 49.2326 26.3824C49.1032 26.4795 48.946 26.5604 48.7611 26.6251C48.5762 26.6851 48.3635 26.7152 48.1231 26.7152ZM47.291 24.0044C47.217 24.1662 47.1801 24.3511 47.1801 24.5591V24.5799H49.0801V24.5591C49.0801 24.3511 49.0408 24.1662 48.9622 24.0044C48.8882 23.8427 48.7796 23.7156 48.6363 23.6231C48.493 23.5261 48.3219 23.4776 48.1231 23.4776C47.9243 23.4776 47.7533 23.5261 47.61 23.6231C47.4713 23.7156 47.365 23.8427 47.291 24.0044Z" fill="black"/>
<path d="M42.7435 26.6459C42.6972 26.6459 42.658 26.632 42.6256 26.6043C42.5979 26.5719 42.584 26.5326 42.584 26.4864V23.2002C42.584 23.154 42.5979 23.117 42.6256 23.0893C42.658 23.057 42.6972 23.0408 42.7435 23.0408H45.4964C45.5426 23.0408 45.5796 23.057 45.6074 23.0893C45.6397 23.117 45.6559 23.154 45.6559 23.2002V26.4864C45.6559 26.5326 45.6397 26.5719 45.6074 26.6043C45.5796 26.632 45.5426 26.6459 45.4964 26.6459H45.1636C45.1173 26.6459 45.0804 26.632 45.0526 26.6043C45.0249 26.5719 45.011 26.5326 45.011 26.4864V23.5954H43.2289V26.4864C43.2289 26.5326 43.215 26.5719 43.1873 26.6043C43.1595 26.632 43.1226 26.6459 43.0763 26.6459H42.7435Z" fill="black"/>
<path fill-rule="evenodd" clip-rule="evenodd" d="M50.6165 27.9146C50.6489 27.9469 50.6882 27.9631 50.7344 27.9631H51.0673C51.1181 27.9631 51.1574 27.9469 51.1851 27.9146C51.2129 27.8868 51.2267 27.8499 51.2267 27.8036V26.1952C51.3423 26.3431 51.4903 26.4679 51.6705 26.5696C51.8555 26.6667 52.082 26.7152 52.3501 26.7152C52.609 26.7152 52.8286 26.6713 53.0089 26.5835C53.1938 26.491 53.344 26.3709 53.4596 26.223C53.5798 26.0704 53.67 25.8971 53.7301 25.703C53.7902 25.5043 53.8225 25.2963 53.8271 25.079C53.8318 25.0051 53.8341 24.9265 53.8341 24.8433C53.8341 24.7601 53.8318 24.6816 53.8271 24.6076C53.8225 24.3858 53.7902 24.1778 53.7301 23.9837C53.67 23.7895 53.5798 23.6162 53.4596 23.4637C53.344 23.3112 53.1938 23.191 53.0089 23.1032C52.8286 23.0154 52.609 22.9715 52.3501 22.9715C52.0727 22.9715 51.8416 23.0223 51.6567 23.124C51.4718 23.2257 51.3238 23.3528 51.2129 23.5053V23.2002C51.2129 23.154 51.1967 23.117 51.1643 23.0893C51.1366 23.057 51.0996 23.0408 51.0534 23.0408H50.7344C50.6882 23.0408 50.6489 23.057 50.6165 23.0893C50.5888 23.117 50.5749 23.154 50.5749 23.2002V27.8036C50.5749 27.8499 50.5888 27.8868 50.6165 27.9146ZM52.7662 26.0011C52.6321 26.1028 52.4449 26.1536 52.2045 26.1536C51.9872 26.1536 51.8069 26.1028 51.6636 26.0011C51.5203 25.8994 51.4117 25.77 51.3377 25.6129C51.2684 25.4557 51.2314 25.2963 51.2267 25.1345C51.2221 25.0559 51.2198 24.9658 51.2198 24.8641C51.2198 24.7624 51.2221 24.6746 51.2267 24.6007C51.236 24.4297 51.273 24.2633 51.3377 24.1015C51.407 23.9351 51.5111 23.7988 51.6497 23.6925C51.7931 23.5862 51.978 23.533 52.2045 23.533C52.4449 23.533 52.6321 23.5862 52.7662 23.6925C52.9049 23.7942 53.0043 23.9305 53.0644 24.1015C53.1245 24.2679 53.1591 24.4482 53.1684 24.6423C53.173 24.7763 53.173 24.9103 53.1684 25.0444C53.1591 25.2385 53.1245 25.4211 53.0644 25.5921C53.0043 25.7585 52.9049 25.8948 52.7662 26.0011Z" fill="black"/>
<path fill-rule="evenodd" clip-rule="evenodd" d="M56.1342 26.7152C55.6581 26.7152 55.279 26.5696 54.997 26.2784C54.715 25.9826 54.5601 25.5805 54.5324 25.0721C54.5278 25.012 54.5254 24.9358 54.5254 24.8433C54.5254 24.7463 54.5278 24.6677 54.5324 24.6076C54.5509 24.2795 54.6272 23.9929 54.7612 23.7479C54.8953 23.4984 55.0779 23.3065 55.309 23.1725C55.5448 23.0385 55.8199 22.9715 56.1342 22.9715C56.4856 22.9715 56.7791 23.0454 57.0149 23.1933C57.2553 23.3412 57.4379 23.5515 57.5627 23.8242C57.6875 24.0969 57.7499 24.4158 57.7499 24.7809V24.8988C57.7499 24.9496 57.7337 24.9889 57.7014 25.0166C57.6737 25.0444 57.6367 25.0582 57.5904 25.0582H55.1911V25.1206C55.2004 25.3101 55.242 25.4881 55.316 25.6545C55.3899 25.8162 55.4963 25.948 55.6349 26.0496C55.7736 26.1513 55.9401 26.2022 56.1342 26.2022C56.3006 26.2022 56.4393 26.1767 56.5503 26.1259C56.6612 26.0751 56.7514 26.0196 56.8207 25.9595C56.8901 25.8948 56.9363 25.8463 56.9594 25.8139C57.001 25.7538 57.0334 25.7192 57.0565 25.7099C57.0796 25.6961 57.1166 25.6891 57.1674 25.6891H57.5003C57.5465 25.6891 57.5835 25.703 57.6112 25.7307C57.6436 25.7538 57.6575 25.7885 57.6528 25.8347C57.6482 25.904 57.6112 25.9896 57.5419 26.0912C57.4726 26.1883 57.3732 26.2854 57.2437 26.3824C57.1143 26.4795 56.9571 26.5604 56.7722 26.6251C56.5873 26.6851 56.3746 26.7152 56.1342 26.7152ZM55.3021 24.0044C55.2281 24.1662 55.1911 24.3511 55.1911 24.5591V24.5799H57.0912V24.5591C57.0912 24.3511 57.0519 24.1662 56.9733 24.0044C56.8993 23.8427 56.7907 23.7156 56.6474 23.6231C56.5041 23.5261 56.333 23.4776 56.1342 23.4776C55.9354 23.4776 55.7644 23.5261 55.6211 23.6231C55.4824 23.7156 55.3761 23.8427 55.3021 24.0044Z" fill="black"/>
<path d="M59.5638 26.6043C59.5961 26.632 59.6354 26.6459 59.6816 26.6459H60.0006C60.0515 26.6459 60.0908 26.632 60.1185 26.6043C60.1462 26.5719 60.1601 26.5326 60.1601 26.4864V23.5954H61.3667C61.4129 23.5954 61.4499 23.5815 61.4776 23.5538C61.51 23.5215 61.5262 23.4822 61.5262 23.436V23.2002C61.5262 23.154 61.51 23.117 61.4776 23.0893C61.4499 23.057 61.4129 23.0408 61.3667 23.0408H58.3156C58.2693 23.0408 58.23 23.057 58.1977 23.0893C58.1699 23.117 58.1561 23.154 58.1561 23.2002V23.436C58.1561 23.4822 58.1699 23.5215 58.1977 23.5538C58.23 23.5815 58.2693 23.5954 58.3156 23.5954H59.5221V26.4864C59.5221 26.5326 59.536 26.5719 59.5638 26.6043Z" fill="black"/>
<path fill-rule="evenodd" clip-rule="evenodd" d="M64.3743 26.6459C64.3234 26.6459 64.2841 26.632 64.2564 26.6043C64.2286 26.5719 64.2148 26.5326 64.2148 26.4864V25.3564H63.4735L62.6892 26.5419C62.6707 26.565 62.6453 26.5881 62.6129 26.6112C62.5806 26.6343 62.5459 26.6459 62.5089 26.6459H62.1761C62.1345 26.6459 62.0998 26.632 62.072 26.6043C62.0443 26.5765 62.0304 26.5442 62.0304 26.5072C62.0304 26.4887 62.0327 26.4702 62.0374 26.4517C62.0466 26.4286 62.0605 26.4055 62.079 26.3824L62.85 25.2424C62.6876 25.1892 62.5531 25.1094 62.4465 25.0028C62.2385 24.7855 62.1345 24.5105 62.1345 24.1778C62.1345 23.7895 62.2477 23.503 62.4742 23.3181C62.7054 23.1332 63.0521 23.0408 63.5144 23.0408H64.7071C64.7533 23.0408 64.7903 23.057 64.8181 23.0893C64.8504 23.117 64.8666 23.154 64.8666 23.2002V26.4864C64.8666 26.5326 64.8504 26.5719 64.8181 26.6043C64.7903 26.632 64.7533 26.6459 64.7071 26.6459H64.3743ZM62.9042 24.6492C63.0197 24.774 63.1977 24.8364 63.4381 24.8364H64.2217V23.5607H63.4936C63.2347 23.5607 63.0429 23.607 62.918 23.6994C62.7978 23.7872 62.7377 23.9467 62.7377 24.1778C62.7377 24.3673 62.7932 24.5244 62.9042 24.6492Z" fill="black"/>
<path d="M65.5805 26.6181C65.6082 26.6366 65.6429 26.6459 65.6845 26.6459H66.1075C66.1537 26.6459 66.1907 26.6366 66.2184 26.6181C66.2508 26.5996 66.2739 26.5742 66.2878 26.5419L67.314 25.086H67.8411V26.4864C67.8411 26.5326 67.8549 26.5719 67.8827 26.6043C67.915 26.632 67.9543 26.6459 68.0005 26.6459H68.3195C68.3704 26.6459 68.4097 26.632 68.4374 26.6043C68.4652 26.5719 68.479 26.5326 68.479 26.4864V25.086H69.006L70.0184 26.5419C70.0369 26.5742 70.0601 26.5996 70.0878 26.6181C70.1202 26.6366 70.1594 26.6459 70.2057 26.6459H70.6217C70.668 26.6459 70.7026 26.6366 70.7258 26.6181C70.7489 26.5996 70.7604 26.5719 70.7604 26.5349C70.7604 26.5026 70.7512 26.4725 70.7327 26.4448L69.5469 24.7601L70.5871 23.2349C70.5963 23.221 70.6032 23.2072 70.6079 23.1933C70.6171 23.1748 70.6217 23.161 70.6217 23.1517C70.6217 23.1147 70.6079 23.087 70.5801 23.0685C70.557 23.05 70.5247 23.0408 70.483 23.0408H70.1155C70.0739 23.0408 70.0369 23.05 70.0046 23.0685C69.9768 23.087 69.9537 23.1124 69.9352 23.1448L68.9852 24.5313H68.479V23.2002C68.479 23.154 68.4652 23.117 68.4374 23.0893C68.4097 23.057 68.3704 23.0408 68.3195 23.0408H68.0005C67.9543 23.0408 67.915 23.057 67.8827 23.0893C67.8549 23.117 67.8411 23.154 67.8411 23.2002V24.5313H67.314L66.3779 23.1448C66.3548 23.1124 66.3294 23.087 66.3016 23.0685C66.2739 23.05 66.2369 23.0408 66.1907 23.0408H65.8301C65.7885 23.0408 65.7538 23.05 65.7261 23.0685C65.703 23.087 65.6914 23.1147 65.6914 23.1517C65.6914 23.161 65.6937 23.1748 65.6983 23.1933C65.703 23.2072 65.7099 23.221 65.7191 23.2349L66.7662 24.7601L65.5805 26.4448C65.5573 26.4818 65.5458 26.5118 65.5458 26.5349C65.5458 26.5719 65.5573 26.5996 65.5805 26.6181Z" fill="black"/>
<path d="M71.5915 26.6459C71.5453 26.6459 71.506 26.632 71.4736 26.6043C71.4459 26.5719 71.432 26.5326 71.432 26.4864V23.2002C71.432 23.154 71.4459 23.117 71.4736 23.0893C71.506 23.057 71.5453 23.0408 71.5915 23.0408H71.9174C71.9637 23.0408 72.0006 23.057 72.0284 23.0893C72.0607 23.117 72.0769 23.154 72.0769 23.2002V24.5313H72.708L73.6441 23.1448C73.6672 23.1124 73.6926 23.087 73.7204 23.0685C73.7481 23.05 73.7851 23.0408 73.8313 23.0408H74.1919C74.2335 23.0408 74.2682 23.05 74.2959 23.0685C74.3237 23.087 74.3375 23.1147 74.3375 23.1517C74.3375 23.161 74.3329 23.1748 74.3237 23.1933C74.319 23.2072 74.3121 23.221 74.3029 23.2349L73.2627 24.7671L74.4415 26.4448C74.4647 26.4725 74.4762 26.5026 74.4762 26.5349C74.4762 26.5719 74.4623 26.5996 74.4346 26.6181C74.4115 26.6366 74.3791 26.6459 74.3375 26.6459H73.9145C73.8729 26.6459 73.8383 26.6366 73.8105 26.6181C73.7828 26.5996 73.7574 26.5742 73.7342 26.5419L72.7149 25.0929H72.0769V26.4864C72.0769 26.5326 72.0607 26.5719 72.0284 26.6043C72.0006 26.632 71.9637 26.6459 71.9174 26.6459H71.5915Z" fill="black"/>
<path fill-rule="evenodd" clip-rule="evenodd" d="M75.5242 26.5765C75.7138 26.669 75.9241 26.7152 76.1553 26.7152C76.3772 26.7152 76.5644 26.6898 76.7169 26.6389C76.8695 26.5835 76.9966 26.5164 77.0983 26.4379C77.2 26.3547 77.2809 26.2715 77.341 26.1883V26.4864C77.341 26.5326 77.3549 26.5719 77.3826 26.6043C77.4104 26.632 77.4497 26.6459 77.5005 26.6459H77.8195C77.8657 26.6459 77.9027 26.632 77.9305 26.6043C77.9628 26.5719 77.979 26.5326 77.979 26.4864V24.2402C77.979 24.083 77.9536 23.9282 77.9027 23.7757C77.8565 23.6231 77.7779 23.4868 77.6669 23.3666C77.5606 23.2465 77.4127 23.1517 77.2231 23.0824C77.0336 23.0084 76.8001 22.9715 76.5228 22.9715C76.2731 22.9715 76.0605 23.0061 75.8848 23.0754C75.7138 23.1402 75.5728 23.221 75.4618 23.3181C75.3509 23.4152 75.2677 23.5145 75.2122 23.6162C75.1613 23.7179 75.1359 23.8034 75.1359 23.8727C75.1359 23.9143 75.1475 23.9513 75.1706 23.9837C75.1983 24.0114 75.2376 24.0252 75.2885 24.0252H75.6005C75.6698 24.0252 75.7184 23.9906 75.7461 23.9213C75.797 23.7918 75.8848 23.6855 76.0096 23.6023C76.1391 23.5192 76.3078 23.4776 76.5158 23.4776C76.8025 23.4776 77.0082 23.5399 77.133 23.6647C77.2624 23.7895 77.3272 23.9629 77.3272 24.1847V24.3858L76.2939 24.5313C75.8779 24.5914 75.5404 24.7162 75.2815 24.9057C75.0226 25.0952 74.8932 25.3494 74.8932 25.6683C74.8932 25.8671 74.951 26.045 75.0666 26.2022C75.1821 26.3593 75.3347 26.4841 75.5242 26.5765ZM76.821 26.0774C76.6638 26.1559 76.4904 26.1952 76.3009 26.1952C76.1761 26.1952 76.0536 26.1744 75.9334 26.1328C75.8178 26.0912 75.7207 26.0288 75.6421 25.9456C75.5681 25.8578 75.5312 25.7492 75.5312 25.6198C75.5312 25.4534 75.6144 25.3171 75.7808 25.2108C75.9472 25.0998 76.1945 25.0213 76.5228 24.975L77.3272 24.8572V25.0513C77.3272 25.3101 77.2809 25.5251 77.1885 25.6961C77.1006 25.8671 76.9781 25.9942 76.821 26.0774Z" fill="black"/>
<path fill-rule="evenodd" clip-rule="evenodd" d="M114.246 26.7152C113.89 26.7152 113.592 26.6482 113.351 26.5141C113.116 26.3755 112.935 26.1814 112.811 25.9318C112.69 25.6776 112.626 25.3841 112.616 25.0513C112.612 24.9127 112.61 24.774 112.61 24.6353C112.61 24.4967 112.612 24.358 112.616 24.2194C112.616 23.7988 112.651 23.4498 112.72 23.1725C112.79 22.8952 112.894 22.6687 113.032 22.4931C113.176 22.3128 113.356 22.1649 113.573 22.0494C113.791 21.9338 114.047 21.8345 114.343 21.7513C114.639 21.6635 114.976 21.571 115.356 21.474C115.397 21.4647 115.436 21.4717 115.473 21.4948C115.515 21.5179 115.538 21.5502 115.543 21.5918L115.598 21.8761C115.607 21.9177 115.601 21.9546 115.577 21.987C115.559 22.0193 115.529 22.0401 115.487 22.0494C115.141 22.1372 114.838 22.2135 114.579 22.2782C114.32 22.3429 114.103 22.4191 113.927 22.507C113.751 22.5902 113.61 22.6988 113.504 22.8328C113.398 22.9668 113.324 23.1448 113.282 23.3666C113.262 23.4853 113.25 23.6218 113.245 23.7761C113.264 23.7476 113.286 23.7197 113.31 23.6925C113.435 23.5492 113.59 23.4336 113.774 23.3458C113.959 23.258 114.156 23.2141 114.364 23.2141C114.683 23.2141 114.951 23.2811 115.168 23.4152C115.39 23.5492 115.559 23.7318 115.674 23.9629C115.795 24.1939 115.862 24.4597 115.876 24.7601C115.885 24.9173 115.885 25.0536 115.876 25.1692C115.862 25.4696 115.792 25.7377 115.668 25.9734C115.543 26.2045 115.362 26.387 115.127 26.5211C114.891 26.6505 114.597 26.7152 114.246 26.7152ZM114.246 26.2022C114.537 26.2022 114.768 26.112 114.939 25.9318C115.11 25.7515 115.201 25.4881 115.21 25.1414C115.215 25.0952 115.217 25.0421 115.217 24.982C115.217 24.9219 115.215 24.8595 115.21 24.7948C115.201 24.4435 115.11 24.1778 114.939 23.9975C114.773 23.8173 114.563 23.7271 114.308 23.7271C114.017 23.7271 113.777 23.8173 113.587 23.9975C113.398 24.1778 113.296 24.4435 113.282 24.7948C113.278 24.8595 113.275 24.9219 113.275 24.982C113.275 25.0421 113.278 25.0952 113.282 25.1414C113.296 25.4881 113.388 25.7515 113.56 25.9318C113.731 26.112 113.959 26.2022 114.246 26.2022Z" fill="black"/>
<path d="M104.266 26.6459C104.22 26.6459 104.183 26.632 104.155 26.6043C104.127 26.5765 104.113 26.5396 104.113 26.4933V23.1725C104.113 23.1355 104.127 23.1055 104.155 23.0824C104.187 23.0547 104.22 23.0408 104.252 23.0408H104.606C104.68 23.0408 104.738 23.0778 104.779 23.1517L105.958 25.3564L107.144 23.1517C107.185 23.0778 107.243 23.0408 107.317 23.0408H107.664C107.701 23.0408 107.733 23.0547 107.761 23.0824C107.789 23.1055 107.803 23.1355 107.803 23.1725V26.4933C107.803 26.5396 107.789 26.5765 107.761 26.6043C107.733 26.632 107.699 26.6459 107.657 26.6459H107.317C107.271 26.6459 107.234 26.632 107.206 26.6043C107.178 26.5765 107.165 26.5396 107.165 26.4933V24.2134L106.277 25.8902C106.254 25.9364 106.226 25.978 106.194 26.015C106.161 26.0519 106.113 26.0704 106.048 26.0704H105.868C105.808 26.0704 105.762 26.0519 105.729 26.015C105.697 25.978 105.667 25.9364 105.639 25.8902L104.758 24.2574V26.4933C104.758 26.5396 104.744 26.5765 104.717 26.6043C104.689 26.632 104.652 26.6459 104.606 26.6459H104.266Z" fill="black"/>
<path fill-rule="evenodd" clip-rule="evenodd" d="M109.138 26.2784C109.42 26.5696 109.799 26.7152 110.276 26.7152C110.516 26.7152 110.729 26.6851 110.914 26.6251C111.098 26.5604 111.256 26.4795 111.385 26.3824C111.515 26.2854 111.614 26.1883 111.683 26.0912C111.753 25.9896 111.79 25.904 111.794 25.8347C111.799 25.7885 111.785 25.7538 111.753 25.7307C111.725 25.703 111.688 25.6891 111.642 25.6891H111.309C111.258 25.6891 111.221 25.6961 111.198 25.7099C111.175 25.7192 111.142 25.7538 111.101 25.8139C111.078 25.8463 111.031 25.8948 110.962 25.9595C110.893 26.0196 110.803 26.0751 110.692 26.1259C110.581 26.1767 110.442 26.2022 110.276 26.2022C110.081 26.2022 109.915 26.1513 109.776 26.0496C109.638 25.948 109.531 25.8162 109.457 25.6545C109.383 25.4881 109.342 25.3101 109.333 25.1206V25.0582H111.732C111.778 25.0582 111.815 25.0444 111.843 25.0166C111.875 24.9889 111.891 24.9496 111.891 24.8988V24.7809C111.891 24.4158 111.829 24.0969 111.704 23.8242C111.579 23.5515 111.397 23.3412 111.156 23.1933C110.921 23.0454 110.627 22.9715 110.276 22.9715C109.961 22.9715 109.686 23.0385 109.45 23.1725C109.219 23.3065 109.037 23.4984 108.903 23.7479C108.769 23.9929 108.692 24.2795 108.674 24.6076C108.669 24.6677 108.667 24.7463 108.667 24.8433C108.667 24.9358 108.669 25.012 108.674 25.0721C108.702 25.5805 108.856 25.9826 109.138 26.2784ZM111.115 24.0044C111.193 24.1662 111.233 24.3511 111.233 24.5591V24.5799H109.333V24.5591C109.333 24.3511 109.37 24.1662 109.443 24.0044C109.517 23.8427 109.624 23.7156 109.762 23.6231C109.906 23.5261 110.077 23.4776 110.276 23.4776C110.474 23.4776 110.645 23.5261 110.789 23.6231C110.932 23.7156 111.041 23.8427 111.115 24.0044Z" fill="black"/>
<path fill-rule="evenodd" clip-rule="evenodd" d="M117.048 26.2784C117.33 26.5696 117.709 26.7152 118.185 26.7152C118.425 26.7152 118.638 26.6851 118.823 26.6251C119.008 26.5604 119.165 26.4795 119.295 26.3824C119.424 26.2854 119.523 26.1883 119.593 26.0912C119.662 25.9896 119.699 25.904 119.704 25.8347C119.708 25.7885 119.694 25.7538 119.662 25.7307C119.634 25.703 119.597 25.6891 119.551 25.6891H119.218C119.167 25.6891 119.13 25.6961 119.107 25.7099C119.084 25.7192 119.052 25.7538 119.01 25.8139C118.987 25.8463 118.941 25.8948 118.872 25.9595C118.802 26.0196 118.712 26.0751 118.601 26.1259C118.49 26.1767 118.352 26.2022 118.185 26.2022C117.991 26.2022 117.825 26.1513 117.686 26.0496C117.547 25.948 117.441 25.8162 117.367 25.6545C117.293 25.4881 117.251 25.3101 117.242 25.1206V25.0582H119.641C119.688 25.0582 119.725 25.0444 119.752 25.0166C119.785 24.9889 119.801 24.9496 119.801 24.8988V24.7809C119.801 24.4158 119.738 24.0969 119.614 23.8242C119.489 23.5515 119.306 23.3412 119.066 23.1933C118.83 23.0454 118.536 22.9715 118.185 22.9715C117.871 22.9715 117.596 23.0385 117.36 23.1725C117.129 23.3065 116.946 23.4984 116.812 23.7479C116.678 23.9929 116.602 24.2795 116.583 24.6076C116.579 24.6677 116.576 24.7463 116.576 24.8433C116.576 24.9358 116.579 25.012 116.583 25.0721C116.611 25.5805 116.766 25.9826 117.048 26.2784ZM119.024 24.0044C119.103 24.1662 119.142 24.3511 119.142 24.5591V24.5799H117.242V24.5591C117.242 24.3511 117.279 24.1662 117.353 24.0044C117.427 23.8427 117.533 23.7156 117.672 23.6231C117.815 23.5261 117.986 23.4776 118.185 23.4776C118.384 23.4776 118.555 23.5261 118.698 23.6231C118.842 23.7156 118.95 23.8427 119.024 24.0044Z" fill="black"/>
<path d="M120.43 26.6459C120.383 26.6459 120.344 26.6297 120.312 26.5973C120.279 26.565 120.263 26.5257 120.263 26.4795V26.223C120.263 26.1259 120.312 26.0751 120.409 26.0704C120.552 26.0658 120.672 25.9988 120.769 25.8694C120.866 25.7353 120.94 25.5251 120.991 25.2385C121.042 24.9473 121.067 24.5637 121.067 24.0876V23.2002C121.067 23.154 121.081 23.117 121.109 23.0893C121.141 23.057 121.181 23.0408 121.227 23.0408H123.432C123.478 23.0408 123.515 23.057 123.543 23.0893C123.575 23.117 123.592 23.154 123.592 23.2002V26.4864C123.592 26.5326 123.575 26.5719 123.543 26.6043C123.515 26.632 123.478 26.6459 123.432 26.6459H123.099C123.053 26.6459 123.016 26.632 122.988 26.6043C122.961 26.5719 122.947 26.5326 122.947 26.4864V23.5954H121.699V24.1639C121.699 24.6076 121.673 24.9889 121.622 25.3078C121.571 25.6221 121.493 25.8786 121.386 26.0774C121.285 26.2715 121.153 26.4148 120.991 26.5072C120.834 26.5996 120.647 26.6459 120.43 26.6459Z" fill="black"/>
<path d="M124.667 26.6043C124.699 26.632 124.736 26.6459 124.778 26.6459H125.09C125.136 26.6459 125.173 26.6343 125.201 26.6112C125.229 26.5881 125.252 26.565 125.27 26.5419L127.191 23.9729V26.4864C127.191 26.5326 127.205 26.5719 127.233 26.6043C127.26 26.632 127.3 26.6459 127.351 26.6459H127.676C127.723 26.6459 127.76 26.632 127.787 26.6043C127.82 26.5719 127.836 26.5326 127.836 26.4864V23.1794C127.836 23.1425 127.82 23.1101 127.787 23.0824C127.76 23.0547 127.727 23.0408 127.69 23.0408H127.371C127.33 23.0408 127.295 23.0523 127.267 23.0754C127.24 23.0939 127.214 23.117 127.191 23.1448L125.27 25.7116V23.2002C125.27 23.154 125.256 23.117 125.229 23.0893C125.201 23.057 125.164 23.0408 125.118 23.0408H124.785C124.739 23.0408 124.699 23.057 124.667 23.0893C124.639 23.117 124.625 23.154 124.625 23.2002V26.5003C124.625 26.5372 124.639 26.5719 124.667 26.6043Z" fill="black"/>
<path d="M98.9868 26.6043C99.0192 26.632 99.0561 26.6459 99.0977 26.6459H99.4098C99.456 26.6459 99.493 26.6343 99.5207 26.6112C99.5485 26.5881 99.5716 26.565 99.5901 26.5419L101.511 23.973V26.4864C101.511 26.5326 101.525 26.5719 101.553 26.6043C101.58 26.632 101.62 26.6459 101.67 26.6459H101.996C102.043 26.6459 102.08 26.632 102.107 26.6043C102.14 26.5719 102.156 26.5326 102.156 26.4864V23.1795C102.156 23.1425 102.14 23.1101 102.107 23.0824C102.08 23.0547 102.047 23.0408 102.01 23.0408H101.691C101.65 23.0408 101.615 23.0524 101.587 23.0755C101.559 23.0939 101.534 23.1171 101.511 23.1448L99.5901 25.7117V23.2003C99.5901 23.154 99.5762 23.1171 99.5485 23.0893C99.5207 23.057 99.4838 23.0408 99.4375 23.0408H99.1047C99.0585 23.0408 99.0192 23.057 98.9868 23.0893C98.9591 23.1171 98.9452 23.154 98.9452 23.2003V26.5003C98.9452 26.5373 98.9591 26.5719 98.9868 26.6043Z" fill="black"/>
<path d="M99.9368 22.4376C100.089 22.5208 100.3 22.5624 100.568 22.5624C100.836 22.5624 101.046 22.5208 101.199 22.4376C101.351 22.3544 101.458 22.2481 101.518 22.1187C101.583 21.9847 101.615 21.846 101.615 21.7028C101.615 21.6658 101.603 21.6357 101.58 21.6126C101.557 21.5849 101.525 21.571 101.483 21.571H101.24C101.199 21.571 101.167 21.5849 101.143 21.6126C101.12 21.6357 101.109 21.6658 101.109 21.7028C101.109 21.8091 101.074 21.9084 101.005 22.0009C100.935 22.0887 100.79 22.1326 100.568 22.1326C100.351 22.1326 100.205 22.0887 100.131 22.0009C100.062 21.9084 100.027 21.8091 100.027 21.7028C100.027 21.6658 100.015 21.6357 99.9923 21.6126C99.9692 21.5849 99.9368 21.571 99.8952 21.571H99.6594C99.6132 21.571 99.5785 21.5849 99.5554 21.6126C99.5369 21.6357 99.5277 21.6658 99.5277 21.7028C99.5277 21.846 99.5577 21.9847 99.6178 22.1187C99.6779 22.2481 99.7842 22.3544 99.9368 22.4376Z" fill="black"/>
<path d="M80.0892 26.6459C80.043 26.6459 80.006 26.632 79.9782 26.6043C79.9505 26.5765 79.9366 26.5396 79.9366 26.4933V23.1725C79.9366 23.1355 79.9505 23.1055 79.9782 23.0824C80.0106 23.0547 80.043 23.0408 80.0753 23.0408H80.429C80.5029 23.0408 80.5607 23.0778 80.6023 23.1517L81.7812 25.3564L82.9669 23.1517C83.0086 23.0778 83.0663 23.0408 83.1403 23.0408H83.487C83.524 23.0408 83.5564 23.0547 83.5841 23.0824C83.6118 23.1055 83.6257 23.1355 83.6257 23.1725V26.4933C83.6257 26.5396 83.6118 26.5765 83.5841 26.6043C83.5564 26.632 83.5217 26.6459 83.4801 26.6459H83.1403C83.0941 26.6459 83.0571 26.632 83.0294 26.6043C83.0016 26.5765 82.9878 26.5396 82.9878 26.4933V24.2134L82.1002 25.8902C82.077 25.9364 82.0493 25.978 82.0169 26.015C81.9846 26.052 81.936 26.0704 81.8713 26.0704H81.691C81.6309 26.0704 81.5847 26.052 81.5523 26.015C81.52 25.978 81.4899 25.9364 81.4622 25.8902L80.5815 24.2574V26.4933C80.5815 26.5396 80.5677 26.5765 80.5399 26.6043C80.5122 26.632 80.4752 26.6459 80.429 26.6459H80.0892Z" fill="black"/>
<path fill-rule="evenodd" clip-rule="evenodd" d="M86.7922 26.6043C86.82 26.632 86.8593 26.6459 86.9101 26.6459H87.243C87.2892 26.6459 87.3262 26.632 87.3539 26.6043C87.3863 26.5719 87.4025 26.5326 87.4025 26.4864V23.2003C87.4025 23.154 87.3863 23.1171 87.3539 23.0893C87.3262 23.057 87.2892 23.0408 87.243 23.0408H86.0503C85.588 23.0408 85.2412 23.1332 85.0101 23.3181C84.7836 23.503 84.6703 23.7895 84.6703 24.1778C84.6703 24.5106 84.7743 24.7856 84.9824 25.0028C85.089 25.1094 85.2235 25.1892 85.3858 25.2424L84.6148 26.3824C84.5963 26.4055 84.5825 26.4286 84.5732 26.4518C84.5686 26.4702 84.5663 26.4887 84.5663 26.5072C84.5663 26.5442 84.5802 26.5765 84.6079 26.6043C84.6356 26.632 84.6703 26.6459 84.7119 26.6459H85.0448C85.0818 26.6459 85.1164 26.6343 85.1488 26.6112C85.1811 26.5881 85.2066 26.565 85.2251 26.5419L86.0094 25.3564H86.7506V26.4864C86.7506 26.5326 86.7645 26.5719 86.7922 26.6043ZM85.4539 23.6994C85.5787 23.607 85.7706 23.5608 86.0294 23.5608H86.7576V24.8364H85.974C85.7336 24.8364 85.5556 24.774 85.44 24.6492C85.3291 24.5244 85.2736 24.3673 85.2736 24.1778C85.2736 23.9467 85.3337 23.7872 85.4539 23.6994Z" fill="black"/>
<path d="M88.5948 26.6459C88.5486 26.6459 88.5093 26.632 88.4769 26.6043C88.4492 26.5719 88.4353 26.5326 88.4353 26.4864V23.2003C88.4353 23.154 88.4492 23.1171 88.4769 23.0893C88.5093 23.057 88.5486 23.0408 88.5948 23.0408H90.6682C90.7144 23.0408 90.7514 23.057 90.7791 23.0893C90.8068 23.1171 90.8207 23.154 90.8207 23.2003V23.436C90.8207 23.4822 90.8068 23.5215 90.7791 23.5538C90.7514 23.5816 90.7144 23.5954 90.6682 23.5954H89.0802V26.4864C89.0802 26.5326 89.0663 26.5719 89.0386 26.6043C89.0108 26.632 88.9739 26.6459 88.9276 26.6459H88.5948Z" fill="black"/>
<path d="M91.4565 26.6043C91.4889 26.632 91.5282 26.6459 91.5744 26.6459H91.9003C91.9465 26.6459 91.9835 26.632 92.0113 26.6043C92.0436 26.5719 92.0598 26.5326 92.0598 26.4864V25.0929H92.6978L93.7171 26.5419C93.7402 26.5742 93.7657 26.5997 93.7934 26.6181C93.8211 26.6366 93.8558 26.6459 93.8974 26.6459H94.3204C94.362 26.6459 94.3944 26.6366 94.4175 26.6181C94.4452 26.5997 94.4591 26.5719 94.4591 26.5349C94.4591 26.5026 94.4475 26.4726 94.4244 26.4448L93.2456 24.7671L94.2857 23.2349C94.295 23.221 94.3019 23.2072 94.3065 23.1933C94.3158 23.1748 94.3204 23.161 94.3204 23.1517C94.3204 23.1147 94.3065 23.087 94.2788 23.0685C94.2511 23.05 94.2164 23.0408 94.1748 23.0408H93.8142C93.768 23.0408 93.731 23.05 93.7032 23.0685C93.6755 23.087 93.6501 23.1124 93.627 23.1448L92.6908 24.5314H92.0598V23.2003C92.0598 23.154 92.0436 23.1171 92.0113 23.0893C91.9835 23.057 91.9465 23.0408 91.9003 23.0408H91.5744C91.5282 23.0408 91.4889 23.057 91.4565 23.0893C91.4288 23.1171 91.4149 23.154 91.4149 23.2003V26.4864C91.4149 26.5326 91.4288 26.5719 91.4565 26.6043Z" fill="black"/>
<path fill-rule="evenodd" clip-rule="evenodd" d="M96.4404 26.7152C96.089 26.7152 95.7955 26.6482 95.5597 26.5141C95.3239 26.3801 95.1436 26.1952 95.0188 25.9595C94.894 25.7192 94.8247 25.4465 94.8108 25.1414C94.8062 25.0629 94.8039 24.9635 94.8039 24.8433C94.8039 24.7185 94.8062 24.6192 94.8108 24.5452C94.8247 24.2356 94.894 23.9629 95.0188 23.7271C95.1483 23.4914 95.3309 23.3066 95.5666 23.1725C95.8024 23.0385 96.0937 22.9715 96.4404 22.9715C96.7871 22.9715 97.0783 23.0385 97.3141 23.1725C97.5499 23.3066 97.7302 23.4914 97.855 23.7271C97.9844 23.9629 98.0561 24.2356 98.0699 24.5452C98.0746 24.6192 98.0769 24.7185 98.0769 24.8433C98.0769 24.9635 98.0746 25.0629 98.0699 25.1414C98.0561 25.4465 97.9867 25.7192 97.8619 25.9595C97.7371 26.1952 97.5568 26.3801 97.321 26.5141C97.0853 26.6482 96.7917 26.7152 96.4404 26.7152ZM96.4404 26.1814C96.727 26.1814 96.9558 26.0912 97.1269 25.911C97.2979 25.7261 97.3904 25.458 97.4042 25.1068C97.4089 25.0375 97.4112 24.9496 97.4112 24.8433C97.4112 24.737 97.4089 24.6492 97.4042 24.5799C97.3904 24.2286 97.2979 23.9629 97.1269 23.7826C96.9558 23.5977 96.727 23.5053 96.4404 23.5053C96.1537 23.5053 95.9226 23.5977 95.7469 23.7826C95.5759 23.9629 95.4857 24.2286 95.4765 24.5799C95.4719 24.6492 95.4696 24.737 95.4696 24.8433C95.4696 24.9496 95.4719 25.0375 95.4765 25.1068C95.4857 25.458 95.5759 25.7261 95.7469 25.911C95.9226 26.0912 96.1537 26.1814 96.4404 26.1814Z" fill="black"/>
<defs>
<clipPath id="clip0_2017_1462">
<rect width="35.2311" height="32.9465" fill="white" transform="translate(0.138672 1.14896)"/>
</clipPath>
</defs>
</svg>
