<svg width="81" height="21" viewBox="0 0 81 21" fill="none" xmlns="http://www.w3.org/2000/svg">
<path fill-rule="evenodd" clip-rule="evenodd" d="M21.5 10.5002C21.5 16.2985 16.7985 21 10.9998 21C5.2015 21 0.5 16.2985 0.5 10.5002C0.5 4.7015 5.2015 0 10.9998 0C16.7985 0 21.5 4.7015 21.5 10.5002Z" fill="#FB3F1C"/>
<path fill-rule="evenodd" clip-rule="evenodd" d="M12.6312 16.9405H14.9285V3.82224H11.5993C8.24998 3.82224 6.4923 5.53727 6.4923 8.07022C6.49078 10.0674 7.46938 11.2935 9.17604 12.5036L6.18311 16.9405H8.66503L11.9957 11.9698L10.8359 11.1995C9.43725 10.2567 8.75223 9.52404 8.75223 7.93504C8.75223 6.53796 9.73616 5.59553 11.6077 5.59553H12.6312V16.9405Z" fill="white"/>
<path d="M33.8494 18.1989C32.9025 18.1989 32.0549 18.0213 31.3068 17.6662C30.5587 17.3063 29.9645 16.8139 29.5241 16.1889C29.0885 15.5639 28.8565 14.849 28.8281 14.044H31.3849C31.4323 14.6406 31.6903 15.1283 32.1591 15.5071C32.6278 15.8812 33.1913 16.0682 33.8494 16.0682C34.3655 16.0682 34.8248 15.9498 35.2273 15.7131C35.6297 15.4763 35.947 15.1473 36.179 14.7259C36.411 14.3045 36.5246 13.8239 36.5199 13.2841C36.5246 12.7348 36.4086 12.2472 36.1719 11.821C35.9351 11.3949 35.6108 11.0611 35.1989 10.8196C34.7869 10.5734 34.3134 10.4503 33.7784 10.4503C33.3428 10.4455 32.9143 10.526 32.4929 10.6918C32.0715 10.8575 31.7377 11.0753 31.4915 11.3452L29.1122 10.9545L29.8722 3.45455H38.3097V5.65625H32.0526L31.6335 9.51278H31.7188C31.9886 9.19555 32.3698 8.93276 32.8622 8.72443C33.3546 8.51136 33.8944 8.40483 34.4815 8.40483C35.3622 8.40483 36.1482 8.61316 36.8395 9.02983C37.5308 9.44176 38.0753 10.0099 38.473 10.7344C38.8707 11.4588 39.0696 12.2874 39.0696 13.2202C39.0696 14.1813 38.8471 15.0384 38.402 15.7912C37.9616 16.5393 37.3485 17.1288 36.5625 17.5597C35.7812 17.9858 34.8769 18.1989 33.8494 18.1989ZM41.7728 18.1562C41.3419 18.1562 40.9726 18.0047 40.6648 17.7017C40.3571 17.3987 40.2056 17.0294 40.2103 16.5938C40.2056 16.1676 40.3571 15.803 40.6648 15.5C40.9726 15.197 41.3419 15.0455 41.7728 15.0455C42.1895 15.0455 42.5517 15.197 42.8594 15.5C43.1719 15.803 43.3306 16.1676 43.3353 16.5938C43.3306 16.8826 43.2548 17.1454 43.108 17.3821C42.966 17.6188 42.7766 17.8082 42.5398 17.9503C42.3078 18.0876 42.0522 18.1562 41.7728 18.1562ZM49.9714 18.277C48.8019 18.277 47.7981 17.9811 46.96 17.3892C46.1267 16.7926 45.4851 15.9332 45.0353 14.8111C44.5902 13.6842 44.3677 12.3277 44.3677 10.7415C44.3724 9.1553 44.5973 7.80587 45.0424 6.69318C45.4922 5.57576 46.1338 4.72348 46.9671 4.13636C47.8052 3.54924 48.8066 3.25568 49.9714 3.25568C51.1362 3.25568 52.1376 3.54924 52.9756 4.13636C53.8137 4.72348 54.4553 5.57576 54.9004 6.69318C55.3502 7.81061 55.5751 9.16004 55.5751 10.7415C55.5751 12.3324 55.3502 13.6913 54.9004 14.8182C54.4553 15.9403 53.8137 16.7973 52.9756 17.3892C52.1423 17.9811 51.1409 18.277 49.9714 18.277ZM49.9714 16.054C50.8805 16.054 51.5978 15.6065 52.1234 14.7116C52.6537 13.812 52.9188 12.4886 52.9188 10.7415C52.9188 9.58617 52.7981 8.61553 52.5566 7.82955C52.3151 7.04356 51.9742 6.4517 51.5339 6.05398C51.0935 5.65152 50.5727 5.45028 49.9714 5.45028C49.067 5.45028 48.3521 5.90009 47.8265 6.79972C47.3009 7.6946 47.0358 9.00852 47.031 10.7415C47.0263 11.9015 47.1423 12.8769 47.379 13.6676C47.6205 14.4583 47.9614 15.0549 48.4018 15.4574C48.8421 15.8551 49.3653 16.054 49.9714 16.054Z" fill="black" fill-opacity="0.85"/>
<path d="M70 0L72.3574 7.25532H79.9861L73.8143 11.7394L76.1717 18.9947L70 14.5106L63.8283 18.9947L66.1857 11.7394L60.0139 7.25532H67.6426L70 0Z" fill="#FFCC02"/>
</svg>
