<svg width="56" height="56" viewBox="0 0 56 56" fill="none" xmlns="http://www.w3.org/2000/svg">
<g clip-path="url(#clip0_283_649)">
<path d="M56 28C56 12.536 43.464 0 28 0C12.536 0 0 12.536 0 28C0 43.464 12.536 56 28 56C43.464 56 56 43.464 56 28Z" fill="#FFEAFB"/>
<path fill-rule="evenodd" clip-rule="evenodd" d="M37.6984 26.4C41.5092 26.4 44.5984 23.3108 44.5984 19.5C44.5984 15.6892 41.5092 12.6 37.6984 12.6C33.8877 12.6 30.7984 15.6892 30.7984 19.5C30.7984 23.3108 33.8877 26.4 37.6984 26.4ZM43.7992 23.8634C44.68 22.6341 45.1984 21.1276 45.1984 19.5C45.1984 15.3579 41.8406 12 37.6984 12C33.5563 12 30.1984 15.3579 30.1984 19.5C30.1984 19.5669 30.1993 19.6335 30.2011 19.7H13.9992C12.4528 19.7 11.1992 20.9536 11.1992 22.5V36.5C11.1992 38.0464 12.4528 39.3 13.9992 39.3H40.9992C42.5456 39.3 43.7992 38.0464 43.7992 36.5V24V23.8634ZM43.1992 24.5982V36.5C43.1992 37.715 42.2142 38.7 40.9992 38.7H13.9992C12.7842 38.7 11.7992 37.715 11.7992 36.5V22.5C11.7992 21.285 12.7842 20.3 13.9992 20.3H30.2406C30.6399 24.066 33.8265 27 37.6984 27C39.8719 27 41.8294 26.0755 43.1992 24.5982ZM41.4019 16.7796C41.5237 16.8919 41.5313 17.0817 41.4189 17.2035L37.1616 21.8155C36.9541 22.0403 36.5986 22.0388 36.393 21.8124L34.4763 19.7017C34.365 19.579 34.3741 19.3893 34.4968 19.2779C34.6194 19.1665 34.8092 19.1757 34.9205 19.2983L36.7792 21.3452L40.978 16.7965C41.0904 16.6748 41.2802 16.6672 41.4019 16.7796ZM22.4992 24.6H16.4992C16.2783 24.6 16.0992 24.7791 16.0992 25V27C16.0992 27.2209 16.2783 27.4 16.4992 27.4H22.4992C22.7201 27.4 22.8992 27.2209 22.8992 27V25C22.8992 24.7791 22.7201 24.6 22.4992 24.6ZM16.4992 24C15.9469 24 15.4992 24.4477 15.4992 25V27C15.4992 27.5523 15.9469 28 16.4992 28H22.4992C23.0515 28 23.4992 27.5523 23.4992 27V25C23.4992 24.4477 23.0515 24 22.4992 24H16.4992ZM17.4992 33.2C17.3335 33.2 17.1992 33.3343 17.1992 33.5C17.1992 33.6657 17.3335 33.8 17.4992 33.8H18.5242C18.6899 33.8 18.8242 33.6657 18.8242 33.5C18.8242 33.3343 18.6899 33.2 18.5242 33.2H17.4992ZM20.5742 33.2C20.4085 33.2 20.2742 33.3343 20.2742 33.5C20.2742 33.6657 20.4085 33.8 20.5742 33.8H22.6242C22.7899 33.8 22.9242 33.6657 22.9242 33.5C22.9242 33.3343 22.7899 33.2 22.6242 33.2H20.5742ZM24.6742 33.2C24.5085 33.2 24.3742 33.3343 24.3742 33.5C24.3742 33.6657 24.5085 33.8 24.6742 33.8H26.7242C26.8899 33.8 27.0242 33.6657 27.0242 33.5C27.0242 33.3343 26.8899 33.2 26.7242 33.2H24.6742ZM28.7742 33.2C28.6085 33.2 28.4742 33.3343 28.4742 33.5C28.4742 33.6657 28.6085 33.8 28.7742 33.8H30.8242C30.9899 33.8 31.1242 33.6657 31.1242 33.5C31.1242 33.3343 30.9899 33.2 30.8242 33.2H28.7742ZM32.8742 33.2C32.7085 33.2 32.5742 33.3343 32.5742 33.5C32.5742 33.6657 32.7085 33.8 32.8742 33.8H34.9242C35.0899 33.8 35.2242 33.6657 35.2242 33.5C35.2242 33.3343 35.0899 33.2 34.9242 33.2H32.8742ZM36.9742 33.2C36.8085 33.2 36.6742 33.3343 36.6742 33.5C36.6742 33.6657 36.8085 33.8 36.9742 33.8H37.9992C38.1649 33.8 38.2992 33.6657 38.2992 33.5C38.2992 33.3343 38.1649 33.2 37.9992 33.2H36.9742Z" fill="#423C39"/>
</g>
<defs>
<clipPath id="clip0_283_649">
<rect width="56" height="56" fill="white"/>
</clipPath>
</defs>
</svg>
