<svg width="26" height="26" viewBox="0 0 26 26" fill="none" xmlns="http://www.w3.org/2000/svg">
<path d="M13.1923 2.77567C16.0225 2.77567 16.3756 2.78608 17.4861 2.83817C18.5954 2.89025 19.3506 3.06421 20.0152 3.32254C20.7027 3.58712 21.2819 3.94546 21.8611 4.52358C22.3913 5.04442 22.8006 5.67462 23.0621 6.36942C23.3194 7.03296 23.4944 7.78921 23.5465 8.89858C23.5954 10.009 23.609 10.3621 23.609 13.1923C23.609 16.0225 23.5986 16.3757 23.5465 17.4861C23.4944 18.5955 23.3194 19.3507 23.0621 20.0152C22.8013 20.7108 22.3914 21.3409 21.8611 21.8611C21.3402 22.3903 20.71 22.8007 20.0152 23.0621C19.3517 23.3194 18.5954 23.4944 17.4861 23.5465C16.3756 23.5955 16.0225 23.609 13.1923 23.609C10.3621 23.609 10.009 23.5986 8.89855 23.5465C7.78918 23.4944 7.03397 23.3194 6.36938 23.0621C5.67389 22.8012 5.04389 22.3912 4.52355 21.8611C3.99377 21.3404 3.5839 20.7105 3.32251 20.0152C3.06418 19.3517 2.89022 18.5955 2.83813 17.4861C2.78918 16.3757 2.77563 16.0225 2.77563 13.1923C2.77563 10.3621 2.78605 10.009 2.83813 8.89858C2.89022 7.78817 3.06418 7.034 3.32251 6.36942C3.58317 5.67377 3.99314 5.04371 4.52355 4.52358C5.04404 3.99361 5.674 3.58372 6.36938 3.32254C7.03397 3.06421 7.78814 2.89025 8.89855 2.83817C10.009 2.78921 10.3621 2.77567 13.1923 2.77567ZM13.1923 7.984C11.811 7.984 10.4862 8.53273 9.50945 9.50948C8.5327 10.4862 7.98397 11.811 7.98397 13.1923C7.98397 14.5737 8.5327 15.8984 9.50945 16.8752C10.4862 17.8519 11.811 18.4007 13.1923 18.4007C14.5736 18.4007 15.8984 17.8519 16.8752 16.8752C17.8519 15.8984 18.4006 14.5737 18.4006 13.1923C18.4006 11.811 17.8519 10.4862 16.8752 9.50948C15.8984 8.53273 14.5736 7.984 13.1923 7.984ZM19.9631 7.72358C19.9631 7.37825 19.826 7.04706 19.5818 6.80287C19.3376 6.55868 19.0064 6.4215 18.6611 6.4215C18.3157 6.4215 17.9845 6.55868 17.7403 6.80287C17.4962 7.04706 17.359 7.37825 17.359 7.72358C17.359 8.06892 17.4962 8.40011 17.7403 8.64429C17.9845 8.88848 18.3157 9.02567 18.6611 9.02567C19.0064 9.02567 19.3376 8.88848 19.5818 8.64429C19.826 8.40011 19.9631 8.06892 19.9631 7.72358ZM13.1923 10.0673C14.0211 10.0673 14.816 10.3966 15.402 10.9826C15.9881 11.5687 16.3173 12.3635 16.3173 13.1923C16.3173 14.0211 15.9881 14.816 15.402 15.402C14.816 15.9881 14.0211 16.3173 13.1923 16.3173C12.3635 16.3173 11.5686 15.9881 10.9826 15.402C10.3965 14.816 10.0673 14.0211 10.0673 13.1923C10.0673 12.3635 10.3965 11.5687 10.9826 10.9826C11.5686 10.3966 12.3635 10.0673 13.1923 10.0673Z" fill="black" fill-opacity="0.65"/>
</svg>
