<svg width="20" height="20" viewBox="0 0 20 20" fill="none" xmlns="http://www.w3.org/2000/svg">
<path d="M17.5 5.83366V14.167C17.5 16.667 16.25 18.3337 13.3333 18.3337H6.66667C3.75 18.3337 2.5 16.667 2.5 14.167V5.83366C2.5 3.33366 3.75 1.66699 6.66667 1.66699H13.3333C16.25 1.66699 17.5 3.33366 17.5 5.83366Z" stroke="#A25AE6" stroke-width="1.3" stroke-miterlimit="10" stroke-linecap="round" stroke-linejoin="round"/>
<path d="M12.0834 3.75V5.41667C12.0834 6.33333 12.8334 7.08333 13.75 7.08333H15.4167" stroke="#A25AE6" stroke-width="1.3" stroke-miterlimit="10" stroke-linecap="round" stroke-linejoin="round"/>
<path d="M6.23337 12.9079C5.95837 12.0496 6.28335 10.9913 7.17501 10.6996C7.65001 10.5496 8.23335 10.6746 8.55835 11.1329C8.86668 10.6579 9.47502 10.5496 9.94168 10.6996C10.8417 10.9913 11.1584 12.0496 10.8917 12.9079C10.4667 14.2662 8.97502 14.9746 8.55835 14.9746C8.15002 14.9662 6.67503 14.2746 6.23337 12.9079Z" stroke="#A25AE6" stroke-width="1.3" stroke-linecap="round" stroke-linejoin="round"/>
</svg>
