<svg width="17" height="16" viewBox="0 0 17 16" fill="none" xmlns="http://www.w3.org/2000/svg">
<path fill-rule="evenodd" clip-rule="evenodd" d="M8.68299 2.20127C8.74515 2.22566 8.8034 2.26296 8.85363 2.31319L12.187 5.64653C12.3822 5.84179 12.3822 6.15837 12.187 6.35363C11.9917 6.5489 11.6751 6.5489 11.4799 6.35363L9.00006 3.87383V10.6667C9.00006 10.9429 8.7762 11.1667 8.50006 11.1667C8.22392 11.1667 8.00006 10.9429 8.00006 10.6667V3.87387L5.5203 6.35363C5.32504 6.5489 5.00846 6.5489 4.81319 6.35363C4.61793 6.15837 4.61793 5.84179 4.81319 5.64653L8.14383 2.31589C8.15269 2.3069 8.16189 2.29824 8.1714 2.28994C8.21035 2.25589 8.25333 2.2289 8.29866 2.20897C8.36028 2.18182 8.42841 2.16675 8.50006 2.16675M8.50308 2.16676C8.56655 2.16713 8.62722 2.17933 8.68299 2.20127L8.50308 2.16676ZM3.16675 10.8333C3.44289 10.8333 3.66675 11.0571 3.66675 11.3333V12.6666C3.66675 12.8876 3.75455 13.0996 3.91083 13.2558C4.06711 13.4121 4.27907 13.4999 4.50008 13.4999H12.5001C12.7211 13.4999 12.9331 13.4121 13.0893 13.2558C13.2456 13.0996 13.3334 12.8876 13.3334 12.6666V11.3333C13.3334 11.0571 13.5573 10.8333 13.8334 10.8333C14.1096 10.8333 14.3334 11.0571 14.3334 11.3333V12.6666C14.3334 13.1528 14.1403 13.6191 13.7964 13.9629C13.4526 14.3068 12.9863 14.4999 12.5001 14.4999H4.50008C4.01385 14.4999 3.54754 14.3068 3.20372 13.9629C2.8599 13.6191 2.66675 13.1528 2.66675 12.6666V11.3333C2.66675 11.0571 2.89061 10.8333 3.16675 10.8333Z" fill="black" fill-opacity="0.35"/>
</svg>
