<svg width="26" height="26" viewBox="0 0 26 26" fill="none" xmlns="http://www.w3.org/2000/svg">
<path d="M2.90262 23.4864L4.3938 18.007C3.41123 16.3227 2.89501 14.407 2.89821 12.457C2.89821 6.36548 7.83608 1.42761 13.9276 1.42761C20.0192 1.42761 24.957 6.36548 24.957 12.457C24.957 18.5486 20.0192 23.4864 13.9276 23.4864C11.9785 23.4896 10.0636 22.9738 8.37983 21.992L2.90262 23.4864ZM9.94711 7.28202C9.80467 7.29087 9.6655 7.32838 9.53792 7.39232C9.41827 7.46007 9.30905 7.54477 9.21365 7.64379C9.0813 7.76842 9.0063 7.87651 8.92578 7.98129C8.51815 8.5118 8.29888 9.163 8.30262 9.83202C8.30483 10.3725 8.446 10.8986 8.66659 11.3905C9.11769 12.3853 9.85997 13.4386 10.8405 14.4147C11.0765 14.6497 11.307 14.8857 11.5552 15.1052C12.7722 16.1767 14.2224 16.9493 15.7905 17.3618L16.4181 17.4578C16.6221 17.4688 16.8262 17.4533 17.0313 17.4434C17.3525 17.4268 17.6662 17.3399 17.95 17.1886C18.0945 17.1142 18.2354 17.0333 18.3725 16.946C18.3725 16.946 18.4199 16.9151 18.5103 16.8467C18.6592 16.7364 18.7508 16.6581 18.8743 16.5291C18.9659 16.4342 19.0453 16.3228 19.1059 16.196C19.192 16.0162 19.278 15.6732 19.3133 15.3875C19.3398 15.1692 19.332 15.05 19.3287 14.9761C19.3243 14.8581 19.2262 14.7357 19.1192 14.6839L18.4773 14.396C18.4773 14.396 17.5177 13.978 16.932 13.7111C16.8703 13.6842 16.8041 13.6688 16.7368 13.6658C16.6613 13.6581 16.5851 13.6666 16.5132 13.6908C16.4413 13.7149 16.3754 13.7542 16.3199 13.8059V13.8037C16.3144 13.8037 16.2405 13.8666 15.4431 14.8328C15.3973 14.8943 15.3342 14.9407 15.262 14.9663C15.1897 14.9918 15.1114 14.9952 15.0372 14.9761C14.9653 14.9569 14.8949 14.9326 14.8265 14.9033C14.6898 14.846 14.6423 14.8239 14.5486 14.7831L14.5431 14.7809C13.9121 14.5054 13.3279 14.1333 12.8114 13.678C12.6725 13.5567 12.5434 13.4243 12.4111 13.2964C11.9772 12.8808 11.599 12.4107 11.2861 11.8978L11.221 11.7931C11.1743 11.7226 11.1365 11.6467 11.1085 11.567C11.0666 11.4048 11.1758 11.2747 11.1758 11.2747C11.1758 11.2747 11.4438 10.9813 11.5684 10.8225C11.6722 10.6905 11.769 10.5532 11.8585 10.4111C11.9886 10.2015 12.0295 9.98644 11.9611 9.81989C11.6523 9.06548 11.3324 8.31438 11.0037 7.56879C10.9387 7.421 10.7456 7.31511 10.5703 7.29416C10.5108 7.28718 10.4513 7.2813 10.3916 7.27651C10.2435 7.26915 10.095 7.27173 9.94711 7.28202Z" fill="black" fill-opacity="0.65"/>
</svg>
