<svg width="21" height="20" viewBox="0 0 21 20" fill="none" xmlns="http://www.w3.org/2000/svg">
<path d="M7.79167 8.33333C7.79167 6.83756 9.00423 5.625 10.5 5.625C11.9958 5.625 13.2083 6.83756 13.2083 8.33333C13.2083 9.8291 11.9958 11.0417 10.5 11.0417C9.00423 11.0417 7.79167 9.8291 7.79167 8.33333Z" fill="black" fill-opacity="0.85"/>
<path fill-rule="evenodd" clip-rule="evenodd" d="M3.64462 7.39782C3.93098 3.92371 6.83415 1.25 10.32 1.25H10.68C14.1659 1.25 17.0691 3.92371 17.3554 7.39782C17.5096 9.26832 16.9318 11.1257 15.7438 12.5786L11.7496 17.4634C11.1037 18.2532 9.8963 18.2532 9.25049 17.4634L5.25627 12.5786C4.06822 11.1257 3.49044 9.26832 3.64462 7.39782ZM10.5 4.375C8.31387 4.375 6.54167 6.14721 6.54167 8.33333C6.54167 10.5195 8.31387 12.2917 10.5 12.2917C12.6861 12.2917 14.4583 10.5195 14.4583 8.33333C14.4583 6.14721 12.6861 4.375 10.5 4.375Z" fill="black" fill-opacity="0.85"/>
</svg>
