<svg width="217" height="65" viewBox="0 0 217 65" fill="none" xmlns="http://www.w3.org/2000/svg">
<path fill-rule="evenodd" clip-rule="evenodd" d="M12.5813 6.11051C12.5813 4.9994 13.4875 4.10156 14.5986 4.11184L52.9746 4.46718C54.0712 4.47733 54.9549 5.36918 54.9549 6.46584V28.4742C54.9549 29.558 54.0922 30.4404 53.0161 30.4721H52.556V30.473H23.3746V22.478C23.3746 20.9325 22.1218 19.6797 20.5763 19.6797H12.5813V6.11051ZM53.0271 31.2716C53.0035 31.2722 52.9798 31.2725 52.9561 31.2725H23.3724C23.3407 32.1811 22.9659 33.046 22.3208 33.691L19.9442 36.0677H91.9544C91.4954 35.6363 90.8664 35.0869 90.2713 34.573L90.0368 34.3707L89.8364 34.1982C89.2896 33.7274 88.8208 33.3238 88.6509 33.154C88.3425 32.8456 88.1171 32.4209 87.9693 32.0208C87.8766 31.77 87.8079 31.511 87.7694 31.2723H57.7973C57.7756 31.2723 57.7539 31.2721 57.7323 31.2716H53.0271ZM58.1525 30.4728V30.4721H57.7424C56.6639 30.443 55.7985 29.5596 55.7985 28.4741V6.38977C55.7985 5.28404 56.6963 4.38841 57.802 4.39102L96.9333 4.4834C98.0354 4.48601 98.9274 5.38011 98.9274 6.48215V19.2782H90.5322C88.9868 19.2782 87.7339 20.5311 87.7339 22.0765V30.4728H58.1525ZM55.8382 30.4721H54.9154C55.0944 30.2965 55.2499 30.0971 55.3767 29.879C55.5036 30.0971 55.6591 30.2965 55.8382 30.4721ZM92.1316 36.8672H19.3771V49.2595H92.1316V36.8672ZM92.1316 50.059H19.3771V53.2587C19.3771 54.0415 19.0557 54.7491 18.5377 55.257H92.9711C92.453 54.7491 92.1316 54.0414 92.1316 53.2586V50.059ZM16.5788 56.057C16.7147 56.057 16.8482 56.0473 16.9789 56.0286V56.0565H94.8861C94.9006 56.0567 94.9152 56.0568 94.9299 56.0568H95.7289V58.4537C95.7289 59.9992 96.9818 61.252 98.5272 61.252H103.724C105.269 61.252 106.522 59.9992 106.522 58.4537V56.0568H106.922C108.468 56.0568 109.721 54.804 109.721 53.2586V24.4766C109.721 24.3331 109.644 24.2007 109.519 24.1295L101.309 19.4378C101.128 19.3343 100.923 19.2798 100.714 19.2798H99.7269V6.48215C99.7269 4.9393 98.4781 3.68755 96.9352 3.68391L57.8039 3.59152C56.752 3.58904 55.8346 4.16717 55.3546 5.02368C54.8694 4.21842 53.9899 3.67704 52.982 3.66771L14.606 3.31238C13.0505 3.29798 11.7818 4.55495 11.7818 6.11051V19.6797H11.1245C10.7083 19.6797 10.2973 19.7726 9.92145 19.9515L2.01597 23.716C1.87676 23.7823 1.78809 23.9228 1.78809 24.077V53.2587C1.78809 54.8041 3.04091 56.057 4.58634 56.057H4.98633V58.8547C4.98633 60.4002 6.23915 61.653 7.78458 61.653H12.9813C14.5268 61.653 15.7796 60.4002 15.7796 58.8547V56.057H16.5788ZM106.922 55.2573H94.9301V55.257H94.8929C93.8061 55.2373 92.9311 54.3501 92.9311 53.2586V36.0693V26.8751C92.9311 25.7712 93.826 24.8763 94.9299 24.8763H108.921V53.2586C108.921 54.3624 108.026 55.2573 106.922 55.2573ZM96.5284 56.0568V58.4537C96.5284 59.5576 97.4233 60.4525 98.5272 60.4525H103.724C104.828 60.4525 105.723 59.5576 105.723 58.4537V56.0568H96.5284ZM5.78583 56.057V58.8547C5.78583 59.9586 6.6807 60.8535 7.78458 60.8535H12.9813C14.0852 60.8535 14.9801 59.9586 14.9801 58.8547V56.057H5.78583ZM21.7555 33.1257L19.3771 35.5041V26.4755C19.3771 24.93 18.1243 23.6772 16.5788 23.6772H3.95711L10.2652 20.6734C10.5336 20.5455 10.8272 20.4792 11.1245 20.4792H12.1816H20.5763C21.6802 20.4792 22.5751 21.3741 22.5751 22.478V30.8727V31.1471C22.5751 31.8892 22.2803 32.6009 21.7555 33.1257ZM16.5788 24.4767H2.58759V53.2587C2.58759 54.3626 3.48246 55.2575 4.58634 55.2575H16.5788C17.6827 55.2575 18.5776 54.3626 18.5776 53.2587V36.4692V26.4755C18.5776 25.3716 17.6827 24.4767 16.5788 24.4767ZM99.2913 20.0777H90.5322C89.4283 20.0777 88.5334 20.9726 88.5334 22.0765V30.8539L88.5336 30.8591L88.5339 30.8726C88.5339 31.0791 88.5939 31.4044 88.7192 31.7436C88.8447 32.0832 89.019 32.3914 89.2163 32.5886C89.3628 32.7352 89.7941 33.1066 90.3349 33.5723L90.3438 33.5799L90.3453 33.5813C90.4884 33.7044 90.639 33.8341 90.7939 33.9679C91.241 34.354 91.7186 34.7698 92.1316 35.1441V26.8751C92.1316 25.3296 93.3844 24.0768 94.9299 24.0768H107.816L100.912 20.132C100.852 20.0975 100.783 20.0793 100.714 20.0793H99.3271L99.3176 20.0792L99.3094 20.0789C99.3033 20.0787 99.2973 20.0783 99.2913 20.0777ZM21.5165 14.5791C21.6842 14.4354 21.9365 14.4548 22.0802 14.6224L22.976 15.6674L23.8717 14.6224C24.0154 14.4548 24.2677 14.4354 24.4354 14.5791C24.603 14.7227 24.6224 14.9751 24.4787 15.1427L23.5025 16.2817L24.4787 17.4207C24.6224 17.5883 24.603 17.8407 24.4354 17.9843C24.2677 18.128 24.0154 18.1086 23.8717 17.941L22.976 16.8959L22.0802 17.941C21.9365 18.1086 21.6842 18.128 21.5165 17.9843C21.3489 17.8407 21.3295 17.5883 21.4732 17.4207L22.4495 16.2817L21.4732 15.1427C21.3295 14.9751 21.3489 14.7227 21.5165 14.5791ZM33.5091 14.5791C33.6767 14.4354 33.929 14.4548 34.0727 14.6224L34.9685 15.6674L35.8642 14.6224C36.0079 14.4548 36.2602 14.4354 36.4279 14.5791C36.5955 14.7227 36.6149 14.9751 36.4712 15.1427L35.495 16.2817L36.4712 17.4207C36.6149 17.5883 36.5955 17.8407 36.4279 17.9843C36.2602 18.128 36.0079 18.1086 35.8642 17.941L34.9685 16.8959L34.0727 17.941C33.929 18.1086 33.6767 18.128 33.5091 17.9843C33.3414 17.8407 33.322 17.5883 33.4657 17.4207L34.442 16.2817L33.4657 15.1427C33.322 14.9751 33.3414 14.7227 33.5091 14.5791ZM45.5016 14.5791C45.6692 14.4354 45.9215 14.4548 46.0652 14.6224L46.961 15.6674L47.8567 14.6224C48.0004 14.4548 48.2527 14.4354 48.4204 14.5791C48.588 14.7227 48.6074 14.9751 48.4637 15.1427L47.4875 16.2817L48.4637 17.4207C48.6074 17.5883 48.588 17.8407 48.4204 17.9843C48.2527 18.128 48.0004 18.1086 47.8567 17.941L46.961 16.8959L46.0652 17.941C45.9215 18.1086 45.6692 18.128 45.5016 17.9843C45.3339 17.8407 45.3145 17.5883 45.4582 17.4207L46.4345 16.2817L45.4582 15.1427C45.3145 14.9751 45.3339 14.7227 45.5016 14.5791ZM64.0519 14.6224C63.9082 14.4548 63.6559 14.4354 63.4882 14.5791C63.3206 14.7227 63.3012 14.9751 63.4449 15.1427L64.4211 16.2817L63.4449 17.4207C63.3012 17.5883 63.3206 17.8407 63.4882 17.9843C63.6559 18.128 63.9082 18.1086 64.0519 17.941L64.9476 16.8959L65.8434 17.941C65.9871 18.1086 66.2394 18.128 66.407 17.9843C66.5747 17.8407 66.5941 17.5883 66.4504 17.4207L65.4741 16.2817L66.4504 15.1427C66.5941 14.9751 66.5747 14.7227 66.407 14.5791C66.2394 14.4354 65.9871 14.4548 65.8434 14.6224L64.9476 15.6674L64.0519 14.6224ZM76.0444 14.6224C75.9007 14.4548 75.6484 14.4354 75.4807 14.5791C75.3131 14.7227 75.2937 14.9751 75.4374 15.1427L76.4136 16.2817L75.4374 17.4207C75.2937 17.5883 75.3131 17.8407 75.4807 17.9843C75.6484 18.128 75.9007 18.1086 76.0444 17.941L76.9401 16.8959L77.8359 17.941C77.9796 18.1086 78.2319 18.128 78.3995 17.9843C78.5672 17.8407 78.5866 17.5883 78.4429 17.4207L77.4666 16.2817L78.4429 15.1427C78.5866 14.9751 78.5672 14.7227 78.3995 14.5791C78.2319 14.4354 77.9796 14.4548 77.8359 14.6224L76.9401 15.6674L76.0444 14.6224ZM88.0369 14.6224C87.8932 14.4548 87.6409 14.4354 87.4732 14.5791C87.3056 14.7227 87.2862 14.9751 87.4299 15.1427L88.4061 16.2817L87.4299 17.4207C87.2862 17.5883 87.3056 17.8407 87.4732 17.9843C87.6409 18.128 87.8932 18.1086 88.0369 17.941L88.9326 16.8959L89.8284 17.941C89.9721 18.1086 90.2244 18.128 90.392 17.9843C90.5597 17.8407 90.5791 17.5883 90.4354 17.4207L89.4591 16.2817L90.4354 15.1427C90.5791 14.9751 90.5597 14.7227 90.392 14.5791C90.2244 14.4354 89.9721 14.4548 89.8284 14.6224L88.9326 15.6674L88.0369 14.6224Z" fill="black" fill-opacity="0.15"/>
<path d="M129.184 32.036V37.148H127.816V32.036H123.208V30.788H127.816V25.82H129.184V30.788H133.792V32.036H129.184Z" fill="black" fill-opacity="0.15"/>
<g clip-path="url(#clip0_56_4339)">
<path d="M162.439 45.8763C162.406 46.7458 162.758 48.4849 164.428 48.4849C166.097 48.4849 187.906 48.4849 198.601 48.4849C199.281 48.4849 200.618 47.9632 200.528 45.8763M162.439 45.8763C162.56 42.8305 162.503 39.4996 162.177 35.9634M162.439 45.8763C162.219 51.4136 161.409 56.0084 160.554 59.1804M200.528 45.8763C200.329 42.4855 200.32 38.8564 200.619 35.1808M200.528 45.8763C200.835 51.1152 201.595 55.7855 202.37 59.1804M200.619 35.1808C200.961 30.9722 201.707 26.7025 203.036 22.6592C203.833 20.7467 205.968 19.7349 208.253 19.6312M200.619 35.1808C200.468 34.746 199.853 33.8764 198.601 33.8764C197.349 33.8764 175.297 33.8764 164.428 33.8764C163.617 33.7895 162.033 34.0851 162.177 35.9634M162.177 35.9634C161.79 31.7727 161.025 27.2936 159.732 22.6592C158.747 20.1593 156.684 19.1113 154.515 19.1384M160.008 61.0065C159.997 61.0406 159.986 61.0743 159.974 61.1079C159.835 61.5199 159.444 61.7891 159.009 61.7891H156.007C155.72 61.7891 155.445 61.6718 155.253 61.4586C148.08 53.4618 149.319 39.2686 150.863 33.0939C143.037 27.3548 149.213 19.2045 154.515 19.1384M160.008 61.0065H202.82M160.008 61.0065C160.189 60.4652 160.373 59.855 160.554 59.1804M202.82 61.0065C202.822 61.015 202.824 61.0234 202.826 61.0319C202.946 61.4814 203.356 61.7891 203.822 61.7891H206.816C207.07 61.7891 207.316 61.6988 207.5 61.5244C214.076 55.2938 213.366 40.0368 212.166 33.0939C220.514 26.5722 213.448 19.3953 208.253 19.6312M202.82 61.0065C202.671 60.4492 202.521 59.8388 202.37 59.1804M160.554 59.1804H202.37M154.515 19.1384C155.21 13.7034 159.315 2.7812 170.167 2.57251C181.019 2.36381 190.34 2.48555 193.645 2.57251C198.601 2.57251 207.627 7.60884 208.253 19.6312M172.254 12.4855C171.558 12.7463 170.323 13.5811 170.949 14.8333C171.575 16.0854 173.123 15.0072 173.819 14.3115M191.036 12.4855C190.34 12.7463 189.106 13.5811 189.732 14.8333C190.358 16.0854 191.906 15.0072 192.601 14.3115M158.689 25.5288C161.498 34.9601 160.03 50.7749 158.831 58.3162C158.751 58.8184 158.317 59.1804 157.808 59.1804H157.164C156.813 59.1804 156.484 59.0069 156.304 58.7052C151.99 51.4568 153.292 37.4769 154.515 31.2678C146.853 26.5723 156.08 19.3187 158.689 25.5288ZM204.079 26.0505C201.058 33.1001 202.387 49.7075 203.679 58.0489C203.757 58.5532 204.193 58.9196 204.703 58.9196H205.902C206.232 58.9196 206.545 58.7668 206.727 58.4909C210.996 52.0039 209.29 37.6449 207.992 31.2678C215.296 26.0505 206.262 20.9587 204.079 26.0505Z" stroke="black" stroke-opacity="0.15" stroke-linecap="round" stroke-linejoin="round"/>
</g>
<defs>
<clipPath id="clip0_56_4339">
<rect width="71" height="62" fill="white" transform="translate(145.5 1.5)"/>
</clipPath>
</defs>
</svg>
