<svg width="141" height="65" viewBox="0 0 141 65" fill="none" xmlns="http://www.w3.org/2000/svg">
<path d="M117.931 4.07823L116.567 4.36734V6.39115V6.58389L117.931 6.87301M117.931 4.07823V3.78911H118.418M117.931 4.07823V6.87301M118.418 3.78911V3.5H130.497L135.172 7.74035C135.887 8.4792 137.004 10.2267 135.757 11.3061H129.912V11.4988M118.418 3.78911V7.25849M129.912 11.4988L130.984 11.788V15.0646M129.912 11.4988H125.236M130.984 15.0646H131.178V16.3174L130.497 16.6065M130.984 15.0646C129.915 14.9361 127.016 14.7369 123.97 14.9682M130.497 16.6065C132.088 16.8314 135.835 19.9795 138.095 30.7732C140.92 44.2652 140.53 52.0713 137.413 60.4556C133.581 61.323 124.223 62.4602 117.443 60.0702C115.788 56.7293 113.313 47.4262 116.664 36.941M130.497 16.6065H124.652M116.664 36.941C120.203 34.6602 126.172 29.424 121.73 26.7256M116.664 36.941C128.509 34.0113 130.294 32.2187 129.912 31.0623C128.899 28.5181 124.035 27.1111 121.73 26.7256M121.73 26.7256V24.9909M121.73 24.9909C123.158 24.252 125.158 22.1575 121.73 19.6904M121.73 24.9909C128.198 26.4557 129.88 25.4085 129.912 24.7018C129.912 22.3117 124.457 20.365 121.73 19.6904M121.73 19.6904C121.924 18.8231 122.782 16.992 124.652 16.6065M124.652 16.6065L123.775 16.4138V15.0646L123.97 14.9682M123.97 14.9682V11.788L125.236 11.4988M125.236 11.4988V10.3424H123.386V9.9569H123.191V9.37867L120.658 9.66778C120.203 11.5952 118.807 15.4115 116.859 15.2573C117.833 13.876 119.645 10.4388 119.099 7.74035H118.612L118.418 7.25849M118.418 7.25849H117.931V6.87301M118.807 39.2539C119.327 37.7762 122.996 34.8208 133.516 34.8208C135.075 34.8208 138.036 36.4976 137.413 43.2051C136.789 49.9126 136.179 54.4806 135.952 55.9262C135.785 56.9863 135.094 58.8944 131.665 58.8173C128.237 58.7402 124.262 58.5282 122.704 58.4318C121.527 58.2391 119.197 58.0271 118.807 55.6371C118.32 52.6495 117.151 49.3729 118.807 39.2539Z" stroke="black" stroke-opacity="0.15"/>
<path d="M93.6837 38.036V43.148H92.3157V38.036H87.7077V36.788H92.3157V31.82H93.6837V36.788H98.2917V38.036H93.6837Z" fill="black" fill-opacity="0.15"/>
<path d="M3.41554 6.87144C2.14838 6.65995 2.38708 7.76087 2.00759 8.45758C1.4796 9.42692 2.62357 11.1011 3.94353 14.5378C5.26349 17.9744 3.94353 19.8249 4.73551 24.5834C5.36909 28.3901 4.47152 35.4514 3.94353 38.5062C4.11953 39.8867 3.87315 43.8462 1.47962 48.6399C-0.913912 53.4336 6.23148 51.2835 10.1034 49.6092C11.0185 48.9747 15.5885 49.0511 17.7591 49.1686C19.3035 49.414 26.6176 49.4036 30.5188 49.1686H37.2946C38.2626 48.9042 39.8035 49.0627 40.7265 49.6092C42.1828 50.4715 44.8917 50.7841 46.7103 50.7547C50.3182 51.6359 50.4062 50.1379 50.4942 49.6092C50.5646 49.1862 49.0569 46.6719 48.2943 45.4676C47.3087 42.6478 47.0036 40.1217 46.9743 39.2111L46.7103 35.1577L46.3583 27.5794L46.7103 22.6447L47.0623 17.6219L48.5583 12.8635C49.5849 11.1893 51.3742 7.64699 50.3182 6.87154C48.9982 5.90223 47.4143 7.13589 47.0623 7.13589C46.7103 7.13589 46.8863 6.78342 46.0063 6.87154C45.1264 6.95966 43.6304 8.36956 43.2784 8.36956C42.9264 8.36956 36.7666 9.07452 35.2706 8.81016C34.0739 8.59867 32.2494 9.07452 31.4867 9.33887L22.335 9.77947L19.8711 9.95571C17.3368 8.5458 13.1246 8.3695 11.3353 8.45758C6.05549 7.13569 4.9995 7.13579 3.41554 6.87144Z" fill="#F7F7F7" stroke="black" stroke-opacity="0.15"/>
<path d="M24.7749 16.8019C23.5078 16.5904 23.7465 17.6913 23.367 18.388C22.839 19.3573 23.9829 21.0315 25.3029 24.4682C26.6229 27.9048 25.3029 29.7553 26.0949 34.5138C26.7285 38.3205 25.8309 45.3818 25.3029 48.4366C25.4789 49.8171 25.2325 53.7766 22.839 58.5703C20.4455 63.364 27.5909 61.2139 31.4627 59.5396C32.3779 58.9052 36.9479 58.9815 39.1185 59.099C40.6628 59.3444 47.9769 59.334 51.8782 59.099H58.654C59.6219 58.8347 61.1629 58.9931 62.0859 59.5396C63.5422 60.4019 66.2511 60.7145 68.0697 60.6852C71.6776 61.5664 71.7656 60.0683 71.8536 59.5396C71.924 59.1166 70.4163 56.6023 69.6536 55.398C68.6681 52.5782 68.363 50.0521 68.3337 49.1416L68.0697 45.0881L67.7177 37.5098L68.0697 32.5752L68.4217 27.5524L69.9176 22.7939C70.9443 21.1197 72.7335 17.5774 71.6776 16.802C70.3576 15.8326 68.7737 17.0663 68.4217 17.0663C68.0697 17.0663 68.2457 16.7138 67.3657 16.802C66.4857 16.8901 64.9898 18.3 64.6378 18.3C64.2858 18.3 58.126 19.0049 56.63 18.7406C55.4332 18.5291 53.6088 19.0049 52.8461 19.2693L43.6944 19.7099L41.2305 19.8861C38.6961 18.4762 34.484 18.2999 32.6947 18.388C27.4149 17.0661 26.3589 17.0662 24.7749 16.8019Z" fill="#F7F7F7" stroke="black" stroke-opacity="0.15"/>
</svg>
