<svg width="110" height="65" viewBox="0 0 110 65" fill="none" xmlns="http://www.w3.org/2000/svg">
<g clip-path="url(#clip0_56_4281)">
<path d="M55.9215 52.9057L56.6495 52.0607C57.1955 52.7237 58.0925 53.1657 59.0675 53.1657C60.2635 53.1657 60.9785 52.5937 60.9785 51.6837C60.9785 50.7217 60.1985 50.3187 58.9375 50.3187C58.5865 50.3187 58.1315 50.3187 58.0015 50.3317V49.1487C58.1445 49.1617 58.5995 49.1617 58.9375 49.1617C59.9905 49.1617 60.8485 48.7717 60.8485 47.8747C60.8485 46.9907 60.0165 46.5227 58.9895 46.5227C58.0795 46.5227 57.3645 46.8737 56.7275 47.5237L56.0385 46.7177C56.6885 45.9507 57.7155 45.3657 59.1065 45.3657C60.8745 45.3657 62.1485 46.2367 62.1485 47.6927C62.1485 48.9017 61.1215 49.5387 60.2635 49.6947C61.0825 49.7727 62.2785 50.4487 62.2785 51.8137C62.2785 53.2697 61.0695 54.3227 59.1065 54.3227C57.5985 54.3227 56.4805 53.6857 55.9215 52.9057ZM66.8836 49.8377C66.8836 47.6927 67.8716 45.3657 70.2766 45.3657C72.6816 45.3657 73.6696 47.6927 73.6696 49.8377C73.6696 51.9827 72.6816 54.3227 70.2766 54.3227C67.8716 54.3227 66.8836 51.9827 66.8836 49.8377ZM72.3436 49.8377C72.3436 48.1477 71.8106 46.5227 70.2766 46.5227C68.7426 46.5227 68.2096 48.1477 68.2096 49.8377C68.2096 51.5277 68.7426 53.1657 70.2766 53.1657C71.8106 53.1657 72.3436 51.5277 72.3436 49.8377ZM74.869 49.8377C74.869 47.6927 75.857 45.3657 78.262 45.3657C80.667 45.3657 81.655 47.6927 81.655 49.8377C81.655 51.9827 80.667 54.3227 78.262 54.3227C75.857 54.3227 74.869 51.9827 74.869 49.8377ZM80.329 49.8377C80.329 48.1477 79.796 46.5227 78.262 46.5227C76.728 46.5227 76.195 48.1477 76.195 49.8377C76.195 51.5277 76.728 53.1657 78.262 53.1657C79.796 53.1657 80.329 51.5277 80.329 49.8377ZM82.8543 49.8377C82.8543 47.6927 83.8423 45.3657 86.2473 45.3657C88.6523 45.3657 89.6403 47.6927 89.6403 49.8377C89.6403 51.9827 88.6523 54.3227 86.2473 54.3227C83.8423 54.3227 82.8543 51.9827 82.8543 49.8377ZM88.3143 49.8377C88.3143 48.1477 87.7813 46.5227 86.2473 46.5227C84.7133 46.5227 84.1803 48.1477 84.1803 49.8377C84.1803 51.5277 84.7133 53.1657 86.2473 53.1657C87.7813 53.1657 88.3143 51.5277 88.3143 49.8377ZM98.2083 50.7087H95.8553V51.8917H99.0923V52.6587H95.8553V54.1667H94.5553V52.6587H93.6843V51.8917H94.5553V50.7087H93.6843V49.6817H94.5553V45.4957H98.2083C99.9893 45.4957 100.977 46.7047 100.977 48.1087C100.977 49.5127 99.9763 50.7087 98.2083 50.7087ZM95.8553 46.6397V49.6817H98.0393C98.9753 49.6817 99.6383 49.0707 99.6383 48.1607C99.6383 47.2507 98.9753 46.6397 98.0393 46.6397H95.8553Z" fill="black" fill-opacity="0.15"/>
<path d="M-10.2674 35.5226C-10.3005 35.4777 -10.3405 35.4189 -10.3885 35.3426C-10.7631 34.7475 -11.4049 33.4467 -12.73 30.7573C-14.0515 28.0753 -14.6992 26.7599 -14.9794 26.0901C-15.02 25.9929 -15.0509 25.9139 -15.0741 25.8497C-15.05 25.8403 -15.0232 25.83 -14.9937 25.8186C-14.8142 25.7497 -14.5594 25.653 -14.2372 25.5316C-13.593 25.2889 -12.6822 24.9483 -11.5716 24.5347C-9.35057 23.7076 -6.332 22.5892 -3.05209 21.3793C0.228478 20.1691 3.24664 19.0512 5.46663 18.225C6.57655 17.8119 7.48735 17.4716 8.1318 17.2291C8.4539 17.1078 8.71019 17.0108 8.89179 16.9411C9.05459 16.8787 9.19268 16.8253 9.2419 16.8009M-10.2674 35.5226L35.6317 10.5582L35.1496 10.6891C35.1004 10.5047 35.0819 10.3089 35.1021 10.1316C35.1122 10.0435 35.134 9.94112 35.1802 9.84157C35.2247 9.74583 35.3126 9.60963 35.4773 9.5275C35.5192 9.50661 35.6259 9.46588 35.7315 9.42558L35.7336 9.42477C35.8605 9.37633 36.0402 9.30851 36.2663 9.22365C36.7187 9.05385 37.3598 8.81484 38.142 8.52425C39.7067 7.94302 41.8375 7.15487 44.1571 6.30007C48.7957 4.59069 54.1491 2.61685 56.0535 1.91373C57.862 1.24604 59.6084 0.609559 60.0582 0.454164M-10.2674 35.5226C-9.28281 34.8506 -3.86734 31.3716 1.34797 28.0417C4.00966 26.3422 6.62441 24.6783 8.58161 23.4398C9.56007 22.8207 10.3749 22.3074 10.9494 21.949C11.2363 21.77 11.4647 21.6287 11.624 21.532C11.7031 21.4839 11.7679 21.4452 11.8152 21.4179C11.8381 21.4047 11.8617 21.3914 11.8826 21.3805C11.8921 21.3755 11.9086 21.367 11.9277 21.3587C11.9366 21.3548 11.9551 21.3469 11.9789 21.3393C11.9909 21.3355 12.0197 21.3279 12.037 21.3242C12.0635 21.3197 12.1346 21.3148 12.1795 21.3169M-10.2674 35.5226L12.1795 21.3169M9.2419 16.8009C9.24187 16.801 9.24183 16.801 9.24179 16.801L9.02204 16.3519L9.2419 16.8009ZM9.2419 16.8009C9.33947 16.7526 9.46328 16.6778 9.56414 16.5511C9.67172 16.4159 9.72068 16.2636 9.73577 16.1144C9.76112 15.8636 9.69241 15.5559 9.60749 15.2205C9.47926 14.7141 9.38607 14.3421 9.32511 14.0598C9.26245 13.7697 9.24322 13.614 9.24444 13.5262C9.24445 13.5254 9.24447 13.5246 9.24448 13.5238M9.24448 13.5238C9.2674 13.5104 9.30785 13.4882 9.37735 13.4535C9.5765 13.3542 9.78464 13.2284 9.92736 13.04C10.0832 12.8343 10.1231 12.6087 10.1005 12.3938M9.24448 13.5238C9.24492 13.5 9.24663 13.4907 9.24645 13.4907C9.24616 13.4906 9.24098 13.5144 9.21776 13.5398C9.21711 13.5405 9.2167 13.5409 9.21674 13.5409C9.21687 13.5411 9.2229 13.5364 9.24448 13.5238ZM10.1005 12.3938C10.1259 12.371 10.1762 12.333 10.2691 12.2837C10.5486 12.1353 11.0445 11.9708 11.852 11.7728M10.1005 12.3938C10.0987 12.3765 10.0965 12.3593 10.0939 12.3422L10.0938 12.3421C10.095 12.3498 10.0958 12.3668 10.0905 12.3874C10.0857 12.4062 10.0789 12.4161 10.0789 12.4161L10.079 12.4159C10.0815 12.4126 10.088 12.4051 10.1005 12.3938ZM11.852 11.7728C13.4876 11.3721 14.817 11.4158 17.2784 12.0037L17.3808 12.0282C18.4101 12.2743 19.0463 12.4264 19.6237 12.3779C20.2187 12.3279 20.7314 12.0676 21.5132 11.6706C21.5399 11.6571 21.567 11.6433 21.5943 11.6294L21.5944 11.6294L21.6664 11.5929C22.4578 11.1914 22.9649 10.9343 23.3813 10.4794C23.7833 10.0402 24.0906 9.42664 24.6049 8.39993L24.6492 8.31136C25.2617 7.08897 26.0377 5.77787 26.3604 5.38921L26.3604 5.38913C26.9455 4.68408 27.8536 3.90787 28.6469 3.36929C29.045 3.09901 29.3899 2.90531 29.6328 2.80857C29.6677 2.79468 29.6985 2.78358 29.7254 2.77487M11.852 11.7728L11.735 11.2862L11.852 11.7728C11.852 11.7728 11.852 11.7728 11.852 11.7728ZM29.7254 2.77487C29.7566 2.80205 29.7909 2.82692 29.8284 2.84886C29.9496 2.91968 30.0765 2.94378 30.1878 2.94507C30.3952 2.94749 30.5964 2.87158 30.763 2.7885C30.78 2.78003 30.7947 2.77287 30.8073 2.76683M29.7254 2.77487C29.7439 2.76889 29.7605 2.76403 29.7753 2.76017C29.8131 2.75034 29.8299 2.74945 29.8298 2.74945C29.829 2.74947 29.8201 2.74975 29.8051 2.74748C29.79 2.74521 29.7656 2.73989 29.736 2.72705C29.6687 2.69787 29.6001 2.64042 29.5589 2.55686C29.5984 2.63693 29.6535 2.71209 29.7254 2.77487ZM30.8073 2.76683C30.8509 2.8066 30.9154 2.8726 31.0108 2.98106C31.1487 3.13774 31.3254 3.35301 31.5691 3.65118L31.9552 3.33276M30.8073 2.76683C30.8581 2.74244 30.8751 2.73633 30.8749 2.73578C30.8748 2.73547 30.8695 2.73685 30.8618 2.73777C30.7976 2.74548 30.7534 2.72154 30.753 2.72224C30.7529 2.72235 30.754 2.72311 30.7563 2.72475C30.7689 2.73355 30.7854 2.7469 30.8073 2.76683ZM31.9552 3.33276L31.5691 3.65119C31.5794 3.66386 31.5898 3.67656 31.6002 3.68927C31.8191 3.95737 32.0421 4.23059 32.2906 4.40574C32.6035 4.62627 32.9476 4.69294 33.3517 4.6011C33.7088 4.51998 34.1173 4.31398 34.6124 4.02231C35.1153 3.72601 35.7603 3.30836 36.6016 2.76367L36.6126 2.75655C40.4831 0.250528 45.1365 -2.74689 48.8606 -5.13683C50.7226 -6.33181 52.352 -7.3747 53.5348 -8.12825C54.1263 -8.50508 54.6055 -8.80919 54.9462 -9.02367C55.0985 -9.11957 55.2223 -9.19707 55.3158 -9.25496M31.9552 3.33276C32.9408 4.5386 32.9408 4.5386 36.3429 2.33579L9.60049 12.419C9.53556 11.9915 10.1175 11.6827 11.735 11.2862C13.4738 10.8601 14.8885 10.9176 17.3952 11.5163C18.6168 11.8081 19.1767 11.9419 19.7066 11.8645C20.155 11.7991 20.582 11.5824 21.3702 11.1825C23.0901 10.3097 23.0901 10.3097 24.2035 8.08731C24.8159 6.86509 25.614 5.50682 25.9774 5.06916C27.2227 3.56847 29.7645 1.84281 30.0064 2.33372C30.0779 2.47887 30.2594 2.48097 30.5421 2.33999C30.9617 2.1307 30.9879 2.14917 31.9552 3.33276ZM55.3158 -9.25496C55.3526 -9.19734 55.3966 -9.12447 55.4491 -9.03264C55.8093 -8.40262 56.4576 -7.08747 57.779 -4.40553C59.1041 -1.71611 59.7444 -0.414613 59.9885 0.245922C60.0202 0.331716 60.0427 0.400072 60.0582 0.454164M55.3158 -9.25496C55.2903 -9.29485 55.2682 -9.32743 55.2489 -9.35394C55.2153 -9.40037 55.1991 -9.4159 55.1992 -9.41606C55.1993 -9.41614 55.2037 -9.41212 55.2124 -9.40615C55.2592 -9.37372 55.3461 -9.34085 55.4476 -9.35528C55.461 -9.35718 55.4734 -9.35998 55.4839 -9.3628M55.3158 -9.25496C55.3269 -9.26186 55.3376 -9.26848 55.3479 -9.27482C55.4163 -9.31701 55.4557 -9.34064 55.474 -9.35165C55.485 -9.35824 55.4884 -9.3603 55.486 -9.3591C55.5072 -9.36962 55.516 -9.37332 55.516 -9.37333C55.516 -9.37334 55.5033 -9.36806 55.4841 -9.36286M60.0582 0.454164C60.0719 0.501742 60.0803 0.538281 60.0851 0.565935C60.0884 0.585494 60.0891 0.596368 60.0893 0.600179C60.0894 0.594167 60.091 0.571357 60.103 0.539068C60.1111 0.51725 60.1212 0.498119 60.132 0.481542C60.1321 0.481475 60.1321 0.481408 60.1322 0.481341C60.1626 0.434886 60.1991 0.408564 60.2149 0.399565C60.216 0.398934 60.2044 0.404935 60.1167 0.434244L60.1165 0.43431C60.1005 0.439654 60.081 0.446291 60.0582 0.454164ZM16.254 23.8389C16.0083 24.6527 16.1141 24.9475 17.2936 26.7374C18.8366 29.079 20.3452 30.4285 23.5077 32.297M16.254 23.8389L24.8291 18.4756C25.4287 20.2588 25.4962 22.0861 25.1709 25.1531C24.9105 27.6066 24.9281 30.375 25.2148 32.1102M16.254 23.8389C16.2653 23.8014 16.2761 23.7659 16.2862 23.7322C16.3231 23.7187 16.345 23.7118 16.3571 23.7086C16.3578 23.7084 16.3585 23.7082 16.3591 23.7081M16.254 23.8389L16.3651 23.2271C16.4163 23.2722 16.3803 23.4169 16.2924 23.7115C16.3256 23.7132 16.3497 23.7098 16.3591 23.7081M23.5077 32.297C24.0322 32.6068 24.5121 32.8845 24.8539 33.0773C24.8526 33.0665 24.8512 33.0553 24.8497 33.0439C24.8293 32.884 24.7997 32.6786 24.7637 32.4492M23.5077 32.297L23.7617 31.865C23.7617 31.865 23.7617 31.865 23.7617 31.865M23.5077 32.297L23.7617 31.865M24.7637 32.4492C24.868 32.5091 24.9652 32.5645 25.0538 32.6146C25.1533 32.6709 25.241 32.72 25.3152 32.7609C25.2883 32.5709 25.254 32.3476 25.2148 32.1102M24.7637 32.4492C24.7507 32.3668 24.737 32.2812 24.7225 32.1936L25.2148 32.1102M24.7637 32.4492C24.4738 32.2828 24.129 32.082 23.7617 31.865M25.2148 32.1102L24.7225 32.1935C24.4261 30.3999 24.4113 27.5835 24.6746 25.1015C25.0824 21.2576 24.8584 19.4676 23.7768 17.2402C23.5724 16.8192 23.3969 16.4255 23.2787 16.1286C23.2204 15.9822 23.1716 15.8483 23.1408 15.742C23.1265 15.6925 23.1095 15.627 23.102 15.5605C23.0986 15.5305 23.093 15.4679 23.1052 15.394C23.1139 15.3413 23.157 15.1269 23.3817 15.0135C23.5662 14.9204 23.7342 14.9677 23.8055 14.9963C23.88 15.0262 23.9325 15.0671 23.9582 15.0884C24.0128 15.1339 24.0566 15.1859 24.085 15.2217C24.147 15.2998 24.2149 15.4023 24.2825 15.5124C24.4206 15.7374 24.5895 16.0467 24.7583 16.3875M24.7583 16.3875C24.7583 16.3875 24.7583 16.3876 24.7584 16.3876L24.5322 16.5009L24.7583 16.3875ZM24.7583 16.3875C25.8653 18.6222 27.3759 20.1542 30.3717 21.996C32.814 23.4975 34.6113 24.8869 36.3365 26.6268M24.7583 16.3875L25.278 18.2442C26.3582 19.7698 27.8244 21.0181 30.1102 22.4234C32.6321 23.9739 34.4465 25.3955 36.2113 27.2142C36.2277 27.1545 36.2471 27.0741 36.2691 26.9716C36.2908 26.8701 36.3134 26.7543 36.3365 26.6268M24.7583 16.3875L12.1796 21.3169M36.3365 26.6268C36.478 26.7695 36.619 26.9145 36.7598 27.0622L35.2995 12.5296M36.3365 26.6268C36.3906 26.3282 36.4474 25.9652 36.502 25.5694C36.6584 24.4364 36.7896 23.092 36.7941 22.303C36.8049 20.4441 36.4339 18.6896 35.4889 16.2511C35.3785 15.9662 35.302 15.7697 35.2357 15.6221C35.1693 15.4743 35.1277 15.4095 35.0988 15.375C35.0572 15.3253 35.0221 15.2976 34.6293 15.1584L34.6293 15.1583L34.6147 15.1531C34.4471 15.0937 34.3008 15.0419 34.1935 14.9967C34.1384 14.9736 34.0746 14.9445 34.0157 14.9083C33.9701 14.8804 33.8554 14.8066 33.7825 14.6673C33.7402 14.5864 33.7133 14.4857 33.7218 14.3737C33.7301 14.2654 33.769 14.179 33.8074 14.1187C33.875 14.0123 33.9656 13.9485 34.0059 13.9213C34.0885 13.8654 34.2027 13.8085 34.2997 13.7603L34.3206 13.7499C34.5344 13.6433 34.5464 13.5574 34.5487 13.5342L34.5487 13.5341C34.5907 13.1135 34.8879 12.7378 35.2474 12.5586C35.274 12.5453 35.2902 12.5356 35.2995 12.5296M35.2995 12.5296C35.2987 12.5324 35.298 12.5347 35.2974 12.5368C35.2967 12.539 35.2963 12.54 35.2964 12.54C35.2966 12.5401 35.3005 12.5316 35.3088 12.5232C35.3095 12.5225 35.3099 12.5222 35.3099 12.5222C35.3099 12.5222 35.307 12.5246 35.2995 12.5296ZM23.7617 31.865C20.6448 30.0236 19.2004 28.7219 17.7101 26.4602C17.1096 25.549 16.8276 25.082 16.709 24.7512C16.6557 24.6028 16.6421 24.4976 16.6456 24.4003C16.6495 24.2949 16.6743 24.1726 16.7316 23.983L16.7316 23.9829L16.7371 23.9648C16.7867 23.8004 16.832 23.6503 16.8579 23.534C16.8713 23.4738 16.8857 23.3967 16.8875 23.3165C16.8891 23.2459 16.884 23.0939 16.7831 22.949C16.6624 22.7757 16.4854 22.721 16.3603 22.7118C16.2529 22.7039 16.1581 22.7258 16.1037 22.7403C15.9987 22.7682 15.8689 22.8198 15.7478 22.8679L15.7259 22.8767L15.7258 22.8767C15.6116 22.922 15.5003 22.9459 15.4217 22.9515C15.4146 22.952 15.4083 22.9524 15.4026 22.9526M15.4026 22.9526C15.2134 22.8335 14.9974 22.8292 14.8707 22.8384C14.6901 22.8516 14.4991 22.9057 14.3256 22.9922C14.2612 23.0244 14.2274 23.0365 14.2112 23.0411M15.4026 22.9526C15.4361 22.9736 15.4687 22.9982 15.4998 23.027M15.4026 22.9526C15.3765 22.9535 15.3652 22.9516 15.3669 22.9519C15.3686 22.9522 15.3821 22.9547 15.4029 22.9634C15.4233 22.9719 15.4602 22.9904 15.4998 23.027M14.2112 23.0411C14.1976 23.0356 14.1684 23.0215 14.1177 22.9876C14.0483 22.9412 13.9587 22.8717 13.833 22.7668L13.5132 23.1523M14.2112 23.0411C14.2077 23.0421 14.205 23.0427 14.203 23.0432C14.2022 23.0433 14.2018 23.0434 14.2018 23.0434C14.2018 23.0434 14.2046 23.043 14.2094 23.0431C14.2161 23.0433 14.2203 23.0444 14.2201 23.0444C14.2191 23.0441 14.2162 23.0432 14.2112 23.0411ZM13.5132 23.1523L13.833 22.7668C13.5165 22.5025 13.1334 22.118 12.9907 21.9324C12.8883 21.7993 12.7736 21.6734 12.6661 21.575C12.6129 21.5264 12.5534 21.477 12.4916 21.4358C12.4511 21.4088 12.3333 21.3311 12.1796 21.3169M13.5132 23.1523C14.0293 23.5832 14.1779 23.6246 14.5466 23.4407C14.7862 23.3212 15.0589 23.3014 15.1612 23.396M13.5132 23.1523C13.1816 22.8754 12.7685 22.4646 12.5952 22.2392C12.422 22.0137 12.2137 21.8232 12.1325 21.8157M12.1796 21.3169L12.1325 21.8157M12.1796 21.3169L15.1612 23.396M15.1612 23.396C15.2598 23.4871 15.5724 23.4681 15.875 23.3552C15.8784 23.3419 15.8813 23.3297 15.8838 23.3183C15.8864 23.3066 15.888 23.2984 15.8889 23.2931C15.8889 23.2931 15.8889 23.2931 15.8889 23.2931C15.8899 23.288 15.8902 23.2856 15.8902 23.2856C15.8902 23.2856 15.8899 23.289 15.8897 23.295C15.8897 23.295 15.8897 23.295 15.8897 23.2951C15.8897 23.2955 15.8897 23.296 15.8897 23.2964L15.8897 23.297L15.1612 23.396ZM15.1612 23.396L15.4998 23.027M15.1612 23.396L15.5 23.0272C15.4999 23.0271 15.4999 23.0271 15.4998 23.027M12.1325 21.8157L12.1795 21.3169M12.1325 21.8157L12.1795 21.3169M16.3591 23.7081C16.3619 23.7075 16.3634 23.7072 16.3635 23.7071C16.3636 23.707 16.3622 23.7073 16.3591 23.7081ZM55.4839 -9.3628L55.2654 -9.80778L55.4841 -9.36286M55.4839 -9.3628C55.4839 -9.36282 55.484 -9.36284 55.4841 -9.36286M55.4839 -9.3628L55.4841 -9.36286M25.1526 32.904C25.2186 32.8711 25.2811 32.8583 25.3281 32.8538C25.3686 33.15 25.3875 33.3456 25.3736 33.3525C25.3634 33.3576 25.1982 33.2703 24.9321 33.1212C24.9625 33.0626 25.0275 32.9663 25.1526 32.904Z" stroke="black" stroke-opacity="0.15"/>
</g>
<rect x="0.5" y="1" width="109" height="63" rx="1.63333" stroke="black" stroke-opacity="0.15"/>
<defs>
<clipPath id="clip0_56_4281">
<rect y="0.5" width="110" height="64" rx="2.13333" fill="white"/>
</clipPath>
</defs>
</svg>
