<svg width="360" height="162" viewBox="0 0 360 162" fill="none" xmlns="http://www.w3.org/2000/svg">
<path fill-rule="evenodd" clip-rule="evenodd" d="M198.99 8.74235C194.48 8.76441 191.149 8.7807 189.585 8.7807C185.789 8.7807 183.293 10.0533 181.708 11.6183C180.126 13.1801 179.435 15.0494 179.28 16.2864C179.476 21.8053 179.428 37.3882 179.348 49.0605C179.441 51.5536 179.673 55.382 180.068 58.7721C180.266 60.4695 180.504 62.0498 180.784 63.2951C180.925 63.9181 181.074 64.4503 181.231 64.8683C181.364 65.2221 181.494 65.4706 181.614 65.6242C182.156 65.3519 182.887 65.0887 183.89 64.8441C187.13 64.0537 193.33 63.4299 205.511 63.4299H205.625H205.739H205.852H205.966H206.079H206.191H206.304H206.416H206.528H206.64H206.752H206.863H206.974H207.085H207.195H207.305H207.415H207.525H207.635H207.744H207.853H207.962H208.07H208.179H208.287H208.394H208.502H208.609H208.716H208.823H208.93H209.036H209.142H209.248H209.353H209.459H209.564H209.668H209.773H209.877H209.981H210.085H210.189H210.292H210.395H210.498H210.601H210.703H210.805H210.907H211.009H211.11H211.211H211.312H211.413H211.513H211.613H211.713H211.813H211.912H212.012H212.111H212.209H212.308H212.406H212.504H212.602H212.699H212.797H212.894H212.99H213.087H213.183H213.279H213.375H213.471H213.566H213.661H213.756H213.851H213.945H214.039H214.133H214.227H214.321H214.414H214.507H214.6H214.692H214.784H214.876H214.968H215.06H215.151H215.242H215.333H215.424H215.514H215.604H215.694H215.784H215.873H215.963H216.052H216.14H216.229H216.317H216.405H216.493H216.581H216.668H216.755H216.842H216.929H217.015H217.102H217.188H217.273H217.359H217.444H217.529H217.614H217.699H217.783H217.867H217.951H218.035H218.118H218.202H218.285H218.367H218.45H218.532H218.614H218.696H218.778H218.859H218.94H219.021H219.102H219.183H219.263H219.343H219.423H219.503H219.582H219.661H219.74H219.819H219.897H219.975H220.054H220.131H220.209H220.286H220.363H220.44H220.517H220.594H220.67H220.746H220.822H220.897H220.973H221.048H221.123H221.198H221.272H221.346H221.42H221.494H221.568H221.641H221.714H221.787H221.86H221.933H222.005H222.077H222.149H222.221H222.292H222.363H222.434H222.505H222.576H222.646H222.716H222.786H222.856H222.925H222.994H223.063H223.132H223.201H223.269H223.337H223.405H223.473H223.541H223.608H223.675H223.742H223.809H223.875H223.942H224.008H224.073H224.139H224.205H224.27H224.335H224.4H224.464H224.528H224.593H224.657H224.72H224.784H224.847H224.91H224.973H225.036H225.098H225.161H225.223H225.284H225.346H225.407H225.469H225.53H225.591H225.651H225.712H225.772H225.832H225.891H225.951H226.01H226.07H226.128H226.187H226.246H226.304H226.362H226.42H226.478H226.535H226.593H226.65H226.707H226.763H226.82H226.876H226.932H226.988H227.044H227.099H227.154H227.21H227.264H227.319H227.374H227.428H227.482H227.536H227.589H227.643H227.696H227.749H227.802H227.855H227.907H227.959H228.011H228.063H228.115H228.166H228.218H228.269H228.32H228.37H228.421H228.471H228.521H228.571H228.621H228.67H228.719H228.769H228.817H228.866H228.915H228.963H229.011H229.059H229.107H229.154H229.202H229.249H229.296H229.342H229.389H229.435H229.482H229.528H229.573H229.619H229.664H229.71H229.755H229.799H229.844H229.889H229.933H229.977H230.021H230.064H230.108H230.151H230.194H230.237H230.28H230.323H230.365H230.407H230.449H230.491H230.532H230.574H230.615H230.656H230.697H230.738H230.778H230.818H230.858H230.898H230.938H230.978H231.017H231.056H231.095H231.134H231.173H231.211H231.249H231.287H231.325H231.363H231.4H231.438H231.475H231.512H231.548H231.585H231.621H231.658H231.694H231.73H231.765H231.801H231.836H231.871H231.906H231.941H231.975H232.01H232.044H232.078H232.112H232.146H232.179H232.213H232.246H232.279H232.311H232.344H232.376H232.409H232.441H232.473H232.504H232.536H232.567H232.598H232.629H232.66H232.691H232.721H232.752H232.782H232.812H232.842H232.871H232.901H232.93H232.959H232.988H233.017H233.045H233.073H233.102H233.13H233.158H233.185H233.213H233.24H233.267H233.294H233.321H233.348H233.374H233.4H233.427H233.453H233.478H233.504H233.529H233.555H233.58H233.605H233.629H233.654H233.678H233.703H233.727H233.751H233.775H233.798H233.822H233.845H233.868H233.891H233.913H233.936H233.958H233.981H234.003H234.025H234.046H234.068H234.089H234.111H234.132H234.153H234.173H234.194H234.214H234.235H234.255H234.275H234.294H234.314H234.334H234.353H234.372H234.391H234.41H234.428H234.447H234.465H234.483H234.501H234.519H234.537H234.554H234.571H234.589H234.606H234.622H234.639H234.656H234.672H234.688H234.704H234.72H234.736H234.751H234.767H234.782H234.797H234.812H234.827H234.842H234.856H234.87H234.885H234.899H234.912H234.926H234.94H234.953H234.966H234.979H234.992H235.005H235.017H235.027C236.314 61.8016 239.065 57.9384 240.512 54.563C240.956 53.5254 241.13 52.2269 241.126 50.7786C241.121 49.3333 240.938 47.7607 240.685 46.1868C240.48 44.9069 240.23 43.6342 239.994 42.4324L239.993 42.431C239.939 42.155 239.885 41.8828 239.833 41.6152C239.556 40.1882 239.318 38.8825 239.238 37.8468C239.079 35.773 239.397 33.7804 239.877 32.3006C240.117 31.5617 240.4 30.9385 240.694 30.4929C240.84 30.2708 240.996 30.082 241.159 29.9454C241.319 29.8119 241.515 29.7035 241.735 29.7035C242 29.7035 242.494 29.767 243.098 29.8742C243.71 29.9829 244.459 30.1405 245.246 30.3374C246.807 30.7275 248.553 31.2798 249.686 31.9241C252.014 33.007 259.237 35.3383 266.297 37.3666C269.827 38.3807 273.306 39.3162 276.095 39.9783C277.49 40.3094 278.709 40.5713 279.675 40.7406C280.654 40.9123 281.335 40.9814 281.676 40.9473C282.819 40.833 285.273 40.9224 288.146 41.0519C288.677 41.0759 289.223 41.1012 289.779 41.127L289.782 41.1271C292.142 41.2367 294.683 41.3546 297.006 41.4073C296.952 38.7799 296.271 33.9734 295.298 29.2C294.282 24.2189 292.962 19.3435 291.737 17.047C290.751 15.1974 289.925 13.8151 288.95 12.7376C287.474 11.1074 285.628 10.1454 282.264 9.39783C281.596 9.24926 279.804 9.12248 277.118 9.01956C274.447 8.91724 270.926 8.83921 266.826 8.78067C258.626 8.6636 248.117 8.62456 237.481 8.62456C226.844 8.62456 216.081 8.66359 207.371 8.70263C204.288 8.71645 201.462 8.73027 198.99 8.74235ZM181.269 11.1738C179.963 12.464 179.219 13.954 178.87 15.1946C177.292 11.5629 175.072 9.77737 172.793 8.9181C170.647 8.10898 168.468 8.13314 166.824 8.15136C166.593 8.15393 166.372 8.15637 166.164 8.15637C165.622 8.15637 163.459 8.14857 160.157 8.13667C142.564 8.07327 92.6577 7.89342 83.7127 8.1565C79.4334 8.28237 76.1712 9.0431 73.8271 9.94958C71.6081 10.8077 70.1957 11.8028 69.5298 12.5269C64.1678 12.5183 52.5357 17.9306 46.572 39.3006C45.7747 42.1575 43.7442 43.8965 41.807 44.9664C40.8392 45.501 39.9005 45.8649 39.1621 46.1151C38.8085 46.2349 38.5019 46.3282 38.2581 46.4025L38.2262 46.4122L38.2047 46.4187C38.0029 46.4802 37.8198 46.5359 37.7091 46.5849C33.1239 47.8361 26.2436 49.8961 20.4709 52.0199C17.5808 53.0832 14.9582 54.1661 13.0383 55.1749C12.0796 55.6787 11.2837 56.1704 10.7153 56.6391C10.4309 56.8736 10.195 57.1091 10.0237 57.345C9.85317 57.5798 9.73445 57.8318 9.71248 58.0954C9.67902 58.497 9.46452 59.0043 9.11207 59.7564C9.06785 59.8508 9.02182 59.9483 8.9742 60.0493C8.65157 60.733 8.25646 61.5704 7.86293 62.6069C6.95726 64.9923 6.06207 68.4246 6.00308 73.5757C5.88524 83.8678 9.10588 101.013 22.2298 130.386L22.2533 130.438L22.2941 130.479C22.4374 130.622 22.645 130.732 22.8731 130.82C23.1072 130.911 23.3921 130.992 23.7151 131.063C24.3615 131.205 25.1885 131.318 26.1264 131.404C27.4996 131.529 29.1271 131.6 30.8058 131.621C29.8197 134.968 27.9906 141.702 27.5132 145.521C27.0132 149.522 26.6797 152.814 26.5753 153.963L26.5443 154.304H26.8863H29.6968H29.859L29.9523 154.171C32.636 150.352 38.2567 140.229 40.8199 131.046C40.9159 131.026 41.007 131.005 41.0929 130.984C41.357 130.92 41.5861 130.847 41.7607 130.762C41.8479 130.72 41.933 130.669 42.0039 130.607C42.0737 130.546 42.1487 130.456 42.1793 130.334C42.1829 130.319 42.1862 130.304 42.1892 130.289C43.0309 130.655 44.4045 130.974 46.2192 131.257C48.1452 131.557 50.6008 131.821 53.5127 132.054C59.337 132.52 67.004 132.861 75.9451 133.103C93.8281 133.586 116.824 133.674 140.402 133.576C168.203 133.461 196.805 133.088 218.804 132.802C234.13 132.602 246.251 132.444 252.665 132.444C260.238 132.444 267.856 132.499 275.079 132.551L275.081 132.551H275.082L275.084 132.552C282.738 132.607 289.948 132.659 296.19 132.639C302.261 132.62 307.431 132.532 311.221 132.312C313.116 132.202 314.674 132.058 315.83 131.872C316.408 131.779 316.894 131.674 317.275 131.555C317.445 131.501 317.604 131.442 317.744 131.375C318.649 134.615 320.176 139.414 321.96 143.788C322.891 146.07 323.894 148.242 324.919 150.021C325.938 151.789 327 153.207 328.06 153.936L328.14 153.991H328.237H331.36H331.701L331.671 153.652C331.359 150.058 330.827 144.651 330.249 140.11C329.96 137.84 329.658 135.781 329.366 134.271C329.219 133.517 329.074 132.891 328.93 132.441C328.895 132.33 328.858 132.226 328.821 132.132H328.83H328.844H328.858H328.872H328.887H328.901H328.915H328.93H328.944H328.959H328.973H328.988H329.003H329.017H329.032H329.047H329.062H329.077H329.092H329.107H329.122H329.137H329.152H329.167H329.182H329.198H329.213H329.228H329.244H329.259H329.275H329.29H329.306H329.321H329.337H329.353H329.368H329.384H329.4H329.416H329.432H329.448H329.464H329.48H329.496H329.512H329.528H329.544H329.561H329.577H329.593H329.61H329.626H329.643H329.659H329.676H329.692H329.709H329.725H329.742H329.759H329.775H329.792H329.809H329.826H329.843H329.86H329.877H329.894H329.911H329.928H329.945H329.962H329.979H329.996H330.014H330.031H330.048H330.066H330.083H330.1H330.118H330.135H330.153H330.17H330.188H330.206H330.223H330.241H330.259H330.276H330.294H330.312H330.33H330.348H330.365H330.383H330.401H330.419H330.437H330.455H330.473H330.492H330.51H330.528H330.546H330.564H330.582H330.601H330.619H330.637H330.656H330.674H330.692H330.711H330.729H330.748H330.766H330.785H330.803H330.822H330.841H330.859H330.878H330.897H330.915H330.934H330.953H330.971H330.99H331.009H331.028H331.047H331.066H331.085H331.103H331.122H331.141H331.16H331.179H331.198H331.217H331.237H331.256H331.275H331.294H331.313H331.332H331.351H331.371H331.39H331.409H331.428H331.448H331.467H331.486H331.506H331.525H331.544H331.564H331.583H331.603H331.622H331.642H331.661H331.68H331.7H331.719H331.739H331.759H331.778H331.798H331.817H331.837H331.857H331.876H331.896H331.915H331.935H331.955H331.975H331.994H332.014H332.034H332.053H332.073H332.093H332.113H332.133H332.152H332.172H332.192H332.212H332.232H332.251H332.271H332.291H332.311H332.331H332.351H332.371H332.391H332.411H332.43H332.45H332.47H332.49H332.51H332.53H332.55H332.57H332.59H332.61H332.63H332.65H332.67H332.69H332.71H332.73H332.75H332.77H332.79H332.81H332.83H332.85H332.87H332.89H332.91H332.93H332.951H332.971H332.991H333.011H333.031H333.051H333.071H333.091H333.111H333.131H333.151H333.171H333.191H333.211H333.231H333.251H333.271H333.291H333.312H333.332H333.352H333.372H333.392H333.412H333.432H333.452H333.472H333.492H333.512H333.532H333.552H333.572H333.592H333.612H333.632H333.652H333.672H333.692H333.712H333.732H333.752H333.772H333.792H333.812H333.832H333.852H333.872H333.891H333.911H333.931H333.951H333.971H333.991H334.011H334.031H334.05H334.07H334.09H334.11H334.13H334.15H334.169H334.189H334.209H334.229H334.248H334.268H334.288H334.308H334.327H334.347H334.367H334.386H334.406H334.426H334.445H334.465H334.484H334.504H334.523H334.543H334.562H334.582H334.602H334.621H334.64H334.66H334.679H334.699H334.718H334.738H334.757H334.776H334.796H334.815H334.834H334.854H334.873H334.892H334.911H334.931H334.95H334.969H334.988H335.007H335.026H335.045H335.064H335.083H335.103H335.122H335.141H335.16H335.178H335.197H335.216H335.235H335.254H335.273H335.292H335.31H335.329H335.348H335.367H335.385H335.404H335.423H335.441H335.46H335.479H335.497H335.516H335.534H335.553H335.571H335.589H335.608H335.626H335.645H335.663H335.681H335.699H335.718H335.736H335.754H335.772H335.79H335.808H335.826H335.845H335.863H335.88H335.898H335.916H335.934H335.952H335.97H335.988H336.005H336.023H336.041H336.059H336.076H336.094H336.111H336.129H336.146H336.164H336.181H336.199H336.216H336.234H336.251H336.268H336.285H336.303H336.32H336.337H336.354H336.371H336.388H336.405H336.422H336.439H336.456H336.473H336.49H336.506H336.523H336.54H336.556H336.573H336.59H336.606H336.623H336.639H336.656H336.672H336.688H336.705H336.721H336.737H336.753H336.77H336.786H336.802H336.818H336.834H336.85H336.866H336.881H336.897H336.913H336.929H336.945H336.96H336.976H336.991H337.007H337.022H337.038H337.053H337.069H337.084H337.099H337.114H337.13H337.145H337.16H337.175H337.19H337.205H337.22H337.234H337.249H337.264H337.279H337.293C337.508 132.132 337.696 132.009 337.843 131.882C338 131.746 338.164 131.555 338.334 131.324C338.675 130.861 339.07 130.191 339.507 129.349C340.381 127.663 341.442 125.248 342.59 122.321C344.888 116.464 347.546 108.529 349.774 100.204C352.001 91.8801 353.802 83.1546 354.38 75.7208C354.669 72.0042 354.653 68.5999 354.228 65.725C353.815 62.9364 353.012 60.6157 351.7 58.9957C351.752 58.7532 351.675 58.5126 351.537 58.3032C351.365 58.0414 351.076 57.7845 350.718 57.532C349.995 57.0232 348.886 56.4628 347.523 55.8684C344.793 54.6771 340.965 53.3167 336.966 51.9317C336.164 51.6539 335.355 51.375 334.546 51.0962C331.316 49.9831 328.089 48.8713 325.327 47.831C323.6 47.1807 322.06 46.5604 320.818 45.9874C319.567 45.4106 318.646 44.8938 318.135 44.456C317.094 43.5639 316.084 42.0119 315.048 40.0206C314.085 38.1721 313.117 35.9799 312.087 33.6491L311.86 33.1337C309.637 28.1058 307.119 22.5165 303.806 18.5728C298.59 12.3627 292.105 11.7068 289.294 12.1896C287.72 10.5077 285.75 9.53257 282.4 8.78814C281.663 8.62443 279.805 8.49748 277.142 8.39546C274.464 8.29285 270.937 8.21474 266.835 8.15617C258.63 8.03903 248.118 8 237.481 8C226.843 8 216.078 8.03904 207.369 8.07807C204.283 8.0919 201.456 8.10573 198.984 8.11782C194.476 8.13986 191.147 8.15614 189.585 8.15614C185.636 8.15614 182.979 9.48585 181.269 11.1738ZM44.7227 104.817C43.1155 107.853 40.5798 115.479 41.1975 124.751C41.1619 124.536 41.1267 124.313 41.0921 124.083C40.5495 120.478 40.1598 115.118 40.9378 107.493C41.3913 103.05 39.8152 100.434 37.7779 97.0527C37.6241 96.7974 37.4677 96.5378 37.3093 96.2728C35.0573 92.5033 32.3406 87.5338 30.9431 78.0617L30.9417 78.0518L30.9395 78.0419C30.9218 77.959 30.9012 77.8723 30.878 77.7819L30.9467 77.7783C30.8977 76.8484 31.1808 75.6049 32.1356 74.8283C33.0773 74.0625 34.7708 73.6733 37.7185 74.6559C41.52 75.923 46.2147 76.0129 49.6648 74.3279C51.3971 73.4819 52.8222 72.1843 53.6475 70.3604C54.4722 68.5378 54.6839 66.2216 54.0484 63.362C52.7971 57.7312 51.7753 54.9686 50.9767 53.4114C50.5753 52.6286 50.2323 52.1544 49.9537 51.7812L49.9038 51.7145C49.6513 51.3769 49.4789 51.1464 49.3493 50.8225C49.2754 50.6377 49.3417 50.2906 49.853 49.9873C50.3491 49.6929 51.2075 49.498 52.4477 49.6859C54.8773 50.054 58.6931 51.8834 63.821 57.0788C66.8745 61.7624 70.18 63.8242 72.9344 64.6719C73.4558 64.8324 73.9564 64.9489 74.4303 65.0315C72.3797 65.4306 70.0886 66.0138 67.9877 66.8891C66.0993 67.676 59.4518 70.883 53.2774 74.361C50.19 76.1001 47.2108 77.9126 45.0002 79.5288C43.8959 80.3361 42.9733 81.1017 42.3236 81.791C41.9987 82.1357 41.735 82.4687 41.551 82.785C41.3801 83.0788 41.2668 83.3772 41.2531 83.6691C40.4654 85.8447 39.7053 89.4698 39.9485 93.3737C40.1923 97.288 41.4472 101.509 44.7249 104.818L44.7227 104.817ZM45.2747 105.109L45.0158 104.972C48.262 105.594 54.1642 105.98 61.3688 106.217C68.639 106.456 77.2598 106.544 85.868 106.564C93.5822 106.581 101.283 106.544 107.997 106.511C116.274 106.471 123.05 106.438 126.496 106.525C127.258 106.544 128.101 106.566 129.014 106.591H129.014H129.014H129.014C135.582 106.766 145.755 107.038 155.086 106.798C160.399 106.661 165.449 106.358 169.41 105.775C171.39 105.483 173.109 105.12 174.456 104.668C175.789 104.221 176.815 103.67 177.344 102.965C177.853 102.286 178.25 101.198 178.565 99.857C178.772 98.9751 178.947 97.9675 179.093 96.8665C179.059 98.2614 179.138 99.4102 179.283 100.343C179.429 101.284 179.644 102.011 179.882 102.548C180.106 103.056 180.361 103.417 180.618 103.624C180.693 103.711 180.794 103.766 180.871 103.802C180.976 103.851 181.107 103.895 181.256 103.936C181.554 104.018 181.96 104.097 182.463 104.174C183.469 104.328 184.894 104.479 186.673 104.625C190.235 104.918 195.242 105.195 201.228 105.446C213.201 105.949 229.102 106.349 245.205 106.564C261.309 106.778 277.62 106.808 290.413 106.569C296.809 106.449 302.33 106.262 306.507 105.998C308.595 105.865 310.351 105.714 311.714 105.54C312.988 105.378 313.951 105.195 314.52 104.978C315.049 105.123 315.543 105.499 316 106.101C316.484 106.738 316.909 107.605 317.275 108.649C318.008 110.736 318.484 113.471 318.741 116.319C318.979 118.953 319.029 121.67 318.925 124.038C318.63 126.668 318.287 128.796 318.009 130.165C317.903 130.413 317.8 130.573 317.711 130.662C317.631 130.742 317.441 130.848 317.088 130.959C316.748 131.066 316.294 131.165 315.731 131.256C314.606 131.437 313.072 131.579 311.185 131.688C307.413 131.907 302.258 131.995 296.188 132.015C289.941 132.035 282.74 131.982 275.093 131.927C267.872 131.875 260.255 131.819 252.665 131.819C246.257 131.819 234.131 131.977 218.801 132.177H218.8H218.799C196.793 132.464 168.182 132.836 140.399 132.951C116.823 133.049 93.835 132.961 75.9619 132.478C67.0249 132.237 59.3706 131.897 53.5625 131.432C50.6581 131.199 48.2197 130.936 46.3154 130.639C44.5176 130.359 43.2242 130.053 42.464 129.728C40.2911 118.382 43.438 108.579 45.2747 105.109ZM179.596 91.7978C179.568 91.9663 179.542 92.1327 179.518 92.297C179.702 89.2886 179.754 85.9742 179.709 82.748C179.65 78.5057 179.426 74.4075 179.117 71.3472C178.963 69.8183 178.787 68.541 178.599 67.6319C178.506 67.1792 178.406 66.8054 178.301 66.534C178.248 66.3993 178.189 66.2758 178.119 66.1776C178.065 66.1015 177.978 66.0029 177.85 65.9546C177.837 65.9387 177.824 65.9228 177.811 65.9071C178.084 65.4996 178.301 64.964 178.476 64.3748C178.687 63.665 178.846 62.8464 178.964 62.0141C179.201 60.3507 179.28 58.6041 179.28 57.4997L179.282 57.3013C179.334 57.8214 179.389 58.3377 179.448 58.8444C179.647 60.5509 179.888 62.1559 180.175 63.4322C180.319 64.07 180.475 64.6328 180.646 65.0882C180.771 65.4198 180.91 65.7139 181.071 65.94C180.975 66.0051 180.888 66.0705 180.808 66.136C180.323 66.5357 180.134 66.9349 179.997 67.2249C179.976 67.2692 179.956 67.3111 179.937 67.3499C179.873 67.4785 179.839 67.6492 179.817 67.8242C179.794 68.0082 179.781 68.2328 179.775 68.4906C179.763 69.0066 179.78 69.6796 179.811 70.4736C179.841 71.2147 179.885 72.0671 179.932 73.0033L179.943 73.2089C179.995 74.2268 180.051 75.3404 180.099 76.5196C180.294 81.2413 180.371 86.9911 179.596 91.7978ZM297.631 41.4199C299.882 41.4597 301.869 41.4288 303.216 41.2604C304.477 41.1028 305.444 41.08 306.175 41.1778C306.904 41.2754 307.435 41.4979 307.777 41.8647C308.125 42.2373 308.233 42.7093 308.222 43.202C308.211 43.6888 308.084 44.229 307.927 44.7789C307.651 45.746 307.137 46.4899 306.462 47.4693C306.331 47.6592 306.193 47.858 306.051 48.0689C305.162 49.3825 304.001 51.2389 302.605 54.4968C300.048 60.4622 301.434 65.9073 303.383 70.3827C310.007 73.6541 314.864 76.9267 318.113 79.6638C319.745 81.039 320.975 82.2826 321.82 83.3267C322.654 84.3563 323.147 85.233 323.238 85.8699C323.294 86.2647 323.321 86.6763 323.311 87.1561C325.737 81.2335 329.585 73.5515 334.148 67.5732C336.707 64.2209 339.506 61.3835 342.424 59.6999C345.188 58.1051 348.079 57.536 350.961 58.5715C350.843 58.4225 350.646 58.2453 350.358 58.0428C349.689 57.5722 348.629 57.0323 347.274 56.4409C344.569 55.2609 340.765 53.9083 336.762 52.5219C335.962 52.2448 335.154 51.9665 334.346 51.688L334.346 51.6879C331.115 50.5747 327.878 49.4591 325.107 48.4155C323.374 47.763 321.818 47.1366 320.556 46.5545C319.302 45.9761 318.311 45.4292 317.729 44.9302C316.59 43.9542 315.534 42.3081 314.494 40.309C313.522 38.442 312.546 36.2319 311.519 33.9076L311.288 33.3862C309.058 28.3401 306.573 22.8378 303.328 18.9745C298.501 13.2276 292.585 12.4223 289.784 12.7501C290.655 13.8164 291.421 15.1264 292.288 16.753C293.562 19.1407 294.896 24.1022 295.91 29.0752C296.887 33.867 297.58 38.7341 297.631 41.4199ZM351.155 59.3165C348.357 58.1525 345.521 58.634 342.736 60.2408C339.921 61.8654 337.18 64.6296 334.644 67.9522C329.582 74.5835 325.395 83.3568 323.084 89.429C322.687 92.0259 321.725 96.3429 319.868 104.671C320.522 111.772 320.13 118.892 319.548 124.087C319.544 124.197 319.538 124.306 319.533 124.414C319.529 124.488 319.525 124.562 319.521 124.635C319.382 127.145 319.066 129.255 318.597 130.378C318.538 130.519 318.474 130.651 318.404 130.769C319.011 131.041 319.763 131.221 320.594 131.334C321.575 131.468 322.642 131.507 323.67 131.507C324.43 131.507 325.16 131.486 325.817 131.467C326.051 131.46 326.275 131.454 326.488 131.449C326.891 131.439 327.255 131.434 327.559 131.441C327.836 131.448 328.085 131.466 328.273 131.507H328.284H328.296H328.308H328.32H328.332H328.344H328.356H328.368H328.381H328.393H328.405H328.418H328.43H328.443H328.455H328.468H328.481H328.493H328.506H328.519H328.532H328.545H328.558H328.571H328.584H328.598H328.611H328.624H328.637H328.651H328.664H328.678H328.691H328.705H328.719H328.732H328.746H328.76H328.774H328.788H328.802H328.816H328.83H328.844H328.858H328.872H328.887H328.901H328.915H328.93H328.944H328.959H328.973H328.988H329.003H329.017H329.032H329.047H329.062H329.077H329.092H329.107H329.122H329.137H329.152H329.167H329.182H329.198H329.213H329.228H329.244H329.259H329.275H329.29H329.306H329.321H329.337H329.353H329.368H329.384H329.4H329.416H329.432H329.448H329.464H329.48H329.496H329.512H329.528H329.544H329.561H329.577H329.593H329.61H329.626H329.643H329.659H329.676H329.692H329.709H329.725H329.742H329.759H329.775H329.792H329.809H329.826H329.843H329.86H329.877H329.894H329.911H329.928H329.945H329.962H329.979H329.996H330.014H330.031H330.048H330.066H330.083H330.1H330.118H330.135H330.153H330.17H330.188H330.206H330.223H330.241H330.259H330.276H330.294H330.312H330.33H330.348H330.365H330.383H330.401H330.419H330.437H330.455H330.473H330.492H330.51H330.528H330.546H330.564H330.582H330.601H330.619H330.637H330.656H330.674H330.692H330.711H330.729H330.748H330.766H330.785H330.803H330.822H330.841H330.859H330.878H330.897H330.915H330.934H330.953H330.971H330.99H331.009H331.028H331.047H331.066H331.085H331.103H331.122H331.141H331.16H331.179H331.198H331.217H331.237H331.256H331.275H331.294H331.313H331.332H331.351H331.371H331.39H331.409H331.428H331.448H331.467H331.486H331.506H331.525H331.544H331.564H331.583H331.603H331.622H331.642H331.661H331.68H331.7H331.719H331.739H331.759H331.778H331.798H331.817H331.837H331.857H331.876H331.896H331.915H331.935H331.955H331.975H331.994H332.014H332.034H332.053H332.073H332.093H332.113H332.133H332.152H332.172H332.192H332.212H332.232H332.251H332.271H332.291H332.311H332.331H332.351H332.371H332.391H332.411H332.43H332.45H332.47H332.49H332.51H332.53H332.55H332.57H332.59H332.61H332.63H332.65H332.67H332.69H332.71H332.73H332.75H332.77H332.79H332.81H332.83H332.85H332.87H332.89H332.91H332.93H332.951H332.971H332.991H333.011H333.031H333.051H333.071H333.091H333.111H333.131H333.151H333.171H333.191H333.211H333.231H333.251H333.271H333.291H333.312H333.332H333.352H333.372H333.392H333.412H333.432H333.452H333.472H333.492H333.512H333.532H333.552H333.572H333.592H333.612H333.632H333.652H333.672H333.692H333.712H333.732H333.752H333.772H333.792H333.812H333.832H333.852H333.872H333.891H333.911H333.931H333.951H333.971H333.991H334.011H334.031H334.05H334.07H334.09H334.11H334.13H334.15H334.169H334.189H334.209H334.229H334.248H334.268H334.288H334.308H334.327H334.347H334.367H334.386H334.406H334.426H334.445H334.465H334.484H334.504H334.523H334.543H334.562H334.582H334.602H334.621H334.64H334.66H334.679H334.699H334.718H334.738H334.757H334.776H334.796H334.815H334.834H334.854H334.873H334.892H334.911H334.931H334.95H334.969H334.988H335.007H335.026H335.045H335.064H335.083H335.103H335.122H335.141H335.16H335.178H335.197H335.216H335.235H335.254H335.273H335.292H335.31H335.329H335.348H335.367H335.385H335.404H335.423H335.441H335.46H335.479H335.497H335.516H335.534H335.553H335.571H335.589H335.608H335.626H335.645H335.663H335.681H335.699H335.718H335.736H335.754H335.772H335.79H335.808H335.826H335.845H335.863H335.88H335.898H335.916H335.934H335.952H335.97H335.988H336.005H336.023H336.041H336.059H336.076H336.094H336.111H336.129H336.146H336.164H336.181H336.199H336.216H336.234H336.251H336.268H336.285H336.303H336.32H336.337H336.354H336.371H336.388H336.405H336.422H336.439H336.456H336.473H336.49H336.506H336.523H336.54H336.556H336.573H336.59H336.606H336.623H336.639H336.656H336.672H336.688H336.705H336.721H336.737H336.753H336.77H336.786H336.802H336.818H336.834H336.85H336.866H336.881H336.897H336.913H336.929H336.945H336.96H336.976H336.991H337.007H337.022H337.038H337.053H337.069H337.084H337.099H337.114H337.13H337.145H337.16H337.175H337.19H337.205H337.22H337.234H337.249H337.264H337.279L337.289 131.507C337.289 131.506 337.334 131.496 337.434 131.41C337.541 131.317 337.674 131.168 337.831 130.954C338.143 130.529 338.521 129.892 338.952 129.061C339.812 127.403 340.864 125.011 342.009 122.093C344.298 116.259 346.949 108.346 349.171 100.042C351.393 91.7367 353.184 83.0525 353.757 75.6724C354.044 71.9822 354.026 68.6285 353.61 65.8165C353.198 63.0346 352.401 60.8139 351.155 59.3165ZM318.414 131.45C319.041 131.693 319.761 131.851 320.51 131.953C321.53 132.093 322.629 132.132 323.67 132.132C324.438 132.132 325.182 132.11 325.84 132.091L325.841 132.091L325.842 132.091C326.074 132.084 326.295 132.078 326.503 132.073C326.905 132.063 327.256 132.059 327.543 132.066C327.803 132.072 327.993 132.088 328.116 132.112L328.12 132.117C328.129 132.13 328.141 132.15 328.156 132.176C328.208 132.272 328.269 132.422 328.335 132.631C328.467 133.045 328.608 133.643 328.752 134.39C329.041 135.879 329.341 137.923 329.629 140.189C330.188 144.579 330.704 149.783 331.019 153.367H328.336C327.421 152.704 326.444 151.416 325.46 149.709C324.455 147.964 323.463 145.82 322.538 143.552C320.809 139.313 319.321 134.666 318.414 131.45ZM319.457 117.44C319.652 113.49 319.65 109.079 319.242 104.68L319.238 104.631L319.248 104.583C321.123 96.1739 322.081 91.8732 322.471 89.3022C322.719 87.6744 322.735 86.7647 322.619 85.9582C322.554 85.5021 322.16 84.7393 321.335 83.7196C320.521 82.7143 319.321 81.4987 317.711 80.1414C314.618 77.5355 310.026 74.4206 303.787 71.282L303.85 71.4172C304.174 72.1105 304.425 72.7135 304.612 73.2352L304.66 73.1517C306.853 74.405 310.159 76.4574 312.951 78.5439C314.347 79.5866 315.623 80.6441 316.568 81.6195C317.041 82.1071 317.437 82.5806 317.726 83.0271C318.002 83.4555 318.193 83.8808 318.24 84.2843C319.544 87.8373 319.973 90.8567 319.865 93.4219C319.624 99.1361 316.716 102.538 315.036 104.5C315.591 104.74 316.076 105.169 316.498 105.724C317.035 106.431 317.486 107.364 317.865 108.442C318.621 110.598 319.103 113.39 319.363 116.263C319.398 116.654 319.43 117.047 319.457 117.44ZM317.757 84.7856C317.515 84.8756 317.211 84.9467 316.868 85.0065C316.309 85.1041 315.589 85.1802 314.733 85.2382C313.018 85.3542 310.73 85.3993 308.032 85.392C302.634 85.3773 295.573 85.1527 288.137 84.8599C283.638 84.6828 279.003 84.4808 274.513 84.2852L274.508 84.2849C264.147 83.8335 254.563 83.4158 249.231 83.4158C243.927 83.4158 235.168 83.7539 225.748 84.1175L225.747 84.1175C221.591 84.2779 217.307 84.4432 213.134 84.5867C206.322 84.8209 199.809 84.9968 194.645 84.9968C192.064 84.9968 189.816 84.9528 188.036 84.8499C186.268 84.7476 184.925 84.5858 184.178 84.3367L184.133 84.3218L184.095 84.2945C183.144 83.6151 182.406 82.3524 181.831 80.8642C181.386 79.7111 181.028 78.3932 180.745 77.042C180.923 81.6624 180.968 87.2101 180.212 91.8972C179.591 95.7473 179.62 98.4454 179.9 100.247C180.04 101.147 180.242 101.819 180.453 102.296C180.667 102.779 180.88 103.041 181.028 103.152L181.075 103.187L181.091 103.213C181.099 103.217 181.113 103.225 181.135 103.236C181.196 103.264 181.289 103.297 181.421 103.334C181.685 103.406 182.064 103.481 182.557 103.557C183.542 103.707 184.949 103.857 186.725 104.002C190.274 104.294 195.271 104.571 201.255 104.822C213.22 105.324 229.114 105.724 245.214 105.939C261.314 106.154 277.617 106.183 290.402 105.944C296.794 105.825 302.304 105.638 306.467 105.374C308.549 105.243 310.29 105.092 311.636 104.921C312.931 104.756 313.827 104.576 314.308 104.39L314.36 104.329C314.396 104.287 314.433 104.244 314.47 104.201L314.552 104.105C316.221 102.154 319.009 98.895 319.241 93.3956C319.342 90.9909 318.955 88.1467 317.757 84.7856ZM180.521 67.5776C180.38 68.8254 180.519 72.2573 181.126 75.711C181.432 77.4565 181.855 79.1915 182.414 80.6392C182.968 82.0749 183.639 83.1809 184.42 83.7587C185.09 83.9705 186.336 84.1259 188.072 84.2263C189.835 84.3283 192.069 84.3722 194.645 84.3722C199.797 84.3722 206.302 84.1967 213.113 83.9625C217.275 83.8194 221.553 83.6543 225.705 83.4941L225.705 83.494C235.133 83.1302 243.914 82.7913 249.231 82.7913C254.577 82.7913 264.185 83.2099 274.555 83.6618L274.556 83.6618L274.562 83.6621C279.047 83.8575 283.675 84.0592 288.161 84.2358C295.597 84.5286 302.648 84.7528 308.033 84.7674C310.727 84.7747 312.998 84.7296 314.691 84.6151C315.537 84.5577 316.233 84.4835 316.761 84.3913C317.145 84.3242 317.415 84.2515 317.587 84.1821C317.528 83.9492 317.402 83.6766 317.201 83.3659C316.943 82.9658 316.576 82.5249 316.12 82.0542C315.207 81.113 313.961 80.0782 312.578 79.0443C310.017 77.1311 307.014 75.2422 304.853 73.9845C304.876 74.0644 304.896 74.1418 304.914 74.2167C305.083 74.9026 305.107 75.4378 304.947 75.81C304.862 76.0079 304.725 76.16 304.541 76.2511C304.363 76.3393 304.166 76.3577 303.976 76.3393C303.611 76.304 303.2 76.1251 302.802 75.889C293.629 72.1288 284.292 70.5035 276.353 69.1217C273.79 68.6754 271.372 68.2546 269.153 67.7954C264.653 66.8643 257.104 66.3183 250.35 66.045C246.977 65.9085 243.809 65.8403 241.329 65.8257C238.838 65.811 237.065 65.8508 236.465 65.9258C235.938 65.9917 235.52 65.9557 235.204 65.8168C234.873 65.6713 234.678 65.4223 234.596 65.1303C234.518 64.8533 234.548 64.5582 234.613 64.3003C234.635 64.2168 234.661 64.1344 234.69 64.0545H234.688H234.672H234.656H234.639H234.622H234.606H234.589H234.571H234.554H234.537H234.519H234.501H234.483H234.465H234.447H234.428H234.41H234.391H234.372H234.353H234.334H234.314H234.294H234.275H234.255H234.235H234.214H234.194H234.173H234.153H234.132H234.111H234.089H234.068H234.046H234.025H234.003H233.981H233.958H233.936H233.913H233.891H233.868H233.845H233.822H233.798H233.775H233.751H233.727H233.703H233.678H233.654H233.629H233.605H233.58H233.555H233.529H233.504H233.478H233.453H233.427H233.4H233.374H233.348H233.321H233.294H233.267H233.24H233.213H233.185H233.158H233.13H233.102H233.073H233.045H233.017H232.988H232.959H232.93H232.901H232.871H232.842H232.812H232.782H232.752H232.721H232.691H232.66H232.629H232.598H232.567H232.536H232.504H232.473H232.441H232.409H232.376H232.344H232.311H232.279H232.246H232.213H232.179H232.146H232.112H232.078H232.044H232.01H231.975H231.941H231.906H231.871H231.836H231.801H231.765H231.73H231.694H231.658H231.621H231.585H231.548H231.512H231.475H231.438H231.4H231.363H231.325H231.287H231.249H231.211H231.173H231.134H231.095H231.056H231.017H230.978H230.938H230.898H230.858H230.818H230.778H230.738H230.697H230.656H230.615H230.574H230.532H230.491H230.449H230.407H230.365H230.323H230.28H230.237H230.194H230.151H230.108H230.064H230.021H229.977H229.933H229.889H229.844H229.799H229.755H229.71H229.664H229.619H229.573H229.528H229.482H229.435H229.389H229.342H229.296H229.249H229.202H229.154H229.107H229.059H229.011H228.963H228.915H228.866H228.817H228.769H228.719H228.67H228.621H228.571H228.521H228.471H228.421H228.37H228.32H228.269H228.218H228.166H228.115H228.063H228.011H227.959H227.907H227.855H227.802H227.749H227.696H227.643H227.589H227.536H227.482H227.428H227.374H227.319H227.264H227.21H227.154H227.099H227.044H226.988H226.932H226.876H226.82H226.763H226.707H226.65H226.593H226.535H226.478H226.42H226.362H226.304H226.246H226.187H226.128H226.07H226.01H225.951H225.891H225.832H225.772H225.712H225.651H225.591H225.53H225.469H225.407H225.346H225.284H225.223H225.161H225.098H225.036H224.973H224.91H224.847H224.784H224.72H224.657H224.593H224.528H224.464H224.4H224.335H224.27H224.205H224.139H224.073H224.008H223.942H223.875H223.809H223.742H223.675H223.608H223.541H223.473H223.405H223.337H223.269H223.201H223.132H223.063H222.994H222.925H222.856H222.786H222.716H222.646H222.576H222.505H222.434H222.363H222.292H222.221H222.149H222.077H222.005H221.933H221.86H221.787H221.714H221.641H221.568H221.494H221.42H221.346H221.272H221.198H221.123H221.048H220.973H220.897H220.822H220.746H220.67H220.594H220.517H220.44H220.363H220.286H220.209H220.131H220.054H219.975H219.897H219.819H219.74H219.661H219.582H219.503H219.423H219.343H219.263H219.183H219.102H219.021H218.94H218.859H218.778H218.696H218.614H218.532H218.45H218.367H218.285H218.202H218.118H218.035H217.951H217.867H217.783H217.699H217.614H217.529H217.444H217.359H217.273H217.188H217.102H217.015H216.929H216.842H216.755H216.668H216.581H216.493H216.405H216.317H216.229H216.14H216.052H215.963H215.873H215.784H215.694H215.604H215.514H215.424H215.333H215.242H215.151H215.06H214.968H214.876H214.784H214.692H214.6H214.507H214.414H214.321H214.227H214.133H214.039H213.945H213.851H213.756H213.661H213.566H213.471H213.375H213.279H213.183H213.087H212.99H212.894H212.797H212.699H212.602H212.504H212.406H212.308H212.209H212.111H212.012H211.912H211.813H211.713H211.613H211.513H211.413H211.312H211.211H211.11H211.009H210.907H210.805H210.703H210.601H210.498H210.395H210.292H210.189H210.085H209.981H209.877H209.773H209.668H209.564H209.459H209.353H209.248H209.142H209.036H208.93H208.823H208.716H208.609H208.502H208.394H208.287H208.179H208.07H207.962H207.853H207.744H207.635H207.525H207.415H207.305H207.195H207.085H206.974H206.863H206.752H206.64H206.528H206.416H206.304H206.191H206.079H205.966H205.852H205.739H205.625H205.511C193.334 64.0545 187.199 64.6798 184.038 65.4509C182.458 65.8362 181.651 66.2511 181.205 66.6181C180.833 66.9249 180.7 67.2037 180.565 67.4854L180.565 67.4856C180.553 67.5104 180.541 67.5352 180.529 67.5601C180.527 67.566 180.524 67.5718 180.521 67.5776ZM235.437 63.9176C235.349 64.0762 235.267 64.2657 235.219 64.4548C235.167 64.6555 235.16 64.8301 235.197 64.9617C235.23 65.0782 235.3 65.1767 235.456 65.2451C235.626 65.3203 235.916 65.365 236.388 65.306C237.037 65.2249 238.856 65.1866 241.332 65.2012C243.82 65.2158 246.995 65.2842 250.375 65.421C257.127 65.6942 264.723 66.2411 269.279 67.1838C271.467 67.6363 273.862 68.0532 276.41 68.4967L276.411 68.4968L276.412 68.497C284.367 69.8813 293.811 71.5249 303.061 75.32L303.083 75.3289L303.103 75.3411C303.48 75.5673 303.803 75.6951 304.036 75.7177C304.149 75.7286 304.221 75.7129 304.264 75.6912C304.302 75.6725 304.341 75.6392 304.373 75.5639C304.448 75.3896 304.471 75.027 304.308 74.3661C304.149 73.7206 303.826 72.8433 303.284 71.6813C303.14 71.3723 302.997 71.0578 302.857 70.7378C300.855 66.1773 299.355 60.4952 302.031 54.2508C303.445 50.9508 304.626 49.0598 305.533 47.719C305.685 47.4952 305.827 47.2887 305.96 47.0951L305.961 47.0938C306.635 46.1153 307.081 45.468 307.326 44.6073C307.482 44.0642 307.589 43.5895 307.598 43.1883C307.606 42.7929 307.519 42.5037 307.32 42.2908C307.116 42.072 306.749 41.8847 306.092 41.7969C305.437 41.7092 304.531 41.7255 303.294 41.8801C301.837 42.0623 299.692 42.0866 297.315 42.0386C294.897 41.9898 292.219 41.8655 289.748 41.7508L289.747 41.7508L289.747 41.7508C289.192 41.725 288.647 41.6997 288.118 41.6758C285.22 41.5453 282.824 41.4602 281.738 41.5687C281.299 41.6127 280.536 41.5256 279.567 41.3558C278.584 41.1835 277.352 40.9184 275.951 40.5859C273.148 39.9208 269.66 38.9825 266.124 37.9669C259.065 35.9388 251.779 33.5901 249.41 32.4847L249.399 32.4793L249.388 32.4729C248.334 31.8709 246.652 31.3326 245.095 30.9433C244.321 30.7498 243.586 30.5952 242.989 30.4892C242.383 30.3817 241.939 30.3281 241.735 30.3281C241.722 30.3281 241.664 30.3368 241.56 30.4241C241.46 30.5083 241.342 30.644 241.216 30.8365C240.963 31.2205 240.7 31.7879 240.471 32.4933C240.014 33.902 239.708 35.8129 239.861 37.7989C239.937 38.7929 240.168 40.0636 240.446 41.4959L240.506 41.7993L240.605 42.3067L240.605 42.3073L240.606 42.3075C240.842 43.5099 241.095 44.7959 241.302 46.0878C241.557 47.6757 241.745 49.2845 241.75 50.7765C241.755 52.2657 241.578 53.6605 241.086 54.809C239.577 58.33 236.701 62.3343 235.437 63.9176ZM160.13 8.76116C142.513 8.6977 92.6621 8.51812 83.7311 8.7808C79.5163 8.90476 76.3247 9.65338 74.0523 10.5321C71.7715 11.4141 70.4342 12.42 69.9076 13.0423L69.8966 13.0554L69.8842 13.0671C65.0896 17.6159 62.3716 25.3369 61.4072 33.3634C60.4447 41.3742 61.2378 49.6158 63.3942 55.1764C63.6966 55.7083 64.0022 56.2107 64.31 56.6852C64.4013 56.778 64.493 56.8717 64.5851 56.9665L64.5304 57.0197C67.4591 61.3938 70.5729 63.2917 73.1181 64.075C74.8276 64.6011 76.2929 64.6298 77.3052 64.5525C77.8101 64.4809 78.2744 64.4208 78.6867 64.3693C81.2021 64.0548 104.949 62.8055 110.578 62.8055C113.393 62.8055 127.062 63.1179 140.564 63.4301L143.089 63.4885C155.696 63.7802 167.554 64.0546 169.599 64.0546C172.937 64.0546 175.973 64.9866 177.303 65.5429C177.519 65.2168 177.711 64.7576 177.878 64.197C178.077 63.5269 178.23 62.7411 178.346 61.9262C178.578 60.2965 178.655 58.5784 178.655 57.4967L178.655 57.4937C178.678 55.1681 178.702 52.2621 178.724 49.063C178.803 37.4034 178.851 21.8656 178.657 16.3371C177.124 12.2305 174.852 10.3621 172.573 9.5025C170.545 8.73797 168.49 8.75917 166.84 8.77619C166.606 8.7786 166.38 8.78093 166.164 8.78093C165.619 8.78093 163.445 8.7731 160.13 8.76116ZM60.7871 33.2889C59.8317 41.2399 60.5836 49.4498 62.7055 55.1229C58.2964 51.0172 54.8908 49.4244 52.5412 49.0684C51.2051 48.8659 50.1898 49.0613 49.5344 49.4501C48.8941 49.8299 48.5311 50.4587 48.7694 51.0545C48.9307 51.4576 49.1505 51.7509 49.3934 52.075L49.4532 52.1549C49.7211 52.5136 50.0417 52.9567 50.421 53.6964C51.1838 55.1838 52.1918 57.8862 53.4387 63.4975C54.0524 66.259 53.8347 68.4317 53.0785 70.1029C52.3229 71.7726 51.0155 72.9732 49.3908 73.7667C46.1269 75.3607 41.6094 75.2945 37.916 74.0634C34.868 73.0473 32.9182 73.3868 31.7416 74.3437C31.0239 74.9274 30.6309 75.7116 30.448 76.4728C30.0619 75.4656 29.4915 74.2448 28.7682 72.9202C27.6034 70.7872 26.0292 68.362 24.1532 66.0887C20.5257 61.6931 15.6985 57.7815 10.4707 57.7977C10.4882 57.7701 10.5076 57.7416 10.529 57.712C10.6589 57.5332 10.8525 57.3354 11.1126 57.121C11.633 56.6919 12.3859 56.2233 13.3288 55.7278C15.2123 54.7381 17.8048 53.6662 20.6866 52.606C26.4473 50.4867 33.3238 48.4283 37.8988 47.1805L37.9287 47.1724L37.9563 47.1586C38.0041 47.1347 38.1429 47.0905 38.4082 47.0097L38.4412 46.9996L38.4416 46.9995C38.6851 46.9253 38.9996 46.8295 39.3625 46.7066C40.122 46.4493 41.0979 46.0716 42.109 45.5131C44.1298 44.3971 46.315 42.5449 47.1736 39.4685C52.851 19.1245 63.6199 13.5893 68.8861 13.177C64.2945 17.924 61.721 25.5168 60.7871 33.2889ZM178.37 70.2583C178.413 70.622 178.455 71.0065 178.496 71.4098C178.802 74.4487 179.026 78.5284 179.085 82.7567C179.143 86.9855 179.036 91.3546 178.681 94.974C178.504 96.7841 178.265 98.4001 177.957 99.7143C177.646 101.038 177.272 102.02 176.844 102.59C176.436 103.134 175.569 103.636 174.257 104.076C172.96 104.511 171.282 104.868 169.319 105.157C165.395 105.735 160.375 106.037 155.07 106.174C145.757 106.413 135.602 106.142 129.032 105.966H129.032C128.119 105.942 127.275 105.919 126.512 105.9C123.06 105.814 116.269 105.847 107.982 105.887L107.977 105.887L107.974 105.887H107.973H107.971H107.969C101.257 105.919 93.5645 105.957 85.8695 105.939C77.2633 105.92 68.65 105.832 61.3894 105.593C54.1913 105.356 48.3465 104.971 45.1526 104.363C42.0244 101.194 40.809 97.1429 40.5718 93.3349C40.3403 89.6189 41.0427 86.1598 41.7842 84.0396C44.01 84.0209 49.6426 83.7381 56.4517 83.3963L56.4521 83.3963L56.4526 83.3963H56.4528L56.4534 83.3962L56.457 83.3961L56.4778 83.395L56.48 83.3949L56.4921 83.3943L56.5258 83.3926C59.1304 83.2619 61.9056 83.1226 64.7269 82.9862C75.2323 82.4785 86.3822 82.011 91.8323 82.1667C97.2988 82.3229 117.598 82.7914 136.805 83.1037C146.408 83.2598 155.739 83.3769 162.806 83.3965C166.34 83.4062 169.309 83.3916 171.465 83.3452C172.542 83.322 173.419 83.2907 174.063 83.2504C174.385 83.2302 174.652 83.2076 174.858 83.1819C175.051 83.158 175.228 83.1277 175.343 83.0785C175.975 82.8077 176.43 82.2957 176.764 81.6756C177.096 81.057 177.319 80.3114 177.478 79.5362C177.692 78.4934 177.799 77.3433 177.894 76.3335L177.894 76.333L177.894 76.3323C177.938 75.856 177.98 75.4109 178.028 75.0231C178.135 74.1704 178.17 73.3871 178.205 72.6053V72.6051C178.21 72.4981 178.214 72.3912 178.219 72.2842L178.228 72.0934C178.257 71.5068 178.295 70.9071 178.37 70.2583ZM177.224 66.1889C176.069 65.6757 172.991 64.6791 169.599 64.6791C167.547 64.6791 155.697 64.405 143.107 64.1136L143.102 64.1135L143.096 64.1134L140.55 64.0545C127.04 63.7421 113.384 63.43 110.578 63.43C104.965 63.43 81.2488 64.6787 78.7647 64.9889C78.7425 64.9918 78.7159 64.9959 78.6849 65.001C78.6523 65.0063 78.6149 65.0127 78.5728 65.0198L78.5726 65.0199L78.5725 65.0199C78.3233 65.0623 77.911 65.1326 77.3686 65.1744C74.8347 65.5347 71.3129 66.1802 68.228 67.4657C66.3691 68.2402 59.7446 71.4349 53.5839 74.9052C50.5038 76.6402 47.5497 78.4385 45.3688 80.0329C44.2773 80.8309 43.3897 81.5705 42.7781 82.2194C42.4723 82.5439 42.2426 82.8382 42.0908 83.099C42.0238 83.2143 41.9744 83.3189 41.94 83.4133C44.2485 83.3835 49.7484 83.1074 56.3872 82.7742L56.3876 82.7742L56.3925 82.7739L56.3927 82.7739H56.3929C59.0245 82.6418 61.8351 82.5007 64.6967 82.3624C75.1922 81.8552 86.3704 81.3859 91.8501 81.5424C97.3134 81.6985 117.61 82.1669 136.815 82.4792C146.417 82.6353 155.745 82.7524 162.808 82.7719C166.34 82.7817 169.303 82.767 171.451 82.7207C172.526 82.6976 173.393 82.6666 174.024 82.6271C174.34 82.6073 174.593 82.5855 174.781 82.5621C174.875 82.5504 174.95 82.5387 175.007 82.5274C175.021 82.5246 175.033 82.5219 175.044 82.5194L175.057 82.5162L175.073 82.512C175.081 82.5098 175.087 82.5079 175.091 82.5064L175.097 82.5045L175.097 82.5044C175.558 82.3067 175.923 81.9209 176.214 81.3797C176.506 80.837 176.713 80.1578 176.866 79.4107C177.073 78.3996 177.174 77.3177 177.266 76.3264C177.312 75.8377 177.355 75.371 177.409 74.9457C177.512 74.1199 177.546 73.3656 177.581 72.5852L177.581 72.5772C177.588 72.4073 177.596 72.2363 177.605 72.0629C177.652 71.0932 177.724 70.0676 177.952 68.842C178.132 67.8732 177.885 66.8775 177.224 66.1889ZM31.4554 131.627C30.4826 134.91 28.6116 141.769 28.133 145.599C27.6766 149.249 27.3594 152.309 27.229 153.679H29.534C32.1934 149.847 37.5905 140.085 40.1366 131.167C39.7848 131.221 39.3937 131.271 38.9717 131.315C37.2508 131.497 34.976 131.605 32.6667 131.624C32.2633 131.628 31.8586 131.629 31.4554 131.627ZM40.3588 130.498L40.3251 130.489L40.3209 130.505C39.919 130.574 39.4426 130.637 38.9061 130.694C37.2115 130.873 34.9581 130.98 32.6614 131C30.3646 131.019 28.0336 130.951 26.1834 130.782C25.2575 130.697 24.4596 130.587 23.8495 130.453C23.5443 130.386 23.2931 130.313 23.0994 130.238C22.9381 130.175 22.834 130.117 22.7726 130.069C9.68792 100.771 6.51132 83.7381 6.62761 73.5828C6.68573 68.5067 7.56663 65.1469 8.44682 62.8286C8.83113 61.8164 9.21572 61.0012 9.53834 60.3173C9.5862 60.2159 9.63269 60.1173 9.67762 60.0214C9.95974 59.4194 10.1964 58.8927 10.2937 58.4245C15.2876 58.3182 20.0199 62.0615 23.6715 66.4863C25.5194 68.7255 27.072 71.1172 28.22 73.2195C29.3684 75.3225 30.0997 77.1132 30.3268 78.1631C31.7402 87.7335 34.4944 92.779 36.7732 96.5931C36.928 96.8522 37.0803 97.1052 37.2295 97.3531L37.2304 97.3546C39.2743 100.75 40.7483 103.199 40.3165 107.43C39.5331 115.107 39.9242 120.52 40.4745 124.176C40.7427 125.958 41.0483 127.319 41.2716 128.314L41.2886 128.389C41.4015 128.892 41.4894 129.289 41.5401 129.598C41.5865 129.881 41.5938 130.051 41.5801 130.147C41.5631 130.16 41.5341 130.178 41.4884 130.2C41.3718 130.257 41.1916 130.317 40.9445 130.378C40.7737 130.419 40.5776 130.46 40.3588 130.498Z" fill="black" fill-opacity="0.35"/>
</svg>
