<svg width="17" height="16" viewBox="0 0 17 16" fill="none" xmlns="http://www.w3.org/2000/svg">
<path d="M12.9199 4.76676C12.9466 5.17343 12.9132 5.63343 12.8332 6.14676L12.3466 9.27343C11.9332 11.8801 10.7266 12.7601 8.11991 12.3534L4.99325 11.8601C4.09325 11.7201 3.39991 11.4801 2.89325 11.1201C1.92658 10.4468 1.64658 9.34009 1.91325 7.63343L2.40658 4.50676C2.81991 1.90009 4.02658 1.02009 6.63325 1.42676L9.75991 1.92009C11.8532 2.24676 12.8332 3.10009 12.9199 4.76676Z" stroke="#848382" stroke-width="1.3" stroke-linecap="round" stroke-linejoin="round"/>
<path d="M14.1666 8.97994L13.1666 11.9866C12.3333 14.4933 11 15.1599 8.49331 14.3266L5.48664 13.3266C3.97331 12.8266 3.13331 12.1333 2.89331 11.1199C3.39998 11.4799 4.09331 11.7199 4.99331 11.8599L8.11998 12.3533C10.7266 12.7599 11.9333 11.8799 12.3466 9.27327L12.8333 6.1466C12.9133 5.63327 12.9466 5.17327 12.92 4.7666C14.5133 5.61327 14.86 6.89327 14.1666 8.97994Z" stroke="#848382" stroke-width="1.3" stroke-linecap="round" stroke-linejoin="round"/>
<path d="M5.99325 5.9865C6.6339 5.9865 7.15325 5.46715 7.15325 4.8265C7.15325 4.18585 6.6339 3.6665 5.99325 3.6665C5.3526 3.6665 4.83325 4.18585 4.83325 4.8265C4.83325 5.46715 5.3526 5.9865 5.99325 5.9865Z" stroke="#848382" stroke-width="1.3" stroke-linecap="round" stroke-linejoin="round"/>
</svg>
