<svg width="56" height="56" viewBox="0 0 56 56" fill="none" xmlns="http://www.w3.org/2000/svg">
<g clip-path="url(#clip0_283_6392)">
<path d="M56 28C56 12.536 43.464 0 28 0C12.536 0 0 12.536 0 28C0 43.464 12.536 56 28 56C43.464 56 56 43.464 56 28Z" fill="#FFF7D6"/>
<path fill-rule="evenodd" clip-rule="evenodd" d="M26.3381 13.426C25.585 14.5898 24.119 15.0662 22.8256 14.5673C21.6558 14.1161 20.4099 15.0213 20.4775 16.2733C20.5523 17.6575 19.6463 18.9046 18.3067 19.2612C17.0951 19.5838 16.6192 21.0484 17.4098 22.0215C18.2839 23.0975 18.2839 24.6389 17.4098 25.7148C16.6192 26.6879 17.0951 28.1526 18.3067 28.4751C19.6463 28.8318 20.5523 30.0788 20.4775 31.463C20.4099 32.715 21.6558 33.6202 22.8256 33.169C24.119 32.6702 25.585 33.1465 26.3381 34.3103C27.0193 35.3629 28.5593 35.3629 29.2405 34.3103C29.9936 33.1465 31.4596 32.6702 32.753 33.169C33.9228 33.6202 35.1687 32.715 35.1011 31.463C35.0263 30.0788 35.9323 28.8318 37.2719 28.4751C38.4835 28.1526 38.9594 26.6879 38.1688 25.7148C37.2947 24.6389 37.2947 23.0975 38.1688 22.0215C38.9594 21.0484 38.4835 19.5838 37.2719 19.2612C35.9323 18.9046 35.0263 17.6575 35.1011 16.2733C35.1687 15.0213 33.9228 14.1161 32.753 14.5673C31.4596 15.0662 29.9936 14.5898 29.2405 13.426C28.5593 12.3734 27.0193 12.3734 26.3381 13.426ZM29.7442 13.1C28.8266 11.6821 26.752 11.6821 25.8344 13.1C25.2355 14.0254 24.0699 14.4042 23.0415 14.0075C21.4657 13.3997 19.7873 14.6191 19.8784 16.3056C19.9379 17.4063 19.2175 18.3978 18.1523 18.6814C16.5202 19.1159 15.8791 21.089 16.9441 22.3999C17.6391 23.2554 17.6391 24.481 16.9441 25.3365C15.8791 26.6473 16.5202 28.6204 18.1523 29.0549C19.0664 29.2983 19.7265 30.063 19.8579 30.9706C19.8472 30.9828 19.8374 30.9961 19.8285 31.0103L14.8341 39.0782C14.59 39.4725 14.9203 39.9717 15.3787 39.9012L19.8858 39.2078L21.2494 42.9575C21.4056 43.3873 21.9906 43.4435 22.2259 43.0514L26.7748 35.4698C27.1282 35.6397 27.5172 35.7155 27.9024 35.697C27.9081 35.7214 27.9169 35.7454 27.929 35.7686L32.1608 43.8474C32.37 44.2468 32.9465 44.2324 33.1355 43.823L35.267 39.2047L39.7879 39.9002C40.2486 39.9711 40.5788 39.4671 40.3299 39.0731L35.7485 31.8191C35.7335 31.7954 35.7157 31.7745 35.6958 31.7565C35.7045 31.6502 35.7062 31.5414 35.7002 31.4307C35.6408 30.33 36.3612 29.3385 37.4263 29.0549C39.0584 28.6204 39.6995 26.6473 38.6345 25.3365C37.9395 24.481 37.9395 23.2554 38.6345 22.3999C39.6995 21.089 39.0584 19.1159 37.4263 18.6814C36.3612 18.3978 35.6408 17.4063 35.7002 16.3056C35.7913 14.6191 34.1129 13.3997 32.5371 14.0075C31.5087 14.4042 30.3431 14.0254 29.7442 13.1ZM35.4909 32.5348C35 33.5933 33.7387 34.1923 32.5371 33.7288C31.5087 33.3322 30.3431 33.7109 29.7442 34.6363C29.435 35.1141 28.9945 35.4309 28.5111 35.5867L32.6389 43.4671L34.7401 38.9145C34.8416 38.6945 35.0766 38.5684 35.316 38.6052L39.7562 39.2883L35.4909 32.5348ZM26.2725 35.1408C26.1086 34.9994 25.9606 34.8313 25.8344 34.6363C25.2355 33.7109 24.0699 33.3322 23.0415 33.7288C21.652 34.2648 20.1827 33.38 19.9172 32.007L15.409 39.2895L19.8406 38.6077C20.0968 38.5683 20.3452 38.7154 20.4338 38.959L21.7726 42.6407L26.2725 35.1408ZM27.7886 30.5682C31.489 30.5682 34.4887 27.5685 34.4887 23.8682C34.4887 20.1678 31.489 17.1681 27.7886 17.1681C24.0883 17.1681 21.0886 20.1678 21.0886 23.8682C21.0886 27.5685 24.0883 30.5682 27.7886 30.5682ZM27.7886 31.1682C31.8203 31.1682 35.0887 27.8999 35.0887 23.8682C35.0887 19.8365 31.8203 16.5681 27.7886 16.5681C23.7569 16.5681 20.4886 19.8365 20.4886 23.8682C20.4886 27.8999 23.7569 31.1682 27.7886 31.1682ZM31.6597 21.6383C31.7721 21.5166 31.7645 21.3268 31.6427 21.2144C31.521 21.102 31.3312 21.1096 31.2188 21.2313L26.5785 26.2583L23.9594 23.2651C23.8503 23.1404 23.6608 23.1277 23.5361 23.2368C23.4114 23.3459 23.3988 23.5355 23.5079 23.6602L26.1685 26.7009C26.3811 26.9439 26.7576 26.9489 26.9766 26.7116L31.6597 21.6383Z" fill="#423C39"/>
</g>
<defs>
<clipPath id="clip0_283_6392">
<rect width="56" height="56" fill="white"/>
</clipPath>
</defs>
</svg>
