<svg width="56" height="56" viewBox="0 0 56 56" fill="none" xmlns="http://www.w3.org/2000/svg">
<rect width="56" height="56" rx="28" fill="#E2FADB"/>
<path d="M18.3129 29V39.5C19.9796 39.5 23.6129 39.5 24.8129 39.5C24.8129 38.7 23.1462 37.8333 22.3129 37.5V29M18.3129 29C15.8232 27.5062 12.3416 23.632 18.2395 20.0443C18.286 20.0161 18.3419 20 18.3963 20C24.6361 20 30.1022 20 32.191 20C32.2706 20 32.3445 20.0316 32.4007 20.0879L34.3129 22M18.3129 29H22.3129M34.3129 22V27M34.3129 22C34.4795 22 35.3129 22 37.3129 22C38.0874 22.7745 38.387 23.574 38.415 24.3113M34.3129 27L32.4007 28.9121C32.3445 28.9684 32.2682 29 32.1886 29H22.3129M34.3129 27H37.3129C37.8235 26.4894 38.4593 25.4781 38.415 24.3113M38.415 24.3113H38.5145M38.5145 24.3113H47.0488L46.3129 25L44.8129 24L44.3129 25L43.3129 24L42.3129 25L41.3129 24L40.3129 25L39.3129 24L38.5145 24.3113Z" stroke="#423C39" stroke-width="0.6" stroke-linejoin="round"/>
<path d="M18.313 23H21.813M22.313 31.5H23.313V34H22.313" stroke="#423C39" stroke-width="0.6" stroke-linejoin="round"/>
</svg>
