<svg width="56" height="56" viewBox="0 0 56 56" fill="none" xmlns="http://www.w3.org/2000/svg">
<rect width="56" height="56" rx="28" fill="#E3F5FB"/>
<path d="M46 28.7983V35.9485C46 36.1097 45.8693 36.2403 45.7082 36.2403H41.5M46 28.7983L43.3093 24.8584M46 28.7983H40.309C40.1478 28.7983 40.0172 28.6676 40.0172 28.5064V25.1502C40.0172 24.989 40.1478 24.8584 40.309 24.8584H43.3093M33.3047 22.8155H41.7601C41.8565 22.8155 41.9467 22.8631 42.0011 22.9427L43.3093 24.8584M33.3047 22.8155V36.2403M33.3047 22.8155V18.2918C33.3047 18.1307 33.1741 18 33.0129 18H12.2918C12.1307 18 12 18.1307 12 18.2918V32.1545M33.3047 36.2403H20.8286M33.3047 36.2403H35.6812M12 32.1545V35.9485C12 36.1097 12.1307 36.2403 12.2918 36.2403H13.4592M12 32.1545H13.1674C13.3286 32.1545 13.4592 32.2852 13.4592 32.4464V36.2403M13.4592 36.2403H15" stroke="#423C39" stroke-width="0.7" stroke-linejoin="round"/>
<circle cx="17.837" cy="36.0644" r="2.71438" stroke="#423C39" stroke-width="0.7"/>
<circle cx="38.5579" cy="36.0644" r="2.71438" stroke="#423C39" stroke-width="0.7"/>
</svg>
