<svg width="81" height="77" viewBox="0 0 81 77" fill="none" xmlns="http://www.w3.org/2000/svg">
<path fill-rule="evenodd" clip-rule="evenodd" d="M44.5405 20.6325H55.2081C57.3809 20.6325 59.1423 22.3939 59.1423 24.5666V35.2941L44.5405 20.6325ZM23.2422 20.6325H9.84203C8.91642 20.6325 8.06547 20.9521 7.39354 21.4871L58.2952 72.5973C58.8256 71.9269 59.1423 71.0796 59.1423 70.1583V56.6841L59.1314 56.6949L23.2291 20.6455L23.2422 20.6325ZM57.6539 73.24L6.75283 22.1303C6.2237 22.8003 5.90788 23.6466 5.90788 24.5666V40.4488L5.9232 40.4336L39.432 74.0797L39.4191 74.0925H55.2081C56.1325 74.0925 56.9824 73.7737 57.6539 73.24ZM5.90788 58.4733V41.7048L38.1634 74.0925H21.4939L5.9232 58.458L5.90788 58.4733ZM24.4975 20.6325L59.1423 55.4193V36.5541L59.1289 36.5673L43.2721 20.6455L43.2852 20.6325H24.4975ZM5.90788 70.1583V59.7292L20.2126 74.0925H9.84203C7.66926 74.0925 5.90788 72.3311 5.90788 70.1583ZM9.84203 75.0004H21.1167L21.1368 75.0205L21.157 75.0004H55.2081C57.8823 75.0004 60.0501 72.8325 60.0501 70.1583V24.5666C60.0501 21.8925 57.8823 19.7246 55.2081 19.7246H9.84203C7.16785 19.7246 5 21.8925 5 24.5666V70.1583C5 72.8325 7.16785 75.0004 9.84203 75.0004Z" fill="black" fill-opacity="0.15"/>
<path d="M23.5486 19.7243V16.0738C23.5486 15.7213 23.7022 15.3863 23.9694 15.1563L26.7799 12.7375C27.3019 12.2882 27.3444 11.4946 26.8734 10.9921L24.5499 8.51325C23.6577 7.56134 23.6802 6.0736 24.6009 5.14916L26.0729 3.67104C26.999 2.74115 28.4974 2.71845 29.4512 3.61986L31.9073 5.94091C32.4071 6.41326 33.1995 6.37485 33.6513 5.85639L36.6501 2.41523C36.88 2.15142 37.2128 2 37.5627 2H40.3237C40.689 2 41.0349 2.16502 41.2647 2.44905L43.8497 5.64366C44.3342 6.2424 45.2473 6.2424 45.7318 5.64366L48.3168 2.44905C48.5466 2.16503 48.8924 2 49.2578 2H51.6636C52.0455 2 52.405 2.18017 52.6335 2.4861L54.9633 5.60525C55.4249 6.22323 56.339 6.25764 56.8457 5.67612L59.6874 2.41523C59.9173 2.15142 60.2501 2 60.6 2H63.361C63.7263 2 64.0722 2.16502 64.302 2.44905L67.0057 5.79034C67.4493 6.33852 68.2656 6.39302 68.7782 5.90868L71.2513 3.57147C72.1845 2.68958 73.6439 2.68957 74.5771 3.57147L76.194 5.09955C77.1839 6.035 77.2076 7.60256 76.2466 8.56756L73.8197 11.0043C73.3284 11.4977 73.3535 12.3028 73.8747 12.7646L77.5926 16.0585C77.8519 16.2882 78.0003 16.6181 78.0003 16.9645V18.6019C78.0003 18.9348 77.8632 19.253 77.6213 19.4817L73.8756 23.0214C73.359 23.5097 73.3723 24.3359 73.9043 24.8073L77.5926 28.075C77.8519 28.3047 78.0003 28.6346 78.0003 28.981V30.2697C78.0003 30.6306 77.8393 30.9727 77.5612 31.2026L73.9375 34.1991C73.3883 34.6532 73.3483 35.4812 73.8512 35.9862L77.6475 39.798C77.8735 40.0249 78.0003 40.3321 78.0003 40.6522V42.0556C78.0003 42.3758 77.8735 42.683 77.6475 42.9098L73.7911 46.7821C73.3105 47.2646 73.3224 48.0484 73.8173 48.5161L76.1384 50.7096C77.1493 51.6649 77.1493 53.2735 76.1384 54.2288L74.4874 55.789C73.5915 56.6357 72.2026 56.674 71.2613 55.8781L68.1195 53.2216C67.6227 52.8015 66.8826 52.8493 66.4439 53.3298L64.2986 55.6797C64.0693 55.931 63.7448 56.0741 63.4046 56.0741H60.0492" stroke="black" stroke-opacity="0.15" stroke-width="0.907881"/>
</svg>
