<svg width="30" height="35" viewBox="0 0 30 35" fill="none" xmlns="http://www.w3.org/2000/svg">
<path fill-rule="evenodd" clip-rule="evenodd" d="M13.19 2.42829C12.3976 3.62464 10.8553 4.11436 9.49458 3.60151C8.26388 3.13769 6.95312 4.06821 7.02424 5.35523C7.10293 6.77814 6.14976 8.06012 4.74042 8.4267C3.46574 8.75832 2.96506 10.2639 3.79682 11.2642C4.71643 12.3703 4.71643 13.9548 3.79682 15.0608C2.96506 16.0611 3.46574 17.5668 4.74042 17.8983C6.14976 18.265 7.10293 19.5469 7.02424 20.9698C6.95312 22.2568 8.26388 23.1873 9.49458 22.7235C10.8553 22.2108 12.3976 22.7004 13.19 23.8967C13.9066 24.9788 15.5268 24.9788 16.2435 23.8967C17.0358 22.7004 18.5781 22.2108 19.9388 22.7235C21.1695 23.1873 22.4803 22.2568 22.4092 20.9698C22.3305 19.5469 23.2836 18.265 24.693 17.8983C25.9677 17.5668 26.4683 16.0611 25.6366 15.0608C24.717 13.9548 24.717 12.3703 25.6366 11.2642C26.4683 10.2639 25.9677 8.75832 24.693 8.4267C23.2836 8.06012 22.3305 6.77814 22.4092 5.35523C22.4803 4.06821 21.1695 3.13769 19.9388 3.60151C18.5781 4.11436 17.0358 3.62464 16.2435 2.42829C15.5268 1.34625 13.9066 1.34625 13.19 2.42829ZM16.7734 2.09317C15.808 0.63561 13.6254 0.63561 12.66 2.09317C12.0299 3.04445 10.8037 3.43385 9.72172 3.02605C8.06388 2.40125 6.2981 3.65476 6.39395 5.38843C6.45654 6.51992 5.69864 7.53915 4.57798 7.83068C2.86091 8.27733 2.18643 10.3056 3.30688 11.6532C4.03806 12.5326 4.03806 13.7925 3.30688 14.6719C2.18643 16.0194 2.86091 18.0477 4.57798 18.4943C5.53967 18.7445 6.23414 19.5306 6.37238 20.4636C6.36112 20.4762 6.35081 20.4898 6.34145 20.5044L1.08703 28.798C0.830219 29.2033 1.17772 29.7165 1.65998 29.644L6.40173 28.9312L7.83632 32.7858C8.00066 33.2276 8.61611 33.2854 8.86366 32.8823L13.6494 25.0887C14.0212 25.2633 14.4304 25.3412 14.8357 25.3222C14.8417 25.3473 14.851 25.372 14.8637 25.3958L19.3158 33.7006C19.5359 34.1111 20.1424 34.0963 20.3412 33.6755L22.5837 28.928L27.34 29.643C27.8247 29.7159 28.1721 29.1978 27.9102 28.7927L23.0903 21.3358C23.0745 21.3115 23.0558 21.29 23.0348 21.2715C23.044 21.1622 23.0458 21.0504 23.0395 20.9366C22.977 19.8051 23.7349 18.7859 24.8554 18.4943C26.5725 18.0477 27.247 16.0194 26.1265 14.6719C25.3953 13.7925 25.3953 12.5326 26.1265 11.6532C27.247 10.3056 26.5725 8.27733 24.8554 7.83068C23.7349 7.53915 22.977 6.51992 23.0395 5.38843C23.1353 3.65476 21.3695 2.40125 19.7117 3.02605C18.6297 3.43385 17.4035 3.04445 16.7734 2.09317ZM22.8193 22.0716C22.3028 23.1597 20.9758 23.7754 19.7117 23.299C18.6297 22.8913 17.4035 23.2806 16.7734 24.2318C16.4481 24.723 15.9847 25.0487 15.4761 25.2088L19.8188 33.3096L22.0294 28.6297C22.1362 28.4035 22.3834 28.2739 22.6353 28.3118L27.3066 29.014L22.8193 22.0716ZM13.1209 24.7505C12.9485 24.6051 12.7928 24.4323 12.66 24.2318C12.0299 23.2806 10.8037 22.8913 9.72172 23.299C8.25988 23.85 6.71409 22.9404 6.43477 21.529L1.69186 29.0152L6.35418 28.3143C6.62372 28.2738 6.88505 28.425 6.97826 28.6754L8.38676 32.4601L13.1209 24.7505ZM14.716 20.05C18.609 20.05 21.7649 16.9664 21.7649 13.1626C21.7649 9.35866 18.609 6.27505 14.716 6.27505C10.823 6.27505 7.66715 9.35866 7.66715 13.1626C7.66715 16.9664 10.823 20.05 14.716 20.05ZM14.716 20.6667C18.9576 20.6667 22.3961 17.307 22.3961 13.1626C22.3961 9.01809 18.9576 5.65827 14.716 5.65827C10.4744 5.65827 7.03591 9.01809 7.03591 13.1626C7.03591 17.307 10.4744 20.6667 14.716 20.6667ZM18.7886 10.8703C18.9069 10.7452 18.8989 10.5501 18.7707 10.4345C18.6427 10.319 18.443 10.3268 18.3248 10.4519L13.4429 15.6195L10.6874 12.5426C10.5726 12.4144 10.3733 12.4013 10.2421 12.5135C10.1109 12.6256 10.0976 12.8205 10.2124 12.9487L13.0115 16.0745C13.2352 16.3243 13.6313 16.3294 13.8617 16.0855L18.7886 10.8703Z" fill="black" fill-opacity="0.85"/>
<path d="M3.91217 11.1683L3.91216 11.1683C3.15298 10.2553 3.60635 8.87673 4.77819 8.57187C6.25441 8.18789 7.25677 6.84341 7.17401 5.34695C7.10918 4.17377 8.30708 3.31427 9.44168 3.74187C10.8666 4.27893 12.4833 3.76693 13.315 2.51111C13.9724 1.51864 15.4611 1.51864 16.1184 2.51111C16.9501 3.76693 18.5668 4.27893 19.9917 3.74187C21.1263 3.31427 22.3242 4.17377 22.2594 5.34694C22.1766 6.84341 23.179 8.1879 24.6552 8.57187C25.8271 8.87673 26.2804 10.2553 25.5213 11.1683L25.6366 11.2642L25.5212 11.1683C24.5554 12.33 24.5554 13.9951 25.5212 15.1567C26.2804 16.0697 25.8271 17.4484 24.6552 17.7531L24.693 17.8983L24.6552 17.7531C23.179 18.1372 22.1766 19.4816 22.2594 20.9781C22.3242 22.1512 21.1263 23.0107 19.9917 22.5831L19.9388 22.7235L19.9917 22.5831C18.5668 22.0462 16.9501 22.5581 16.1184 23.8139C15.4611 24.8064 13.9724 24.8064 13.315 23.8139C12.4833 22.5581 10.8666 22.0462 9.44169 22.5831L9.49458 22.7235L9.44168 22.5831C8.30708 23.0107 7.10918 22.1512 7.17401 20.9781C7.25677 19.4816 6.2544 18.1372 4.77819 17.7531L4.74042 17.8983L4.77818 17.7531C3.60636 17.4484 3.15298 16.0697 3.91216 15.1567C4.87799 13.9951 4.87798 12.33 3.91217 11.1683ZM9.77463 2.88569L9.72172 3.02605L9.77462 2.88569C8.02069 2.22468 6.14204 3.54919 6.24418 5.39671C6.3027 6.45464 5.594 7.41138 4.54022 7.68551C2.72029 8.15892 1.99852 10.3142 3.19154 11.7491C3.87651 12.5729 3.87651 13.7522 3.19154 14.576C1.99852 16.0108 2.7203 18.1661 4.54022 18.6395C5.42336 18.8693 6.06436 19.5789 6.21416 20.4251L0.960318 28.7177C0.630191 29.2388 1.08135 29.8826 1.68227 29.7923L1.65998 29.644L1.68228 29.7923L6.30362 29.0976L7.69573 32.8381C7.90424 33.3987 8.67938 33.469 8.99148 32.9608L8.86366 32.8823L8.99149 32.9608L13.7089 25.2785C14.0362 25.412 14.3864 25.4775 14.7359 25.4749L19.1836 33.7715C19.4617 34.2902 20.2252 34.2722 20.4769 33.7396L20.3412 33.6755L20.4769 33.7396L22.6717 29.0929L27.3177 29.7913C27.9216 29.8821 28.3728 29.232 28.0362 28.7113C28.0362 28.7113 28.0362 28.7113 28.0362 28.7113L23.2163 21.2544L23.2162 21.2543C23.2077 21.2412 23.1986 21.2287 23.1891 21.2167C23.1945 21.1221 23.1946 21.0259 23.1892 20.9283C23.1308 19.8704 23.8395 18.9136 24.8932 18.6395C26.7131 18.1661 27.4349 16.0108 26.2419 14.576C25.5569 13.7522 25.5569 12.5729 26.2419 11.7491C27.4349 10.3142 26.7131 8.15892 24.8932 7.68551C23.8395 7.41138 23.1308 6.45464 23.1892 5.3967C23.2914 3.54919 21.4127 2.22468 19.6588 2.88569L19.7117 3.02605L19.6588 2.88569C18.6411 3.26928 17.4891 2.90217 16.8984 2.01034C15.8737 0.46322 13.5597 0.46322 12.535 2.01034C11.9443 2.90217 10.7923 3.26928 9.77463 2.88569ZM19.8103 32.9764L15.6909 25.292C16.1634 25.1067 16.5897 24.7808 16.8984 24.3147C17.4891 23.4228 18.6411 23.0558 19.6588 23.4393C20.9071 23.9098 22.2141 23.3756 22.8306 22.3655L27.0002 28.8162L22.6576 28.1634L22.6575 28.1634C22.342 28.116 22.0296 28.278 21.8937 28.5657L19.8103 32.9764ZM8.41999 32.1194L7.11884 28.6231L6.97826 28.6754L7.11884 28.6231C7.00015 28.3043 6.66952 28.1153 6.33189 28.166L6.35418 28.3143L6.33188 28.166L1.99434 28.818L6.37985 21.896C6.83785 23.2001 8.34592 23.9778 9.77462 23.4393C10.7924 23.0558 11.9443 23.4228 12.535 24.3147C12.6504 24.489 12.7824 24.6438 12.9273 24.7791L8.41999 32.1194ZM18.2157 10.3489L18.2157 10.3489L13.4458 15.398L10.7992 12.4425C10.7992 12.4425 10.7992 12.4425 10.7992 12.4425C10.6298 12.2533 10.3375 12.2346 10.1446 12.3995C9.94973 12.5661 9.92945 12.8576 10.1007 13.0488L10.1007 13.0488L12.8998 16.1745C12.8998 16.1746 12.8998 16.1746 12.8998 16.1746C13.1821 16.4898 13.6801 16.4962 13.9707 16.1885L18.8976 10.9733C18.8976 10.9733 18.8976 10.9733 18.8976 10.9733C19.0739 10.7868 19.0616 10.4949 18.8712 10.3232C18.6828 10.1532 18.3901 10.1644 18.2157 10.3489ZM21.6149 13.1626C21.6149 16.8803 18.5295 19.9 14.716 19.9C10.9026 19.9 7.81715 16.8803 7.81715 13.1626C7.81715 9.44475 10.9026 6.42505 14.716 6.42505C18.5295 6.42505 21.6149 9.44476 21.6149 13.1626ZM14.716 20.8167C19.0371 20.8167 22.5461 17.3931 22.5461 13.1626C22.5461 8.93199 19.0371 5.50827 14.716 5.50827C10.3948 5.50827 6.88591 8.93199 6.88591 13.1626C6.88591 17.3931 10.3948 20.8167 14.716 20.8167Z" stroke="black" stroke-opacity="0.85" stroke-width="0.3"/>
</svg>
