<svg width="26" height="25" viewBox="0 0 26 25" fill="none" xmlns="http://www.w3.org/2000/svg">
<path fill-rule="evenodd" clip-rule="evenodd" d="M23.7659 6.0423C23.9366 5.45337 23.7659 5.02667 23.0115 5.02667H20.5019C19.8692 5.02667 19.5768 5.40114 19.4061 5.80117C19.4061 5.80117 18.115 9.21809 16.3129 11.4338C15.7282 12.0739 15.4603 12.2872 15.1434 12.2872C14.9727 12.2872 14.754 12.0739 14.754 11.4871V6.01452C14.754 5.32002 14.5598 5 14.0231 5H10.0773C9.68683 5 9.44354 5.32002 9.44354 5.64116C9.44354 6.30787 10.3441 6.46789 10.4412 8.33691V12.3961C10.4412 13.2773 10.2981 13.4384 9.97816 13.4384C9.12665 13.4384 7.05563 9.9937 5.81363 6.07119C5.57239 5.29336 5.32705 5 4.69328 5H2.16021C1.42932 5 1.30768 5.37336 1.30768 5.7745C1.30768 6.49456 2.16021 10.1248 5.27799 14.9296C7.34901 18.211 10.2961 19.9744 12.9508 19.9744C14.5587 19.9744 14.754 19.5744 14.754 18.9077V16.4231C14.754 15.623 14.9002 15.4897 15.4113 15.4897C15.7762 15.4897 16.4345 15.7019 17.9208 17.2776C19.6249 19.1455 19.9172 20 20.8679 20H23.3764C24.1073 20 24.4487 19.6 24.2535 18.8255C24.0347 18.051 23.2057 16.9309 22.1344 15.5963C21.5497 14.8485 20.6726 14.0218 20.4048 13.6206C20.0399 13.0873 20.137 12.8739 20.4048 12.3928C20.3803 12.3928 23.45 7.64131 23.7659 6.03897" fill="black" fill-opacity="0.65"/>
</svg>
