<svg width="26" height="26" viewBox="0 0 26 26" fill="none" xmlns="http://www.w3.org/2000/svg">
<path d="M13.4476 4.8595C14.0039 4.86256 15.3959 4.87602 16.8749 4.93526L17.3993 4.95812C18.8883 5.02862 20.3761 5.14906 21.114 5.35481C22.0983 5.63132 22.872 6.43814 23.1334 7.46087C23.5498 9.08492 23.6019 12.2547 23.6083 13.0218L23.6093 13.1807V13.1919C23.6093 13.1919 23.6093 13.1957 23.6093 13.2031L23.6083 13.3621C23.6019 14.1292 23.5498 17.299 23.1334 18.923C22.8683 19.9495 22.0947 20.7564 21.114 21.0291C20.3761 21.2348 18.8883 21.3552 17.3993 21.4257L16.8749 21.4486C15.3959 21.5078 14.0039 21.5213 13.4476 21.5244L13.2034 21.5252H13.1926C13.1926 21.5252 13.1889 21.5252 13.1818 21.5252L12.9378 21.5244C11.7603 21.5179 6.83698 21.4647 5.27114 21.0291C4.28686 20.7525 3.51323 19.9457 3.25172 18.923C2.8354 17.299 2.78336 14.1292 2.77686 13.3621V13.0218C2.78336 12.2547 2.8354 9.08492 3.25172 7.46087C3.51686 6.43435 4.29048 5.62754 5.27114 5.35481C6.83698 4.91911 11.7603 4.86598 12.9378 4.8595H13.4476ZM11.1093 9.5461V16.8377L17.3593 13.1919L11.1093 9.5461Z" fill="black" fill-opacity="0.65"/>
</svg>
