<svg width="235" height="62" viewBox="0 0 235 62" fill="none" xmlns="http://www.w3.org/2000/svg">
<g clip-path="url(#clip0_283_6104)">
<rect x="0.291829" y="-2.00989e-08" width="6.82131" height="25.5544" transform="matrix(-0.865439 0.501015 -0.865439 -0.501015 64.1436 19.9423)" fill="white" stroke="#80AAB8" stroke-width="0.337204" stroke-linejoin="round"/>
<rect x="0.145905" y="-0.0841134" width="18.0537" height="25.3657" transform="matrix(1.35545e-07 1 -0.865382 -0.501113 58.1763 23.087)" fill="white" stroke="#80AAB8" stroke-width="0.337204" stroke-linejoin="round"/>
<rect x="-0.145899" y="-0.0841243" width="36.9576" height="20.3101" transform="matrix(0.86542 -0.501048 -7.51258e-05 1 11.6791 23.7723)" fill="white" stroke="#80AAB8" stroke-width="0.337204" stroke-linejoin="round"/>
<rect x="-6.36131e-06" y="0.168944" width="17.2588" height="38.7148" transform="matrix(-0.86542 -0.501048 0.865457 -0.500982 24.7593 48.4601)" fill="white" stroke="#80AAB8" stroke-width="0.337204" stroke-linejoin="round"/>
<rect x="-0.145915" y="0.253085" width="10.0881" height="36.8992" transform="matrix(3.75224e-05 -1 0.865401 -0.50108 24.0172 58.522)" fill="white" stroke="#80AAB8" stroke-width="0.337204" stroke-linejoin="round"/>
<rect x="-0.145915" y="0.253085" width="6.48298" height="39.6146" transform="matrix(3.75224e-05 -1 0.865401 -0.50108 24.0172 54.9171)" fill="white" stroke="#80AAB8" stroke-width="0.337204" stroke-linejoin="round"/>
<rect x="0.145902" y="0.0841188" width="6.59976" height="18.0634" transform="matrix(-0.865401 0.50108 3.74681e-05 -1 63.9363 38.0241)" fill="white" stroke="#80AAB8" stroke-width="0.337204" stroke-linejoin="round"/>
<rect y="-0.168944" width="6.58731" height="18.2524" transform="matrix(0.865439 0.501015 -0.865439 0.501015 37.7687 2.16118)" fill="white" stroke="#80AAB8" stroke-width="0.337204" stroke-linejoin="round"/>
<path d="M22.2836 11.4402L27.3787 14.3897L11.5719 23.5413C11.4938 23.5865 11.4457 23.6699 11.4457 23.7602L11.4446 38.7514L10.1344 39.5098C10.0563 39.555 10.0082 39.6384 10.0082 39.7287C10.0082 39.8189 10.0563 39.9023 10.1344 39.9476L11.4444 40.706L11.4442 43.8186C11.4442 43.909 11.4924 43.9926 11.5708 44.0377C11.6491 44.0829 11.7456 44.0828 11.8238 44.0375L14.5112 42.4816L24.4244 48.221L24.2555 48.3187C24.1774 48.364 24.1293 48.4474 24.1293 48.5376L24.129 58.2884C24.129 58.3789 24.1772 58.4624 24.2556 58.5076C24.3339 58.5527 24.4304 58.5526 24.5086 58.5073L56.0455 40.247L57.9467 41.3479C57.9562 41.3554 57.9662 41.3622 57.9769 41.3683C58.0285 41.3981 58.0881 41.4082 58.1452 41.3986C58.1759 41.3939 58.2059 41.3836 58.2337 41.3676C58.2416 41.363 58.2492 41.358 58.2565 41.3526L63.805 38.14C63.8831 38.0948 63.9312 38.0114 63.9312 37.9211L63.9319 20.1316C63.9319 20.0411 63.8836 19.9576 63.8053 19.9124C63.794 19.9059 63.7822 19.9003 63.7702 19.8957L43.6433 8.24392L43.6435 5.41162C43.6436 5.3212 43.5953 5.23766 43.517 5.1925C43.505 5.18563 43.4927 5.17981 43.4801 5.17503L38.0416 2.02661C37.9632 1.98124 37.8665 1.98124 37.7882 2.02661L22.2836 11.0024C22.2055 11.0476 22.1574 11.131 22.1574 11.2213C22.1574 11.3115 22.2055 11.3949 22.2836 11.4402Z" stroke="#80AAB8" stroke-width="0.505806" stroke-linejoin="round"/>
<rect width="7.01813" height="18.9653" transform="matrix(0.865439 0.501015 -0.865439 0.501015 22.0737 10.8217)" fill="#B3DAE7"/>
<rect width="19.0084" height="19.9947" transform="matrix(0.86542 -0.501048 -7.51258e-05 1 11.6984 23.8239)" fill="#80AAB8"/>
<rect width="16.9303" height="20.6813" transform="matrix(-0.86542 -0.501048 0.865457 -0.500982 24.9052 48.2067)" fill="#B3DAE7"/>
<rect width="6.97887" height="21.6614" transform="matrix(0.865401 0.50108 3.75264e-05 1 5.6582 20.321)" fill="#9AC6D4"/>
<rect width="10.3809" height="21.3211" transform="matrix(3.75224e-05 -1 0.865401 -0.50108 24.3527 58.9091)" fill="#80AAB8"/>
<rect width="6.48597" height="18.0612" transform="matrix(-0.865401 0.50108 3.74681e-05 -1 28.0568 58.5931)" fill="#80AAB8"/>
<rect width="18.0599" height="25.896" transform="matrix(1.35545e-07 1 -0.865382 -0.501113 22.4458 43.8009)" fill="#9AC6D4"/>
<rect width="6.48531" height="25.8538" transform="matrix(-0.865439 0.501015 -0.865439 -0.501015 28.0222 40.5272)" fill="#B3DAE7"/>
</g>
<path d="M87.5368 29.5333V23.7951H82.1225V29.5333H78.2354V14.9779H82.1225V20.7161H87.5368V14.9779H91.4239V29.5333H87.5368Z" fill="black"/>
<path d="M96.5714 22.2556C96.5714 24.8868 97.5709 27.0141 100.042 27.0141C102.513 27.0141 103.513 24.8868 103.513 22.2556C103.513 19.6245 102.513 17.4971 100.042 17.4971C97.5709 17.4971 96.5714 19.6245 96.5714 22.2556ZM92.6842 22.2556C92.6842 18.001 95.2942 14.5581 100.042 14.5581C104.79 14.5581 107.4 18.001 107.4 22.2556C107.4 26.5103 104.79 29.9531 100.042 29.9531C95.2942 29.9531 92.6842 26.5103 92.6842 22.2556Z" fill="black"/>
<path d="M108.658 29.5333V14.9779H115.599C119.348 14.9779 121.291 16.2375 121.291 18.8967C121.291 21.2759 119.07 21.8357 119.07 21.8357V21.9757C119.07 21.9757 121.708 22.5355 121.708 25.3346C121.708 28.1337 119.903 29.5333 116.016 29.5333H108.658ZM115.599 23.3753H112.545V26.7342H115.877C117.126 26.7342 117.821 26.1744 117.821 25.0547C117.821 23.9351 116.988 23.3753 115.599 23.3753ZM112.545 20.8561H115.322C116.71 20.8561 117.404 20.2962 117.404 19.3165C117.404 18.3369 116.849 17.777 115.599 17.777H112.545V20.8561Z" fill="black"/>
<path d="M122.812 29.5333V14.9779H126.699V20.2962H128.365C132.391 20.2962 134.612 22.1157 134.612 24.9148C134.612 27.7139 132.391 29.5333 128.365 29.5333H122.812ZM127.81 23.0953H126.699V26.7342H127.81C129.892 26.7342 130.725 26.1744 130.725 24.9148C130.725 23.6552 129.892 23.0953 127.81 23.0953ZM139.61 14.9779V29.5333H135.723V14.9779H139.61Z" fill="black"/>
<path d="M142.394 13.5784V12.4587H153.084V13.5784H142.394ZM154.472 14.9779V29.5333H150.724V27.154H150.585C150.585 27.154 149.335 29.9531 146.142 29.9531C142.116 29.9531 141.006 27.294 141.006 23.9351V14.9779H144.893V23.0953C144.893 25.6145 145.587 26.7342 147.392 26.7342C149.474 26.7342 150.585 25.4746 150.585 22.5355V14.9779H154.472Z" fill="black"/>
<path d="M176.973 14.9779V27.8538C176.973 32.0525 174.752 34.9915 169.754 34.9915C163.09 34.9915 162.951 29.9531 162.951 29.9531H166.838C166.838 29.9531 166.977 32.0525 169.754 32.0525C172.225 32.0525 173.086 30.6529 173.086 28.1337V27.434H172.947C172.947 27.434 171.697 29.3933 168.643 29.3933C164.478 29.3933 162.396 25.7545 162.396 21.9757C162.396 18.1969 164.478 14.5581 168.643 14.5581C171.836 14.5581 173.086 16.9373 173.086 16.9373H173.224V14.9779H176.973ZM173.224 21.9757C173.224 19.6245 172.114 17.4971 169.754 17.4971C167.394 17.4971 166.283 19.6245 166.283 21.9757C166.283 24.3269 167.394 26.4543 169.754 26.4543C172.114 26.4543 173.224 24.3269 173.224 21.9757Z" fill="black"/>
<path d="M191.836 14.9779V29.5333H188.088V27.154H187.949C187.949 27.154 186.699 29.9531 183.506 29.9531C179.48 29.9531 178.37 27.294 178.37 23.9351V14.9779H182.257V23.0953C182.257 25.6145 182.951 26.7342 184.756 26.7342C186.838 26.7342 187.949 25.4746 187.949 22.5355V14.9779H191.836Z" fill="black"/>
<path d="M193.229 29.5333V14.9779H200.17C203.918 14.9779 205.862 16.2375 205.862 18.8967C205.862 21.2759 203.641 21.8357 203.641 21.8357V21.9757C203.641 21.9757 206.278 22.5355 206.278 25.3346C206.278 28.1337 204.474 29.5333 200.586 29.5333H193.229ZM200.17 23.3753H197.116V26.7342H200.448C201.697 26.7342 202.391 26.1744 202.391 25.0547C202.391 23.9351 201.558 23.3753 200.17 23.3753ZM197.116 20.8561H199.892C201.281 20.8561 201.975 20.2962 201.975 19.3165C201.975 18.3369 201.419 17.777 200.17 17.777H197.116V20.8561Z" fill="black"/>
<path d="M211.408 19.4565H207.521C207.743 15.7337 210.714 14.5581 214.046 14.5581C217.517 14.5581 220.293 15.8177 220.293 19.5965V29.5333H216.406V26.7342H216.267C216.267 26.7342 215.379 29.9531 211.686 29.9531C209.048 29.9531 207.105 28.7215 207.105 26.0344C207.105 23.3193 209.326 22.0877 211.714 21.4719C214.129 20.8561 216.406 20.6601 216.406 19.0366C216.406 17.889 215.573 17.2172 214.046 17.2172C212.38 17.2172 211.464 17.889 211.408 19.4565ZM216.406 22.1996C215.768 22.7874 214.463 23.0953 213.352 23.3753C212.103 23.6832 211.047 24.3269 211.047 25.6145C211.047 26.7342 211.825 27.434 213.074 27.434C215.712 27.434 216.406 24.3549 216.406 22.1996Z" fill="black"/>
<path d="M230.973 29.5333V23.7951H225.559V29.5333H221.672V14.9779H225.559V20.7161H230.973V14.9779H234.86V29.5333H230.973Z" fill="black"/>
<path fill-rule="evenodd" clip-rule="evenodd" d="M88.4119 48.1626C87.5371 48.1626 86.8406 47.8951 86.3226 47.3602C85.8045 46.8167 85.5199 46.078 85.469 45.1439C85.4605 45.0336 85.4562 44.8935 85.4562 44.7236C85.4562 44.5453 85.4605 44.401 85.469 44.2906C85.503 43.6877 85.6431 43.1612 85.8894 42.7112C86.1357 42.2526 86.4712 41.9003 86.8958 41.654C87.329 41.4078 87.8343 41.2846 88.4119 41.2846C89.0574 41.2846 89.5967 41.4205 90.0298 41.6922C90.4715 41.9639 90.807 42.3503 91.0363 42.8513C91.2656 43.3523 91.3803 43.9382 91.3803 44.609V44.8255C91.3803 44.9189 91.3505 44.9911 91.2911 45.042C91.2401 45.093 91.1722 45.1185 91.0872 45.1185H86.6793V45.2331C86.6963 45.5812 86.7727 45.9082 86.9086 46.2139C87.0445 46.5111 87.2398 46.7531 87.4946 46.9399C87.7494 47.1267 88.0552 47.2201 88.4119 47.2201C88.7176 47.2201 88.9724 47.1734 89.1763 47.08C89.3801 46.9866 89.5457 46.8847 89.6731 46.7743C89.8005 46.6554 89.8855 46.5662 89.9279 46.5068C90.0044 46.3964 90.0638 46.3327 90.1063 46.3158C90.1487 46.2903 90.2167 46.2775 90.3101 46.2775H90.9216C91.0066 46.2775 91.0745 46.303 91.1255 46.354C91.1849 46.3964 91.2104 46.4601 91.2019 46.545C91.1934 46.6724 91.1255 46.8295 90.9981 47.0163C90.8707 47.1946 90.6881 47.3729 90.4503 47.5512C90.2124 47.7296 89.9237 47.8782 89.5839 47.997C89.2442 48.1074 88.8535 48.1626 88.4119 48.1626ZM86.8831 43.1824C86.7472 43.4796 86.6793 43.8193 86.6793 44.2014V44.2396H90.17V44.2014C90.17 43.8193 90.0978 43.4796 89.9534 43.1824C89.8175 42.8852 89.6179 42.6517 89.3546 42.4819C89.0913 42.3036 88.7771 42.2144 88.4119 42.2144C88.0467 42.2144 87.7324 42.3036 87.4691 42.4819C87.2143 42.6517 87.019 42.8852 86.8831 43.1824Z" fill="black"/>
<path d="M78.5284 48.0352C78.4434 48.0352 78.3712 48.0098 78.3118 47.9588C78.2608 47.8994 78.2354 47.8272 78.2354 47.7423V41.7049C78.2354 41.62 78.2608 41.5521 78.3118 41.5012C78.3712 41.4417 78.4434 41.412 78.5284 41.412H83.5861C83.671 41.412 83.739 41.4417 83.7899 41.5012C83.8494 41.5521 83.8791 41.62 83.8791 41.7049V47.7423C83.8791 47.8272 83.8494 47.8994 83.7899 47.9588C83.739 48.0098 83.671 48.0352 83.5861 48.0352H82.9746C82.8896 48.0352 82.8217 48.0098 82.7707 47.9588C82.7198 47.8994 82.6943 47.8272 82.6943 47.7423V42.431H79.4202V47.7423C79.4202 47.8272 79.3947 47.8994 79.3437 47.9588C79.2928 48.0098 79.2248 48.0352 79.1399 48.0352H78.5284Z" fill="black"/>
<path fill-rule="evenodd" clip-rule="evenodd" d="M92.9927 50.3661C93.0522 50.4256 93.1244 50.4553 93.2093 50.4553H93.8208C93.9143 50.4553 93.9865 50.4256 94.0374 50.3661C94.0884 50.3152 94.1139 50.2472 94.1139 50.1623V47.2073C94.3262 47.4791 94.598 47.7083 94.9292 47.8951C95.2689 48.0735 95.6851 48.1626 96.1777 48.1626C96.6533 48.1626 97.0568 48.082 97.388 47.9206C97.7277 47.7508 98.0037 47.53 98.2161 47.2583C98.4369 46.9781 98.6025 46.6597 98.7129 46.303C98.8233 45.9379 98.8828 45.5558 98.8913 45.1567C98.8998 45.0208 98.904 44.8765 98.904 44.7236C98.904 44.5708 98.8998 44.4264 98.8913 44.2906C98.8828 43.883 98.8233 43.5009 98.7129 43.1442C98.6025 42.7876 98.4369 42.4692 98.2161 42.189C98.0037 41.9087 97.7277 41.688 97.388 41.5266C97.0568 41.3653 96.6533 41.2846 96.1777 41.2846C95.6681 41.2846 95.2434 41.378 94.9037 41.5648C94.564 41.7517 94.2922 41.9852 94.0884 42.2654V41.7049C94.0884 41.62 94.0586 41.5521 93.9992 41.5012C93.9482 41.4417 93.8803 41.412 93.7954 41.412H93.2093C93.1244 41.412 93.0522 41.4417 92.9927 41.5012C92.9418 41.5521 92.9163 41.62 92.9163 41.7049V50.1623C92.9163 50.2472 92.9418 50.3152 92.9927 50.3661ZM96.9421 46.8507C96.6958 47.0375 96.3518 47.1309 95.9102 47.1309C95.511 47.1309 95.1798 47.0375 94.9165 46.8507C94.6532 46.6639 94.4536 46.4261 94.3177 46.1374C94.1903 45.8487 94.1223 45.5558 94.1139 45.2586C94.1054 45.1142 94.1011 44.9486 94.1011 44.7618C94.1011 44.575 94.1054 44.4137 94.1139 44.2778C94.1308 43.9636 94.1988 43.658 94.3177 43.3608C94.4451 43.0551 94.6362 42.8046 94.891 42.6093C95.1543 42.414 95.494 42.3163 95.9102 42.3163C96.3518 42.3163 96.6958 42.414 96.9421 42.6093C97.1969 42.7961 97.3795 43.0466 97.4899 43.3608C97.6003 43.6665 97.664 43.9976 97.681 44.3543C97.6895 44.6005 97.6895 44.8467 97.681 45.093C97.664 45.4496 97.6003 45.785 97.4899 46.0992C97.3795 46.4049 97.1969 46.6554 96.9421 46.8507Z" fill="black"/>
<path fill-rule="evenodd" clip-rule="evenodd" d="M103.13 48.1626C102.255 48.1626 101.559 47.8951 101.041 47.3602C100.522 46.8167 100.238 46.078 100.187 45.1439C100.178 45.0336 100.174 44.8935 100.174 44.7236C100.174 44.5453 100.178 44.401 100.187 44.2906C100.221 43.6877 100.361 43.1612 100.607 42.7112C100.854 42.2526 101.189 41.9003 101.614 41.654C102.047 41.4078 102.552 41.2846 103.13 41.2846C103.775 41.2846 104.315 41.4205 104.748 41.6922C105.189 41.9639 105.525 42.3503 105.754 42.8513C105.984 43.3523 106.098 43.9382 106.098 44.609V44.8255C106.098 44.9189 106.069 44.9911 106.009 45.042C105.958 45.093 105.89 45.1185 105.805 45.1185H101.397V45.2331C101.414 45.5812 101.491 45.9082 101.627 46.2139C101.762 46.5111 101.958 46.7531 102.213 46.9399C102.467 47.1267 102.773 47.2201 103.13 47.2201C103.436 47.2201 103.69 47.1734 103.894 47.08C104.098 46.9866 104.264 46.8847 104.391 46.7743C104.519 46.6554 104.603 46.5662 104.646 46.5068C104.722 46.3964 104.782 46.3327 104.824 46.3158C104.867 46.2903 104.935 46.2775 105.028 46.2775H105.64C105.725 46.2775 105.792 46.303 105.843 46.354C105.903 46.3964 105.928 46.4601 105.92 46.545C105.911 46.6724 105.843 46.8295 105.716 47.0163C105.589 47.1946 105.406 47.3729 105.168 47.5512C104.93 47.7296 104.642 47.8782 104.302 47.997C103.962 48.1074 103.572 48.1626 103.13 48.1626ZM101.601 43.1824C101.465 43.4796 101.397 43.8193 101.397 44.2014V44.2396H104.888V44.2014C104.888 43.8193 104.816 43.4796 104.671 43.1824C104.535 42.8852 104.336 42.6517 104.073 42.4819C103.809 42.3036 103.495 42.2144 103.13 42.2144C102.765 42.2144 102.45 42.3036 102.187 42.4819C101.932 42.6517 101.737 42.8852 101.601 43.1824Z" fill="black"/>
<path d="M109.431 47.9588C109.49 48.0098 109.562 48.0352 109.647 48.0352H110.233C110.327 48.0352 110.399 48.0098 110.45 47.9588C110.501 47.8994 110.526 47.8272 110.526 47.7423V42.431H112.743C112.828 42.431 112.896 42.4055 112.947 42.3545C113.006 42.2951 113.036 42.2229 113.036 42.138V41.7049C113.036 41.62 113.006 41.5521 112.947 41.5012C112.896 41.4417 112.828 41.412 112.743 41.412H107.137C107.053 41.412 106.98 41.4417 106.921 41.5012C106.87 41.5521 106.844 41.62 106.844 41.7049V42.138C106.844 42.2229 106.87 42.2951 106.921 42.3545C106.98 42.4055 107.053 42.431 107.137 42.431H109.354V47.7423C109.354 47.8272 109.38 47.8994 109.431 47.9588Z" fill="black"/>
<path fill-rule="evenodd" clip-rule="evenodd" d="M118.268 48.0352C118.175 48.0352 118.103 48.0098 118.052 47.9588C118.001 47.8994 117.975 47.8272 117.975 47.7423V45.6662H116.614L115.173 47.8442C115.139 47.8867 115.092 47.9291 115.033 47.9716C114.973 48.014 114.909 48.0352 114.841 48.0352H114.23C114.153 48.0352 114.09 48.0098 114.039 47.9588C113.988 47.9079 113.962 47.8484 113.962 47.7805C113.962 47.7465 113.967 47.7126 113.975 47.6786C113.992 47.6362 114.018 47.5937 114.052 47.5512L115.468 45.4568C115.17 45.3591 114.923 45.2124 114.727 45.0166C114.345 44.6175 114.153 44.1122 114.153 43.5009C114.153 42.7876 114.362 42.2611 114.778 41.9215C115.202 41.5818 115.839 41.412 116.689 41.412H118.88C118.965 41.412 119.033 41.4417 119.084 41.5012C119.143 41.5521 119.173 41.62 119.173 41.7049V47.7423C119.173 47.8272 119.143 47.8994 119.084 47.9588C119.033 48.0098 118.965 48.0352 118.88 48.0352H118.268ZM115.568 44.367C115.78 44.5963 116.107 44.7109 116.549 44.7109H117.988V42.3673H116.651C116.175 42.3673 115.822 42.4522 115.593 42.622C115.372 42.7834 115.262 43.0763 115.262 43.5009C115.262 43.849 115.364 44.1377 115.568 44.367Z" fill="black"/>
<path d="M120.484 47.9843C120.535 48.0183 120.599 48.0352 120.676 48.0352H121.453C121.538 48.0352 121.606 48.0183 121.657 47.9843C121.716 47.9503 121.758 47.9036 121.784 47.8442L123.669 45.1694H124.638V47.7423C124.638 47.8272 124.663 47.8994 124.714 47.9588C124.774 48.0098 124.846 48.0352 124.931 48.0352H125.517C125.61 48.0352 125.682 48.0098 125.733 47.9588C125.784 47.8994 125.81 47.8272 125.81 47.7423V45.1694H126.778L128.638 47.8442C128.672 47.9036 128.714 47.9503 128.765 47.9843C128.825 48.0183 128.897 48.0352 128.982 48.0352H129.746C129.831 48.0352 129.895 48.0183 129.937 47.9843C129.98 47.9503 130.001 47.8994 130.001 47.8315C130.001 47.772 129.984 47.7168 129.95 47.6659L127.772 44.5708L129.683 41.7686C129.7 41.7432 129.712 41.7177 129.721 41.6922C129.738 41.6582 129.746 41.6328 129.746 41.6158C129.746 41.5479 129.721 41.4969 129.67 41.4629C129.627 41.429 129.568 41.412 129.492 41.412H128.816C128.74 41.412 128.672 41.429 128.613 41.4629C128.562 41.4969 128.519 41.5436 128.485 41.6031L126.74 44.1505H125.81V41.7049C125.81 41.62 125.784 41.5521 125.733 41.5012C125.682 41.4417 125.61 41.412 125.517 41.412H124.931C124.846 41.412 124.774 41.4417 124.714 41.5012C124.663 41.5521 124.638 41.62 124.638 41.7049V44.1505H123.669L121.95 41.6031C121.907 41.5436 121.86 41.4969 121.809 41.4629C121.758 41.429 121.691 41.412 121.606 41.412H120.943C120.867 41.412 120.803 41.429 120.752 41.4629C120.71 41.4969 120.688 41.5479 120.688 41.6158C120.688 41.6328 120.693 41.6582 120.701 41.6922C120.71 41.7177 120.722 41.7432 120.739 41.7686L122.663 44.5708L120.484 47.6659C120.442 47.7338 120.421 47.789 120.421 47.8315C120.421 47.8994 120.442 47.9503 120.484 47.9843Z" fill="black"/>
<path d="M131.528 48.0352C131.443 48.0352 131.371 48.0098 131.311 47.9588C131.26 47.8994 131.235 47.8272 131.235 47.7423V41.7049C131.235 41.62 131.26 41.5521 131.311 41.5012C131.371 41.4417 131.443 41.412 131.528 41.412H132.127C132.212 41.412 132.28 41.4417 132.331 41.5012C132.39 41.5521 132.42 41.62 132.42 41.7049V44.1505H133.579L135.299 41.6031C135.341 41.5436 135.388 41.4969 135.439 41.4629C135.49 41.429 135.558 41.412 135.643 41.412H136.305C136.382 41.412 136.446 41.429 136.497 41.4629C136.548 41.4969 136.573 41.5479 136.573 41.6158C136.573 41.6328 136.565 41.6582 136.548 41.6922C136.539 41.7177 136.526 41.7432 136.509 41.7686L134.598 44.5835L136.764 47.6659C136.807 47.7168 136.828 47.772 136.828 47.8315C136.828 47.8994 136.802 47.9503 136.751 47.9843C136.709 48.0183 136.649 48.0352 136.573 48.0352H135.796C135.719 48.0352 135.656 48.0183 135.605 47.9843C135.554 47.9503 135.507 47.9036 135.465 47.8442L133.592 45.1822H132.42V47.7423C132.42 47.8272 132.39 47.8994 132.331 47.9588C132.28 48.0098 132.212 48.0352 132.127 48.0352H131.528Z" fill="black"/>
<path fill-rule="evenodd" clip-rule="evenodd" d="M138.753 47.9079C139.101 48.0777 139.488 48.1626 139.913 48.1626C140.32 48.1626 140.664 48.1159 140.944 48.0225C141.225 47.9206 141.458 47.7975 141.645 47.6531C141.832 47.5003 141.981 47.3475 142.091 47.1946V47.7423C142.091 47.8272 142.117 47.8994 142.167 47.9588C142.218 48.0098 142.291 48.0352 142.384 48.0352H142.97C143.055 48.0352 143.123 48.0098 143.174 47.9588C143.233 47.8994 143.263 47.8272 143.263 47.7423V43.6155C143.263 43.3268 143.216 43.0423 143.123 42.7621C143.038 42.4819 142.894 42.2314 142.69 42.0106C142.494 41.7899 142.223 41.6158 141.874 41.4884C141.526 41.3526 141.097 41.2846 140.588 41.2846C140.129 41.2846 139.738 41.3483 139.416 41.4757C139.101 41.5946 138.842 41.7432 138.639 41.9215C138.435 42.0998 138.282 42.2824 138.18 42.4692C138.086 42.656 138.04 42.8131 138.04 42.9404C138.04 43.0169 138.061 43.0848 138.103 43.1442C138.154 43.1952 138.227 43.2207 138.32 43.2207H138.893C139.021 43.2207 139.11 43.157 139.161 43.0296C139.254 42.7918 139.416 42.5965 139.645 42.4437C139.883 42.2909 140.193 42.2144 140.575 42.2144C141.102 42.2144 141.48 42.3291 141.709 42.5583C141.947 42.7876 142.066 43.106 142.066 43.5136V43.883L140.167 44.1505C139.403 44.2608 138.783 44.4901 138.307 44.8383C137.832 45.1864 137.594 45.6534 137.594 46.2393C137.594 46.6045 137.7 46.9314 137.912 47.2201C138.125 47.5088 138.405 47.7381 138.753 47.9079ZM141.136 46.9908C140.847 47.1352 140.528 47.2073 140.18 47.2073C139.951 47.2073 139.726 47.1691 139.505 47.0927C139.293 47.0163 139.114 46.9017 138.97 46.7488C138.834 46.5875 138.766 46.3879 138.766 46.1502C138.766 45.8445 138.919 45.594 139.225 45.3987C139.53 45.1949 139.985 45.0505 140.588 44.9656L142.066 44.7491V45.1057C142.066 45.5812 141.981 45.9761 141.811 46.2903C141.649 46.6045 141.424 46.838 141.136 46.9908Z" fill="black"/>
<path fill-rule="evenodd" clip-rule="evenodd" d="M209.893 48.1626C209.239 48.1626 208.691 48.0395 208.249 47.7932C207.816 47.5385 207.485 47.1819 207.256 46.7233C207.035 46.2563 206.916 45.7171 206.899 45.1057C206.891 44.851 206.886 44.5963 206.886 44.3415C206.886 44.0868 206.891 43.832 206.899 43.5773C206.899 42.8046 206.963 42.1635 207.09 41.654C207.218 41.1445 207.409 40.7284 207.663 40.4058C207.927 40.0746 208.258 39.8029 208.657 39.5906C209.056 39.3783 209.528 39.1958 210.071 39.0429C210.615 38.8816 211.235 38.7118 211.931 38.5334C212.008 38.5164 212.08 38.5292 212.148 38.5716C212.224 38.6141 212.267 38.6735 212.275 38.75L212.377 39.2722C212.394 39.3486 212.381 39.4165 212.339 39.476C212.305 39.5354 212.25 39.5736 212.173 39.5906C211.536 39.7519 210.98 39.892 210.504 40.0109C210.029 40.1298 209.63 40.2699 209.307 40.4312C208.984 40.5841 208.725 40.7836 208.53 41.0299C208.334 41.2761 208.199 41.6031 208.122 42.0106C208.086 42.2286 208.063 42.4794 208.053 42.763C208.09 42.7106 208.13 42.6594 208.173 42.6093C208.402 42.346 208.687 42.1338 209.027 41.9724C209.366 41.8111 209.727 41.7304 210.109 41.7304C210.696 41.7304 211.188 41.8535 211.587 42.0998C211.995 42.346 212.305 42.6815 212.517 43.106C212.738 43.5306 212.861 44.0188 212.887 44.5708C212.904 44.8595 212.904 45.11 212.887 45.3223C212.861 45.8742 212.734 46.3667 212.505 46.7998C212.275 47.2243 211.944 47.5597 211.511 47.806C211.078 48.0437 210.538 48.1626 209.893 48.1626ZM209.893 47.2201C210.428 47.2201 210.853 47.0545 211.167 46.7233C211.481 46.3922 211.647 45.9082 211.664 45.2713C211.672 45.1864 211.676 45.0888 211.676 44.9784C211.676 44.868 211.672 44.7533 211.664 44.6345C211.647 43.9891 211.481 43.5009 211.167 43.1697C210.861 42.8385 210.475 42.673 210.008 42.673C209.473 42.673 209.031 42.8385 208.683 43.1697C208.334 43.5009 208.148 43.9891 208.122 44.6345C208.114 44.7533 208.109 44.868 208.109 44.9784C208.109 45.0888 208.114 45.1864 208.122 45.2713C208.148 45.9082 208.317 46.3922 208.632 46.7233C208.946 47.0545 209.366 47.2201 209.893 47.2201Z" fill="black"/>
<path d="M191.558 48.0352C191.473 48.0352 191.405 48.0098 191.354 47.9588C191.303 47.9079 191.277 47.8399 191.277 47.755V41.654C191.277 41.5861 191.303 41.5309 191.354 41.4884C191.413 41.4375 191.473 41.412 191.532 41.412H192.182C192.318 41.412 192.424 41.4799 192.5 41.6158L194.666 45.6662L196.845 41.6158C196.921 41.4799 197.027 41.412 197.163 41.412H197.8C197.868 41.412 197.928 41.4375 197.979 41.4884C198.029 41.5309 198.055 41.5861 198.055 41.654V47.755C198.055 47.8399 198.029 47.9079 197.979 47.9588C197.928 48.0098 197.864 48.0352 197.787 48.0352H197.163C197.078 48.0352 197.01 48.0098 196.959 47.9588C196.908 47.9079 196.883 47.8399 196.883 47.755V43.5663L195.252 46.6469C195.21 46.7318 195.159 46.8082 195.099 46.8762C195.04 46.9441 194.951 46.9781 194.832 46.9781H194.501C194.39 46.9781 194.305 46.9441 194.246 46.8762C194.186 46.8082 194.131 46.7318 194.08 46.6469L192.462 43.6472V47.755C192.462 47.8399 192.437 47.9079 192.386 47.9588C192.335 48.0098 192.267 48.0352 192.182 48.0352H191.558Z" fill="black"/>
<path fill-rule="evenodd" clip-rule="evenodd" d="M200.509 47.3602C201.027 47.8951 201.724 48.1626 202.598 48.1626C203.04 48.1626 203.431 48.1074 203.771 47.997C204.11 47.8782 204.399 47.7296 204.637 47.5512C204.875 47.3729 205.057 47.1946 205.185 47.0163C205.312 46.8295 205.38 46.6724 205.388 46.545C205.397 46.4601 205.372 46.3964 205.312 46.354C205.261 46.303 205.193 46.2775 205.108 46.2775H204.497C204.403 46.2775 204.335 46.2903 204.293 46.3158C204.25 46.3327 204.191 46.3964 204.115 46.5068C204.072 46.5662 203.987 46.6554 203.86 46.7743C203.732 46.8847 203.567 46.9866 203.363 47.08C203.159 47.1734 202.904 47.2201 202.598 47.2201C202.242 47.2201 201.936 47.1267 201.681 46.9399C201.426 46.7531 201.231 46.5111 201.095 46.2139C200.959 45.9082 200.883 45.5813 200.866 45.2331V45.1185H205.274C205.359 45.1185 205.427 45.093 205.478 45.042C205.537 44.9911 205.567 44.9189 205.567 44.8255V44.609C205.567 43.9382 205.452 43.3523 205.223 42.8513C204.994 42.3503 204.658 41.9639 204.216 41.6922C203.783 41.4205 203.244 41.2846 202.598 41.2846C202.021 41.2846 201.516 41.4078 201.082 41.654C200.658 41.9003 200.322 42.2526 200.076 42.7112C199.83 43.1612 199.69 43.6877 199.656 44.2906C199.647 44.401 199.643 44.5453 199.643 44.7236C199.643 44.8935 199.647 45.0336 199.656 45.1439C199.707 46.078 199.991 46.8167 200.509 47.3602ZM204.14 43.1824C204.284 43.4796 204.357 43.8193 204.357 44.2014V44.2396H200.866V44.2014C200.866 43.8193 200.934 43.4796 201.07 43.1824C201.206 42.8852 201.401 42.6517 201.656 42.4819C201.919 42.3036 202.233 42.2144 202.598 42.2144C202.964 42.2144 203.278 42.3036 203.541 42.4819C203.805 42.6517 204.004 42.8852 204.14 43.1824Z" fill="black"/>
<path fill-rule="evenodd" clip-rule="evenodd" d="M215.04 47.3602C215.559 47.8951 216.255 48.1626 217.13 48.1626C217.571 48.1626 217.962 48.1074 218.302 47.997C218.642 47.8782 218.93 47.7296 219.168 47.5512C219.406 47.3729 219.589 47.1946 219.716 47.0163C219.843 46.8295 219.911 46.6724 219.92 46.545C219.928 46.4601 219.903 46.3964 219.843 46.354C219.792 46.303 219.725 46.2775 219.64 46.2775H219.028C218.935 46.2775 218.867 46.2903 218.824 46.3158C218.782 46.3327 218.722 46.3964 218.646 46.5068C218.603 46.5662 218.518 46.6554 218.391 46.7743C218.264 46.8847 218.098 46.9866 217.894 47.08C217.69 47.1734 217.436 47.2201 217.13 47.2201C216.773 47.2201 216.467 47.1267 216.213 46.9399C215.958 46.7531 215.762 46.5111 215.627 46.2139C215.491 45.9082 215.414 45.5813 215.397 45.2331V45.1185H219.805C219.89 45.1185 219.958 45.093 220.009 45.042C220.068 44.9911 220.098 44.9189 220.098 44.8255V44.609C220.098 43.9382 219.984 43.3523 219.754 42.8513C219.525 42.3503 219.189 41.9639 218.748 41.6922C218.315 41.4205 217.775 41.2846 217.13 41.2846C216.552 41.2846 216.047 41.4078 215.614 41.654C215.189 41.9003 214.854 42.2526 214.607 42.7112C214.361 43.1612 214.221 43.6877 214.187 44.2906C214.178 44.401 214.174 44.5453 214.174 44.7236C214.174 44.8935 214.178 45.0336 214.187 45.1439C214.238 46.078 214.522 46.8167 215.04 47.3602ZM218.671 43.1824C218.816 43.4796 218.888 43.8193 218.888 44.2014V44.2396H215.397V44.2014C215.397 43.8193 215.465 43.4796 215.601 43.1824C215.737 42.8852 215.932 42.6517 216.187 42.4819C216.45 42.3036 216.765 42.2144 217.13 42.2144C217.495 42.2144 217.809 42.3036 218.073 42.4819C218.336 42.6517 218.535 42.8852 218.671 43.1824Z" fill="black"/>
<path d="M221.253 48.0352C221.168 48.0352 221.096 48.0055 221.037 47.9461C220.977 47.8867 220.947 47.8145 220.947 47.7296V47.2583C220.947 47.08 221.037 46.9866 221.215 46.9781C221.478 46.9696 221.699 46.8465 221.878 46.6087C222.056 46.3625 222.192 45.9761 222.285 45.4496C222.379 44.9147 222.425 44.2099 222.425 43.3353V41.705C222.425 41.62 222.451 41.5521 222.502 41.5012C222.561 41.4417 222.633 41.412 222.718 41.412H226.77C226.855 41.412 226.922 41.4417 226.973 41.5012C227.033 41.5521 227.063 41.62 227.063 41.705V47.7423C227.063 47.8272 227.033 47.8994 226.973 47.9588C226.922 48.0098 226.855 48.0352 226.77 48.0352H226.158C226.073 48.0352 226.005 48.0098 225.954 47.9588C225.903 47.8994 225.878 47.8272 225.878 47.7423V42.431H223.585V43.4754C223.585 44.2906 223.538 44.9911 223.445 45.577C223.351 46.1544 223.207 46.6257 223.011 46.9908C222.824 47.3475 222.582 47.6107 222.285 47.7805C221.996 47.9503 221.652 48.0352 221.253 48.0352Z" fill="black"/>
<path d="M229.038 47.9588C229.098 48.0098 229.166 48.0352 229.242 48.0352H229.815C229.9 48.0352 229.968 48.014 230.019 47.9716C230.07 47.9291 230.113 47.8867 230.147 47.8442L233.676 43.1246V47.7423C233.676 47.8272 233.701 47.8994 233.752 47.9588C233.803 48.0098 233.875 48.0352 233.969 48.0352H234.567C234.652 48.0352 234.72 48.0098 234.771 47.9588C234.831 47.8994 234.86 47.8272 234.86 47.7423V41.6667C234.86 41.5988 234.831 41.5394 234.771 41.4884C234.72 41.4375 234.661 41.412 234.593 41.412H234.007C233.93 41.412 233.867 41.4332 233.816 41.4757C233.765 41.5096 233.718 41.5521 233.676 41.6031L230.147 46.3189V41.705C230.147 41.62 230.121 41.5521 230.07 41.5012C230.019 41.4417 229.951 41.412 229.866 41.412H229.255C229.17 41.412 229.098 41.4417 229.038 41.5012C228.987 41.5521 228.962 41.62 228.962 41.705V47.7678C228.962 47.8357 228.987 47.8994 229.038 47.9588Z" fill="black"/>
<path d="M181.859 47.9588C181.918 48.0098 181.986 48.0353 182.063 48.0353H182.636C182.721 48.0353 182.789 48.014 182.84 47.9716C182.891 47.9291 182.933 47.8867 182.967 47.8442L186.496 43.1246V47.7423C186.496 47.8272 186.521 47.8994 186.572 47.9588C186.623 48.0098 186.696 48.0353 186.789 48.0353H187.388C187.473 48.0353 187.541 48.0098 187.592 47.9588C187.651 47.8994 187.681 47.8272 187.681 47.7423V41.6668C187.681 41.5988 187.651 41.5394 187.592 41.4884C187.541 41.4375 187.481 41.412 187.413 41.412H186.827C186.751 41.412 186.687 41.4332 186.636 41.4757C186.585 41.5097 186.538 41.5521 186.496 41.6031L182.967 46.3189V41.705C182.967 41.6201 182.942 41.5521 182.891 41.5012C182.84 41.4417 182.772 41.412 182.687 41.412H182.075C181.99 41.412 181.918 41.4417 181.859 41.5012C181.808 41.5521 181.782 41.6201 181.782 41.705V47.7678C181.782 47.8357 181.808 47.8994 181.859 47.9588Z" fill="black"/>
<path d="M183.604 40.3039C183.884 40.4567 184.271 40.5332 184.763 40.5332C185.256 40.5332 185.642 40.4567 185.923 40.3039C186.203 40.1511 186.398 39.9558 186.509 39.718C186.628 39.4717 186.687 39.217 186.687 38.9538C186.687 38.8858 186.666 38.8306 186.623 38.7882C186.581 38.7372 186.521 38.7118 186.445 38.7118H185.999C185.923 38.7118 185.863 38.7372 185.821 38.7882C185.778 38.8306 185.757 38.8858 185.757 38.9538C185.757 39.1491 185.693 39.3316 185.566 39.5015C185.439 39.6628 185.171 39.7435 184.763 39.7435C184.364 39.7435 184.097 39.6628 183.961 39.5015C183.833 39.3316 183.77 39.1491 183.77 38.9538C183.77 38.8858 183.748 38.8306 183.706 38.7882C183.663 38.7372 183.604 38.7118 183.528 38.7118H183.094C183.009 38.7118 182.946 38.7372 182.903 38.7882C182.869 38.8306 182.852 38.8858 182.852 38.9538C182.852 39.217 182.908 39.4717 183.018 39.718C183.128 39.9558 183.324 40.1511 183.604 40.3039Z" fill="black"/>
<path d="M147.14 48.0353C147.055 48.0353 146.987 48.0098 146.936 47.9588C146.885 47.9079 146.86 47.84 146.86 47.7551V41.654C146.86 41.5861 146.885 41.5309 146.936 41.4884C146.996 41.4375 147.055 41.412 147.114 41.412H147.764C147.9 41.412 148.006 41.4799 148.083 41.6158L150.248 45.6662L152.427 41.6158C152.503 41.4799 152.61 41.412 152.745 41.412H153.382C153.45 41.412 153.51 41.4375 153.561 41.4884C153.612 41.5309 153.637 41.5861 153.637 41.654V47.7551C153.637 47.84 153.612 47.9079 153.561 47.9588C153.51 48.0098 153.446 48.0353 153.37 48.0353H152.745C152.661 48.0353 152.593 48.0098 152.542 47.9588C152.491 47.9079 152.465 47.84 152.465 47.7551V43.5663L150.835 46.6469C150.792 46.7318 150.741 46.8083 150.682 46.8762C150.622 46.9441 150.533 46.9781 150.414 46.9781H150.083C149.972 46.9781 149.888 46.9441 149.828 46.8762C149.769 46.8083 149.713 46.7318 149.662 46.6469L148.044 43.6472V47.7551C148.044 47.84 148.019 47.9079 147.968 47.9588C147.917 48.0098 147.849 48.0353 147.764 48.0353H147.14Z" fill="black"/>
<path fill-rule="evenodd" clip-rule="evenodd" d="M159.455 47.9588C159.506 48.0098 159.578 48.0353 159.671 48.0353H160.283C160.368 48.0353 160.436 48.0098 160.487 47.9588C160.546 47.8994 160.576 47.8272 160.576 47.7423V41.705C160.576 41.6201 160.546 41.5521 160.487 41.5012C160.436 41.4417 160.368 41.412 160.283 41.412H158.092C157.242 41.412 156.605 41.5818 156.181 41.9215C155.764 42.2612 155.556 42.7876 155.556 43.5009C155.556 44.1123 155.748 44.6175 156.13 45.0166C156.326 45.2124 156.573 45.3591 156.871 45.4568L155.454 47.5513C155.421 47.5937 155.395 47.6362 155.378 47.6786C155.37 47.7126 155.365 47.7466 155.365 47.7805C155.365 47.8485 155.391 47.9079 155.442 47.9588C155.493 48.0098 155.556 48.0353 155.633 48.0353H156.244C156.312 48.0353 156.376 48.014 156.435 47.9716C156.495 47.9291 156.542 47.8867 156.576 47.8442L158.017 45.6662H159.378V47.7423C159.378 47.8272 159.404 47.8994 159.455 47.9588ZM156.996 42.622C157.225 42.4522 157.578 42.3673 158.053 42.3673H159.391V44.7109H157.951C157.51 44.7109 157.183 44.5963 156.971 44.367C156.767 44.1377 156.665 43.849 156.665 43.5009C156.665 43.0763 156.775 42.7834 156.996 42.622Z" fill="black"/>
<path d="M162.766 48.0353C162.682 48.0353 162.609 48.0098 162.55 47.9588C162.499 47.8994 162.473 47.8272 162.473 47.7423V41.705C162.473 41.6201 162.499 41.5521 162.55 41.5012C162.609 41.4417 162.682 41.412 162.766 41.412H166.576C166.661 41.412 166.729 41.4417 166.779 41.5012C166.83 41.5521 166.856 41.6201 166.856 41.705V42.138C166.856 42.2229 166.83 42.2951 166.779 42.3546C166.729 42.4055 166.661 42.431 166.576 42.431H163.658V47.7423C163.658 47.8272 163.633 47.8994 163.582 47.9588C163.531 48.0098 163.463 48.0353 163.378 48.0353H162.766Z" fill="black"/>
<path d="M168.024 47.9588C168.083 48.0098 168.156 48.0353 168.241 48.0353H168.839C168.924 48.0353 168.992 48.0098 169.043 47.9588C169.103 47.8994 169.132 47.8272 169.132 47.7423V45.1822H170.304L172.177 47.8442C172.22 47.9037 172.266 47.9504 172.317 47.9843C172.368 48.0183 172.432 48.0353 172.508 48.0353H173.286C173.362 48.0353 173.421 48.0183 173.464 47.9843C173.515 47.9504 173.54 47.8994 173.54 47.8315C173.54 47.772 173.519 47.7168 173.477 47.6659L171.311 44.5835L173.222 41.7687C173.239 41.7432 173.252 41.7177 173.26 41.6922C173.277 41.6583 173.286 41.6328 173.286 41.6158C173.286 41.5479 173.26 41.4969 173.209 41.463C173.158 41.429 173.094 41.412 173.018 41.412H172.356C172.271 41.412 172.203 41.429 172.152 41.463C172.101 41.4969 172.054 41.5436 172.012 41.6031L170.292 44.1505H169.132V41.705C169.132 41.6201 169.103 41.5521 169.043 41.5012C168.992 41.4417 168.924 41.412 168.839 41.412H168.241C168.156 41.412 168.083 41.4417 168.024 41.5012C167.973 41.5521 167.948 41.6201 167.948 41.705V47.7423C167.948 47.8272 167.973 47.8994 168.024 47.9588Z" fill="black"/>
<path fill-rule="evenodd" clip-rule="evenodd" d="M177.18 48.1626C176.535 48.1626 175.996 48.0395 175.562 47.7933C175.129 47.547 174.798 47.2074 174.569 46.7743C174.339 46.3328 174.212 45.8318 174.187 45.2713C174.178 45.127 174.174 44.9444 174.174 44.7236C174.174 44.4944 174.178 44.3118 174.187 44.176C174.212 43.607 174.339 43.106 174.569 42.673C174.807 42.2399 175.142 41.9003 175.575 41.654C176.008 41.4078 176.543 41.2846 177.18 41.2846C177.817 41.2846 178.352 41.4078 178.786 41.654C179.219 41.9003 179.55 42.2399 179.779 42.673C180.017 43.106 180.149 43.607 180.174 44.176C180.183 44.3118 180.187 44.4944 180.187 44.7236C180.187 44.9444 180.183 45.127 180.174 45.2713C180.149 45.8318 180.021 46.3328 179.792 46.7743C179.563 47.2074 179.231 47.547 178.798 47.7933C178.365 48.0395 177.826 48.1626 177.18 48.1626ZM177.18 47.1819C177.707 47.1819 178.127 47.0163 178.442 46.6851C178.756 46.3455 178.926 45.853 178.951 45.2077C178.96 45.0803 178.964 44.9189 178.964 44.7236C178.964 44.5283 178.96 44.367 178.951 44.2396C178.926 43.5943 178.756 43.106 178.442 42.7749C178.127 42.4352 177.707 42.2654 177.18 42.2654C176.654 42.2654 176.229 42.4352 175.906 42.7749C175.592 43.106 175.427 43.5943 175.41 44.2396C175.401 44.367 175.397 44.5283 175.397 44.7236C175.397 44.9189 175.401 45.0803 175.41 45.2077C175.427 45.853 175.592 46.3455 175.906 46.6851C176.229 47.0163 176.654 47.1819 177.18 47.1819Z" fill="black"/>
<defs>
<clipPath id="clip0_283_6104">
<rect width="64.7266" height="60.5293" fill="white" transform="translate(0.254639 1.19226)"/>
</clipPath>
</defs>
</svg>
