<svg width="56" height="56" viewBox="0 0 56 56" fill="none" xmlns="http://www.w3.org/2000/svg">
<g clip-path="url(#clip0_283_643)">
<path d="M56 28C56 12.536 43.464 0 28 0C12.536 0 0 12.536 0 28C0 43.464 12.536 56 28 56C43.464 56 56 43.464 56 28Z" fill="#E9ECFF"/>
<path fill-rule="evenodd" clip-rule="evenodd" d="M30.704 12.8256C30.8845 12.7203 31.1068 12.7165 31.2908 12.8156L44.1427 19.7359L44.3005 19.8208V20V32.8208C44.3005 33.0415 44.1793 33.2445 43.9849 33.3491L31.1427 40.2642L30.9874 40.3478L30.8387 40.2527L19.2366 32.8273C19.1753 32.8151 19.1141 32.8023 19.0533 32.7889L18.339 34.9318L19.8958 35.4254L20.4678 35.6068L20.2864 36.1787L18.0181 43.3325C17.5744 44.7319 16.0803 45.5065 14.681 45.0628C13.2817 44.6191 12.507 43.1251 12.9507 41.7258L15.219 34.5719L15.4004 34L15.9723 34.1814L17.767 34.7504L18.4705 32.6397C14.7314 31.5468 12 28.0924 12 24C12 19.0294 16.0294 15 21 15C22.5162 15 23.9448 15.3749 25.1982 16.0371L26.8493 15.0742L30.704 12.8256ZM30.7005 39.4518L20.6063 32.9916C20.7368 32.9972 20.8681 33 21 33C24.9634 33 28.3284 30.4381 29.5294 26.8799L30.7005 27.6606V39.4518ZM31.016 27.1498L29.7091 26.2785C29.8989 25.5508 30 24.7872 30 24C30 22.6787 29.7153 21.4239 29.2038 20.2936L35.9062 24.4824L31.016 27.1498ZM28.659 19.2456C28.651 19.2406 28.6428 19.236 28.6345 19.2319C27.915 18.0822 26.943 17.1067 25.7961 16.383L27.0046 15.6782L39.7005 22.6772V26.8259L36.8005 28.4831V24.5V24.3337L36.6595 24.2456L28.659 19.2456ZM27.6085 15.326L39.9909 22.1522L43.4035 20.0193L31.0063 13.3439L27.6085 15.326ZM43.7005 20.5413L40.3005 22.6663V26.8259C40.3005 27.0412 40.1851 27.24 39.9981 27.3469L37.0981 29.004C36.6982 29.2326 36.2005 28.9437 36.2005 28.4831V25.0054L31.3005 27.6781V39.4977L43.7005 32.8208V20.5413ZM21 32.4C25.6392 32.4 29.4 28.6392 29.4 24C29.4 19.3608 25.6392 15.6 21 15.6C16.3608 15.6 12.6 19.3608 12.6 24C12.6 28.6392 16.3608 32.4 21 32.4ZM15.791 34.7533L19.7145 35.9974L17.4461 43.1512C17.1026 44.2346 15.9458 44.8344 14.8623 44.4909C13.7789 44.1474 13.1791 42.9906 13.5226 41.9071L15.791 34.7533ZM16.2849 22.0949C16.3373 21.9377 16.2524 21.7678 16.0952 21.7154C15.938 21.663 15.7681 21.748 15.7157 21.9051C15.3679 22.9484 15.1567 24.5915 15.6652 26.1434C16.1811 27.7178 17.4289 29.1664 19.9275 29.7911C20.0883 29.8312 20.2512 29.7335 20.2913 29.5728C20.3315 29.412 20.2338 29.2492 20.0731 29.209C17.7717 28.6336 16.6862 27.3322 16.2354 25.9566C15.7772 24.5585 15.966 23.0516 16.2849 22.0949Z" fill="#423C39"/>
</g>
<defs>
<clipPath id="clip0_283_643">
<rect width="56" height="56" fill="white"/>
</clipPath>
</defs>
</svg>
