<svg width="36" height="30" viewBox="0 0 36 30" fill="none" xmlns="http://www.w3.org/2000/svg">
<g clip-path="url(#clip0_129_5980)">
<path d="M9.19621 21.4724C9.18036 21.8931 9.35062 22.7346 10.1585 22.7346C10.9663 22.7346 21.5188 22.7346 26.694 22.7346C27.0229 22.7346 27.67 22.4822 27.6264 21.4724M9.19621 21.4724C9.25482 19.9986 9.22712 18.3869 9.06923 16.6758M9.19621 21.4724C9.08964 24.1518 8.69778 26.375 8.28429 27.9099C8.19636 28.2363 8.10745 28.5316 8.02009 28.7935M27.6264 21.4724C27.5302 19.8317 27.5257 18.0757 27.6703 16.2971M27.6264 21.4724C27.7751 24.0074 28.1428 26.2672 28.5178 27.9099C28.5905 28.2284 28.6635 28.5238 28.7352 28.7935M27.6703 16.2971C27.8359 14.2607 28.197 12.1947 28.8398 10.2383C29.2254 9.31293 30.2588 8.82334 31.3643 8.77314M27.6703 16.2971C27.5973 16.0868 27.2999 15.666 26.694 15.666C26.0881 15.666 15.4179 15.666 10.1585 15.666C9.76635 15.6239 8.99955 15.767 9.06923 16.6758M9.06923 16.6758C8.88212 14.6481 8.51217 12.4808 7.88637 10.2383C7.40985 9.0287 6.41174 8.52162 5.3619 8.5347M8.02009 28.7935C8.01459 28.8099 8.0091 28.8263 8.00362 28.8425C7.93619 29.0419 7.74694 29.1722 7.53648 29.1722H6.08394C5.9453 29.1722 5.81189 29.1154 5.71931 29.0122C2.24813 25.1428 2.84775 18.2751 3.59471 15.2874C-0.192053 12.5104 2.79655 8.56668 5.3619 8.5347M8.02009 28.7935H28.7352M28.7352 28.7935C28.7363 28.7976 28.7374 28.8016 28.7385 28.8057C28.7964 29.0233 28.9949 29.1722 29.22 29.1722H30.6691C30.7918 29.1722 30.9107 29.1284 30.9998 29.0441C34.1819 26.0293 33.8384 18.6468 33.2577 15.2874C37.2969 12.1317 33.8779 8.65902 31.3643 8.77314M5.3619 8.5347C5.6985 5.90486 7.68444 0.619933 12.9354 0.518952C18.1864 0.417972 22.6969 0.476877 24.2957 0.518952C26.694 0.518952 31.0614 2.95589 31.3643 8.77314M13.9452 5.31554C13.6086 5.44177 12.6325 6.89412 12.9354 7.5C13.2384 8.10588 15.1634 8.3366 15.5 8M23.0335 5.31554C22.6969 5.44177 21.1971 7.01305 21.5 7.61893C21.8029 8.22481 24.4591 7.95553 24.7957 7.61893" stroke="black" stroke-opacity="0.85" stroke-width="1.3" stroke-linecap="round" stroke-linejoin="round"/>
</g>
<defs>
<clipPath id="clip0_129_5980">
<rect width="35" height="30" fill="white" transform="translate(0.5)"/>
</clipPath>
</defs>
</svg>
