<svg width="249" height="138" viewBox="0 0 249 138" fill="none" xmlns="http://www.w3.org/2000/svg">
<ellipse cx="124.505" cy="68.6486" rx="117.686" ry="45.1673" transform="rotate(-12 124.505 68.6486)" fill="#A25AE6"/>
<path d="M42.506 97.5963L38.8908 80.5883L48.4336 78.5599C52.3071 77.7366 54.5146 79.2916 55.0311 81.7213C55.4652 83.7637 54.4542 85.4139 53.0021 86.201C54.923 86.2344 56.6631 87.6679 57.0898 89.6751C57.6511 92.3161 56.2392 94.6772 52.1544 95.5455L42.506 97.5963ZM51.398 83.156C51.1734 82.0996 50.3195 81.545 49.1222 81.7995L43.2768 83.042L44.0103 86.4929L49.8557 85.2504C51.053 84.9959 51.6001 84.1068 51.398 83.156ZM53.1744 89.9552C52.9574 88.9341 52.0233 88.1757 50.65 88.4676L44.6989 89.7325L45.5148 93.5708L51.4658 92.3058C52.7687 92.0289 53.4289 91.1525 53.1744 89.9552ZM83.765 88.8264L80.8384 75.058L73.0211 76.7197L75.9476 90.4881L72.2502 91.274L68.6351 74.266L83.8472 71.0325L87.4624 88.0405L83.765 88.8264ZM100.735 85.6611C95.347 86.8063 91.141 83.4678 90.1006 78.5731C89.0677 73.7137 91.5522 68.9531 96.9398 67.8079C102.398 66.6478 106.569 69.9937 107.602 74.8532C108.642 79.7478 106.193 84.5009 100.735 85.6611ZM100.039 82.3862C103.208 81.7126 104.407 78.6974 103.763 75.669C103.127 72.6759 100.805 70.4091 97.6359 71.0828C94.5019 71.7489 93.3026 74.7642 93.9388 77.7573C94.5825 80.7856 96.9046 83.0524 100.039 82.3862ZM111.065 79.6376L112.615 79.3083C113.236 77.5568 113.487 74.9272 112.724 69.0901L112.188 65.0085L125.111 62.2615L128.038 76.0299L129.904 75.6332L131.514 83.2041L128.274 83.8927L127.353 79.5615L114.993 82.1886L115.914 86.5199L112.674 87.2085L111.065 79.6376ZM116.209 69.38C117.067 74.9759 116.616 77.3537 116.136 78.5598L124.341 76.8158L122.103 66.2871L115.94 67.5969L116.209 69.38ZM144.724 75.8693L144.334 74.0382C143.374 75.7514 141.574 76.9804 139.32 77.4595C136.538 78.0508 133.008 76.8506 132.207 73.0828C131.376 69.1741 134.166 66.8882 136.947 66.2969C139.236 65.8103 141.365 66.1307 142.905 67.3125L142.366 64.7771C141.947 62.8051 140.072 61.9522 137.713 62.4537C135.812 62.8579 134.306 63.9139 133.134 65.672L131.074 63.4233C132.649 61.1378 134.927 59.7336 137.638 59.1572C141.406 58.3564 145.053 59.2374 146.026 63.8151L148.421 75.0834L144.724 75.8693ZM143.9 71.9958L143.354 69.4253C142.262 68.4428 140.55 68.181 138.93 68.5253C136.853 68.9669 135.558 70.4935 135.954 72.3598C136.344 74.1909 138.147 75.0588 140.225 74.6172C141.845 74.2729 143.302 73.3375 143.9 71.9958ZM158.994 79.6081L155.296 80.394L150.304 56.9067L154.001 56.1208L154.495 58.4449C155.404 56.4852 157.151 55.0097 159.369 54.5381C163.771 53.6025 167.609 56.2464 168.799 61.8453C169.989 67.4442 167.566 71.4557 163.164 72.3913C161.016 72.8478 158.877 72.3087 157.115 70.7696L158.994 79.6081ZM164.961 62.6612C164.264 59.3863 161.897 57.4237 158.974 58.045C157.248 58.4117 155.634 59.8221 155.094 61.262L156.524 67.9877C157.595 69.048 159.651 69.7152 161.377 69.3485C164.299 68.7272 165.664 65.9712 164.961 62.6612ZM182.816 68.2141C177.428 69.3593 173.222 66.0209 172.182 61.1262C171.149 56.2668 173.634 51.5062 179.021 50.361C184.479 49.2008 188.65 52.5468 189.683 57.4062C190.723 62.3009 188.274 67.054 182.816 68.2141ZM182.12 64.9393C185.289 64.2657 186.488 61.2504 185.845 58.2221C185.209 55.229 182.887 52.9622 179.717 53.6358C176.583 54.302 175.384 57.3172 176.02 60.3104C176.664 63.3387 178.986 65.6055 182.12 64.9393ZM207.208 62.5878L200.507 56.6881L198.664 59.6193L199.637 64.1971L195.94 64.983L192.325 47.9749L196.022 47.189L197.766 55.3937L203.522 45.5948L208.1 44.6217L202.661 53.8379L211.856 61.5998L207.208 62.5878Z" fill="white"/>
</svg>
