<svg width="25" height="25" viewBox="0 0 25 25" fill="none" xmlns="http://www.w3.org/2000/svg">
<path fill-rule="evenodd" clip-rule="evenodd" d="M20.6231 9.69487C20.7419 9.30224 20.6231 9.01778 20.0983 9.01778H18.3525C17.9123 9.01778 17.709 9.26743 17.5902 9.53411C17.5902 9.53411 16.6921 11.8121 15.4384 13.2892C15.0316 13.7159 14.8453 13.8581 14.6249 13.8581C14.5061 13.8581 14.3539 13.7159 14.3539 13.3248V9.67635C14.3539 9.21335 14.2188 9 13.8455 9H11.1006C10.829 9 10.6597 9.21335 10.6597 9.42744C10.6597 9.87192 11.2862 9.97859 11.3538 11.2246V13.9307C11.3538 14.5182 11.2542 14.6256 11.0316 14.6256C10.4393 14.6256 8.99857 12.3291 8.13458 9.71413C7.96675 9.19557 7.79609 9 7.3552 9H5.59307C5.08462 9 5 9.24891 5 9.51633C5 9.99637 5.59307 12.4165 7.76195 15.6197C9.20266 17.8073 11.2528 18.983 13.0996 18.983C14.2181 18.983 14.3539 18.7163 14.3539 18.2718V16.6154C14.3539 16.082 14.4556 15.9931 14.8112 15.9931C15.0651 15.9931 15.523 16.1346 16.557 17.1851C17.7424 18.4303 17.9458 19 18.6071 19H20.3522C20.8606 19 21.0981 18.7333 20.9623 18.217C20.8101 17.7006 20.2334 16.9539 19.4882 16.0642C19.0814 15.5657 18.4713 15.0145 18.285 14.7471C18.0311 14.3915 18.0987 14.2493 18.285 13.9285C18.2679 13.9285 20.4034 10.7609 20.6231 9.69264" fill="black" fill-opacity="0.65"/>
</svg>
