<svg width="22" height="21" viewBox="0 0 22 21" fill="none" xmlns="http://www.w3.org/2000/svg">
<path fill-rule="evenodd" clip-rule="evenodd" d="M21.5 10.5002C21.5 16.2985 16.7985 21 10.9998 21C5.2015 21 0.5 16.2985 0.5 10.5002C0.5 4.7015 5.2015 0 10.9998 0C16.7985 0 21.5 4.7015 21.5 10.5002Z" fill="#FB3F1C"/>
<path fill-rule="evenodd" clip-rule="evenodd" d="M12.6312 16.9405H14.9285V3.82224H11.5993C8.24998 3.82224 6.4923 5.53727 6.4923 8.07022C6.49078 10.0674 7.46938 11.2935 9.17604 12.5036L6.18311 16.9405H8.66503L11.9957 11.9698L10.8359 11.1995C9.43725 10.2567 8.75223 9.52404 8.75223 7.93504C8.75223 6.53796 9.73616 5.59553 11.6077 5.59553H12.6312V16.9405Z" fill="white"/>
</svg>
